<svg width="240" height="324" viewBox="0 0 240 324" fill="none" xmlns="http://www.w3.org/2000/svg">
<path fill-rule="evenodd" clip-rule="evenodd" d="M198.116 286.313C202.199 286.116 200.557 278.971 200.263 276.347C197.031 266.764 197.791 256.308 196.519 246.263C195.727 236.886 194.71 227.538 193.854 218.168C192.172 199.147 180.099 160.427 166.321 154.2C164.586 146.582 157.417 139.47 148.347 139.47C142.161 132.145 134.716 126.99 125.166 128.031C121.219 128.21 117.392 132.398 113.611 133.206C111.493 133.498 92.7032 132.746 88.9392 134.983C86.3174 136.329 83.9505 138.818 84.7215 141.986C85.9515 145.825 82.129 141.672 74.1551 145.769C57.8953 155.538 67.6115 168.607 68.042 169.012C57.8953 183.135 49.0265 194.593 44.9231 211.855C42.2636 224.671 42.563 237.902 40.3348 250.783C39.548 255.25 38.341 259.564 37.035 263.902C35.6195 269.578 34.9312 283.727 34.151 283.853C32.7298 284.206 34.9724 287.126 36.4783 287.128C78.2298 294.056 120.639 287.415 162.615 286.33C174.445 285.918 186.287 285.823 198.116 286.313Z" fill="white"/>
<path fill-rule="evenodd" clip-rule="evenodd" d="M134.835 170.258C134.855 170.067 135.112 170.068 135.132 170.258L135.427 173.105C135.786 176.582 136.131 180.052 136.381 183.545C136.693 187.9 136.902 192.255 137.003 196.621C137.353 211.824 137.423 227.036 137.453 242.244C139.508 242.102 141.564 241.965 143.622 241.832C145.017 241.742 146.413 241.655 147.809 241.57L151.368 241.354V241.354L152.833 241.264C153.824 241.203 154.949 240.953 155.641 241.831C155.918 242.182 156.057 242.639 155.799 243.056C155.203 244.018 154.287 243.984 153.252 244.026C152.275 244.065 151.298 244.104 150.321 244.141C148.228 244.223 146.135 244.3 144.041 244.358C141.843 244.42 139.646 244.47 137.45 244.507C137.427 250.928 137.162 257.34 136.875 263.753L136.745 266.639C136.393 274.443 136.016 282.254 135.479 290.048C135.435 290.686 134.532 290.685 134.488 290.048C133.884 281.271 133.485 272.475 133.089 263.686C132.803 257.313 132.636 250.939 132.556 244.564C132.266 244.566 131.975 244.57 131.685 244.571C123.44 244.607 115.197 244.643 106.952 244.566C106.966 244.582 106.979 244.598 106.988 244.62C107.585 246.029 107.642 247.827 107.627 249.339C107.61 251.074 107.377 252.787 106.978 254.473C105.547 260.516 101.857 265.927 97.6545 270.402L97.5173 270.547C96.526 271.595 95.3888 272.648 94.7801 273.982C94.1584 275.345 93.9426 276.939 93.6358 278.404L93.6 278.572L92.4004 284.115C92.0193 285.875 91.9111 288.443 90.518 289.713C89.2183 290.898 87.4964 290.279 86.8848 288.753C86.4071 287.562 86.8829 286.254 87.1658 285.064L89.3822 275.744C89.7464 274.224 90.1444 272.694 90.9304 271.328C91.7355 269.93 92.9159 268.916 94.1203 267.879C96.4009 265.914 98.4946 263.666 100.265 261.231C102.035 258.797 103.548 256.114 104.609 253.293C105.14 251.881 105.575 250.413 105.875 248.934C106.161 247.531 106.158 246.077 106.463 244.689C106.484 244.593 106.565 244.527 106.658 244.498C106.636 244.436 106.67 244.352 106.756 244.347L113.499 243.913C119.493 243.526 125.487 243.13 131.476 242.676L132.534 242.6V242.6C132.452 234.094 132.522 225.587 132.675 217.078C132.816 209.275 132.819 201.47 133.051 193.668C133.166 189.796 133.415 185.933 133.692 182.069C133.975 178.117 134.428 174.198 134.835 170.258ZM71.5199 215.501C71.4481 215.068 71.993 214.799 72.2442 215.196C75.1155 219.723 76.4999 224.641 77.0835 229.94C77.599 234.616 77.4471 239.359 77.1904 244.048C76.9166 249.048 76.5971 254.047 76.2741 259.045L75.7778 266.709V266.709L74.5324 285.923C74.4433 287.297 74.1314 288.547 72.9485 289.186C72.7987 289.311 72.6426 289.423 72.4607 289.521C71.8216 289.862 70.974 289.69 70.6045 289.034L70.7527 289.131C70.8817 289.213 70.7368 289.099 70.3178 288.791L69.9623 288.331V288.331C69.7039 287.942 69.5389 287.56 69.4725 287.099C69.3694 286.381 69.503 285.594 69.5499 284.873L70.3662 272.274V272.274C71.0011 262.479 71.7424 252.687 72.3012 242.888C72.5615 238.32 72.7438 233.749 72.6204 229.173C72.4975 224.623 72.2657 219.996 71.5199 215.501ZM96.3595 131.161L96.5188 131.134C102.222 130.186 108.424 130.364 113.636 133.114C113.679 133.136 113.659 133.208 113.611 133.206L111.933 133.139C106.622 132.931 101.328 132.808 96.1054 134.056L95.5708 134.185C93.6901 134.644 91.7262 135.206 90.2156 136.448C88.7718 137.636 88.0529 139.468 87.3616 141.155L87.2692 141.378C86.5678 143.043 85.6801 144.623 84.1428 145.665C82.1516 147.014 79.7568 146.849 77.4737 147.032C73.4537 147.355 70.167 150.27 68.5318 153.836C67.5416 155.996 67.1192 158.417 67.0356 160.779C66.9927 161.981 66.9866 163.23 67.1467 164.425C67.1978 164.807 67.6698 166.198 67.9104 166.165C68.4452 166.09 68.934 166.369 69.1007 166.797C70.4216 165.52 71.7804 164.281 73.183 163.085C76.6793 160.107 80.4452 157.407 84.4111 155.088C87.4379 153.317 90.6306 151.563 93.9367 150.236C93.6747 150.231 93.4164 150.283 93.1664 150.413C93.057 150.47 92.9482 150.333 93.0346 150.242C94.0759 149.146 95.3233 148.99 96.5807 149.282C96.849 149.197 97.1175 149.114 97.3871 149.036C97.5213 148.997 97.588 149.182 97.4786 149.253L97.1697 149.45V149.45C98.5415 149.91 99.8883 150.814 100.955 151.527C104.018 153.574 106.714 156.078 109.446 158.534L109.943 158.98C112.349 161.129 114.816 163.217 117.549 164.94C118.98 165.843 120.482 166.677 122.059 167.298C123.411 167.831 125.612 168.166 126.245 169.596C126.808 170.28 126.573 171.152 125.914 171.613C124.802 172.837 122.578 172.046 121.253 171.536C119.656 170.922 118.109 170.183 116.634 169.317C113.769 167.634 111.128 165.543 108.668 163.318C106.098 160.994 103.674 158.525 101.175 156.128C100.092 155.089 99.0339 154.026 97.9494 152.989L97.4047 152.473C96.8511 151.954 96.0625 151.144 95.2193 150.654C93.6308 151.602 92.0178 152.511 90.4436 153.484C88.2462 154.841 86.1135 156.296 84.0137 157.799C79.9713 160.693 76.1406 163.934 72.5843 167.407C66.0621 173.778 60.5053 181.053 55.651 188.755L55.2824 189.342C52.5239 193.751 49.9153 198.302 48.0656 203.174C46.0305 208.535 45.0407 214.172 44.503 219.863C43.9694 225.513 43.7894 231.191 43.193 236.836C42.5813 242.625 41.3763 248.286 40.0056 253.937L39.6787 255.276C38.4384 260.337 37.1583 265.398 36.5207 270.578C36.1804 273.345 35.9756 276.15 36.0219 278.939C36.0684 281.745 36.5091 284.488 36.8647 287.264C37.0009 288.328 35.9547 289.215 35.0186 289.356C33.942 289.518 33.0171 288.831 32.6824 287.831C31.6392 284.712 31.4497 281.264 31.4824 277.99C31.5154 274.667 31.9394 271.365 32.536 268.099C33.7094 261.674 35.5201 255.383 37.0349 249.035C38.3699 243.44 39.2659 237.835 39.7489 232.104C40.2502 226.157 40.5504 220.191 41.465 214.287C42.3678 208.459 44.0663 202.892 46.628 197.578C48.9604 192.739 51.8678 188.185 54.916 183.77C58.6176 178.41 62.683 173.309 67.2274 168.661C66.8192 168.643 66.4001 168.511 66.0152 168.271C64.8375 167.536 64.2891 166.099 64.1205 164.787C63.7259 161.716 63.8211 158.511 64.6104 155.509C65.8837 150.667 69.1884 146.364 73.9778 144.619C75.2106 144.169 76.5211 144.005 77.8275 143.973C79.0673 143.942 80.4213 144.104 81.6175 143.711C83.5215 143.084 84.3376 140.841 85.0525 139.141L85.0854 139.063C86.0021 136.896 87.1024 135.038 89.0879 133.685C91.2062 132.241 93.8603 131.585 96.3595 131.161V131.161ZM150.549 139.731C152.263 139.136 154.406 139.676 156.082 140.195C157.949 140.774 159.674 141.841 161.154 143.107C162.714 144.443 164.004 146.092 164.915 147.935L165.002 148.112C165.835 149.822 166.782 152.168 166.363 154.046C166.351 154.099 166.337 154.15 166.321 154.2C169.722 155.875 172.862 157.972 175.597 160.63C178.781 163.726 181.477 167.248 183.759 171.053C192.821 186.166 194.416 204.317 195.486 221.552L195.753 225.922C196.334 235.359 197.014 244.773 198.781 254.079L198.91 254.751C200.798 264.495 203.502 274.313 203.228 284.309C203.145 287.304 198.721 287.283 198.593 284.309C198.11 273.113 195.498 262.303 193.73 251.282C190.618 231.893 192.177 211.903 187.768 192.708C186.038 185.175 183.357 177.868 179.53 171.144C177.639 167.822 175.476 164.612 172.942 161.747C170.762 159.281 168.496 156.908 165.948 154.835C165.134 155.651 163.508 155.235 163.083 154.046C162.791 153.228 162.876 152.273 162.688 151.417C162.514 150.622 162.275 149.835 161.955 149.086C161.319 147.595 160.384 146.163 159.305 144.957C158.139 143.652 156.8 142.568 155.301 141.673C153.791 140.772 152.141 140.503 150.549 139.845C150.495 139.823 150.49 139.751 150.549 139.731ZM157.208 243.354C157.21 243.276 157.303 243.239 157.36 243.291C157.961 243.844 158.324 244.638 158.766 245.319C159.276 246.103 159.812 246.872 160.373 247.62C161.498 249.12 162.751 250.533 164.013 251.918C165.188 253.206 166.439 254.44 167.738 255.603C169.144 256.863 170.72 257.987 171.998 259.383C174.665 262.294 175.096 266.29 175.658 270.042L175.72 270.448C176.063 272.675 176.371 274.908 176.648 277.144C176.783 278.231 176.917 279.32 177.027 280.41L177.06 280.756C177.158 281.823 177.185 282.906 176.572 283.839C175.916 284.837 174.425 285.186 173.538 284.23C172.014 282.586 172.3 279.666 172.102 277.552C171.938 275.803 171.752 274.057 171.545 272.313L171.439 271.441C171.194 269.458 170.995 267.434 170.541 265.485C170.141 263.769 169.379 262.473 168.129 261.229C166.869 259.977 165.56 258.807 164.398 257.458C163.165 256.027 162.052 254.493 161.05 252.892C160.193 251.523 159.506 250.032 158.876 248.543L158.772 248.295C158.163 246.844 157.16 244.954 157.208 243.354ZM179.203 180.997C179.216 180.794 179.516 180.791 179.52 180.997C179.558 182.738 179.594 184.48 179.63 186.222C179.921 200.256 179.742 214.323 181.149 228.309C181.813 234.903 183.035 241.4 184.45 247.871C185.174 251.182 185.933 254.484 186.654 257.796C187.358 261.023 188.112 264.266 188.669 267.523C189.217 270.724 189.708 273.95 189.929 277.192L189.956 277.615C190.051 279.186 190.503 281.496 189.639 282.888C188.702 284.396 186.909 284.423 185.905 282.983C184.962 281.632 185.197 279.227 185.03 277.615C184.861 275.972 184.682 274.328 184.479 272.689C184.082 269.492 183.56 266.302 183.016 263.127C181.885 256.514 180.243 249.985 179.032 243.382C177.79 236.617 176.907 229.804 176.87 222.916C176.833 215.97 177.568 209.037 177.939 202.105C178.316 195.066 178.744 188.031 179.203 180.997ZM112.933 137.346C113.309 136.077 114.639 135.284 115.935 135.64C117.124 135.967 118.105 137.41 117.64 138.644C117.133 139.991 116.247 141.14 115.5 142.365C114.81 143.496 113.804 144.387 113.101 145.498L113.875 146.333C114.263 146.75 114.651 147.164 115.044 147.571L116.395 148.971C117.448 150.059 118.506 151.141 119.595 152.192C122.796 155.281 126.048 158.268 129.633 160.913C130.449 161.515 131.271 162.114 132.117 162.674L132.432 162.883C133.012 163.263 133.659 163.637 134.36 163.572C136.063 163.416 137.601 161.607 138.771 160.481L138.833 160.422C141.732 157.662 144.417 154.645 146.765 151.4C147.286 150.679 147.791 149.946 148.282 149.204C147.147 147.878 147.418 145.289 147.356 143.681C147.312 142.55 147.308 141.419 147.302 140.287L147.299 140.059C147.285 139.326 147.252 138.623 147.727 138.021C147.755 137.986 147.812 137.987 147.848 138.005C148.498 138.346 148.699 138.918 148.977 139.558L149.006 139.625C149.344 140.394 149.667 141.17 149.995 141.944C150.338 142.754 150.652 143.576 150.971 144.395C151.119 144.776 151.261 145.159 151.399 145.544C151.483 145.79 151.57 146.034 151.66 146.279L151.681 146.297C151.799 146.398 151.9 146.504 151.986 146.613C152.349 146.795 152.638 147.126 152.773 147.613C153.068 148.672 152.458 149.535 151.914 150.376C149.704 153.791 147.185 157.046 144.385 159.998C142.994 161.465 141.531 162.866 140.008 164.195L139.742 164.425C138.373 165.602 136.888 166.716 135.06 166.991C132.922 167.313 131.181 166.249 129.544 165.024L129.381 164.901C127.829 163.725 126.308 162.509 124.835 161.236C121.831 158.642 118.973 155.856 116.436 152.8C113.969 149.827 111.531 146.503 110.01 142.925C109.917 142.708 110.161 142.479 110.352 142.661C111.095 143.369 111.809 144.115 112.516 144.87C112.535 143.758 112.33 142.637 112.444 141.518C112.584 140.158 112.543 138.655 112.933 137.346Z" fill="black"/>
<path fill-rule="evenodd" clip-rule="evenodd" d="M166.991 109.396C165.666 99.8335 162.636 90.5493 162.201 80.8437C161.942 76.6905 161.683 72.537 161.425 68.3833C161.327 65.7892 157.958 64.914 156.671 67.2122C153.747 63.9676 148.51 64.4455 144.515 64.5439C120.995 65.3777 98.6438 81.2861 90.57 103.467C90.3759 103.996 90.4346 104.559 90.6541 105.062C86.8908 117.617 100.2 125.7 109.277 131.298C112.959 135.191 117.287 138.425 122.174 140.64C127.796 143.285 134.054 144.761 140.266 144.902C141.629 144.933 142.448 143.83 142.547 142.689C144.529 142.227 147.92 142.76 148.968 140.729C160.918 135.536 168.705 122.375 166.991 109.396V109.396Z" fill="white"/>
<path fill-rule="evenodd" clip-rule="evenodd" d="M161.399 75.4847C161.365 75.1746 161.813 75.1651 161.905 75.4162C162.662 77.4805 163.448 79.5306 164.048 81.647C164.626 83.6868 165.043 85.7728 165.465 87.8499C166.164 91.2971 166.766 94.7696 167.264 98.2532C168.328 97.4222 169.719 97.3465 171.029 97.9933C171.644 98.2966 171.879 99.0986 171.731 99.7209C171.613 100.22 171.468 100.717 171.295 101.203C171.666 101.532 171.981 101.937 172.21 102.403C172.814 103.629 172.619 104.915 172.078 106.085C172.119 106.154 172.16 106.225 172.199 106.299C172.982 107.82 172.563 109.183 171.991 110.668C171.562 111.778 171.801 113.029 170.877 113.868C170.556 114.9 170.073 115.861 169.372 116.728C169.212 117.02 168.974 117.255 168.69 117.428C168.619 119.057 168.447 120.682 168.124 122.292C166.868 128.543 162.881 134.113 157.947 138.042C153.118 141.886 147.447 144.183 141.328 144.926C138.357 145.287 135.381 145.173 132.434 144.658L132.067 144.593C129.348 144.099 126.057 143.282 124.177 141.23C123.188 140.151 123.766 137.776 125.514 138C126.44 138.119 127.247 138.267 128.119 138.609C128.799 138.876 129.48 139.133 130.178 139.351C131.516 139.767 132.899 140.092 134.287 140.272C137.18 140.646 140.187 140.547 143.046 139.982C148.247 138.956 153.299 136.589 157.245 133.025C161.832 128.881 164.521 123.519 164.917 117.335C165.358 110.447 164.563 103.394 163.903 96.5415C163.559 92.9771 163.123 89.4199 162.599 85.8776C162.086 82.4166 161.778 78.9603 161.399 75.4847ZM120.803 53.2433L121.025 53.2091C129.856 51.8647 139.147 51.9601 147.448 55.6059C149.039 56.3052 150.596 57.1485 152.062 58.1271C153.112 58.0174 154.169 57.9284 155.206 57.9138C156.512 57.8967 157.785 58.5751 157.946 59.8961C159.169 60.0482 160.296 60.4984 161.016 61.399C161.297 61.7496 161.485 62.1554 161.58 62.5781C162.332 62.7558 163.069 63.0283 163.769 63.3876C164.618 63.8251 165.108 65.0424 164.808 65.943C164.739 66.1474 164.66 66.3466 164.572 66.5414L164.504 66.6867L164.544 66.7417C165.222 67.8323 164.751 69.2631 163.712 69.9141C162.932 70.4023 162.062 70.7912 161.166 70.9793C161.24 71.3386 161.307 71.7 161.362 72.0656C161.383 72.2138 161.193 72.3194 161.109 72.1734C161.109 72.1734 161.43 73.1731 161.914 74.2744C162.104 74.7075 161.495 75.0921 161.263 74.6546C160.646 73.488 160.264 72.2918 159.704 71.0892C159.186 71.0554 158.671 70.937 158.174 70.7109C157.849 70.5629 157.602 70.3135 157.424 70.0155C157.414 70.0282 157.407 70.043 157.397 70.0578C155.73 72.203 152.472 72.9554 149.954 73.6338C147.25 74.3632 144.482 74.8132 141.704 75.145C136.853 75.722 131.964 75.8298 127.091 76.054C126.768 76.0686 126.446 76.0849 126.123 76.1005C124.144 77.8378 121.594 78.9174 118.978 79.2456C117.653 79.4117 116.085 79.3695 114.599 79.0309C114.061 79.5804 113.382 79.9874 112.64 80.1965C112.506 82.9649 110.963 85.5861 108.63 87.114L108.672 87.2785C109.251 89.6426 109.244 92.2267 107.166 93.8698C106.884 94.0921 106.577 94.2828 106.254 94.4408L106.325 94.6041C107.398 97.1137 107.741 99.8859 105.723 101.968C104.905 102.812 103.469 102.612 102.855 101.644L102.825 101.595C102.791 101.537 102.754 101.482 102.719 101.425C102.664 101.537 102.581 101.631 102.457 101.684C101.69 102.014 101.383 101.771 100.684 101.431C100.038 101.114 99.3552 100.877 98.6582 100.693C98.0897 100.545 97.5235 100.439 96.953 100.378C93.3488 101.756 91.0207 105.983 91.5742 109.95C91.8742 112.11 93.0596 114.249 95.1256 115.145C96.0298 115.538 97.0925 115.703 98.0707 115.57C99.3953 115.39 100.414 114.556 101.785 115.033C102.326 115.221 102.664 115.646 102.693 116.227C102.742 117.14 102.419 117.825 101.873 118.332C102.835 119.135 103.61 120.251 104.445 121.141C105.488 122.255 106.547 123.369 107.675 124.396C108.74 125.37 109.872 126.275 111.072 127.078L111.198 127.161C112.702 128.141 114.596 129.01 114.668 131.058C114.691 131.675 114.317 132.241 113.81 132.556C111.915 133.731 109.853 132.188 108.368 131.058C107.77 130.603 107.189 130.132 106.629 129.644C106.255 129.673 105.847 129.612 105.423 129.424C105.15 129.306 104.884 129.166 104.622 129.018C103.771 129.232 102.968 129.044 102.307 128.598C101.354 128.832 100.344 128.86 99.4861 128.672C98.7026 128.498 98.003 128.128 97.4263 127.632C96.2221 128.016 94.8847 127.945 93.6974 127.215C92.9854 126.778 92.4298 126.154 92.1277 125.425C91.9739 125.184 91.8755 124.903 91.868 124.594L91.8678 124.476C90.8326 124.499 89.7953 124.144 88.9946 123.325C88.2594 122.572 87.9004 121.634 87.8601 120.68C86.8185 120.385 85.8657 119.778 85.1411 118.842C83.9411 117.29 83.7807 115.373 84.3976 113.661C84.3573 113.571 84.3214 113.478 84.2897 113.385C83.3326 112.034 82.7009 110.405 82.7516 108.771C82.758 108.517 82.7918 108.268 82.8425 108.021C81.9002 107.52 81.2073 106.64 81.1333 105.522C81.0763 104.645 81.3911 103.787 81.9594 103.138C81.6826 102.477 81.5601 101.758 81.6446 101.04C81.7312 100.302 81.9911 99.6616 82.3716 99.1271C82.3629 98.9327 82.3735 98.7359 82.4052 98.5351C82.3671 98.3386 82.3354 98.1357 82.3187 97.9288C82.139 95.6629 83.7023 93.6804 85.6059 92.6342C86.1066 92.3595 86.6474 92.1354 87.1883 91.9452C87.5812 91.8057 88.1728 91.7592 88.5192 91.5035C88.5045 91.4929 88.6481 91.3071 88.6735 91.2076C88.7009 91.085 88.7305 90.9645 88.7455 90.8399C88.8023 90.3157 88.7601 89.7768 88.7495 89.2505C88.703 86.8622 88.777 84.4634 89.0284 82.0878C89.4953 77.6833 90.6469 73.3739 92.8904 69.5252C94.7728 66.3 97.3502 63.5757 100.306 61.3163C106.193 56.8182 113.54 54.3725 120.803 53.2433ZM93.5197 108.018C92.7533 106.176 96.3612 106.158 97.3151 106.245L97.3432 106.248C99.4903 106.462 102.847 107.495 103.726 109.662C104.089 110.559 103.013 111.532 102.151 111.237C101.308 110.948 100.835 110.328 100.159 109.785C99.9813 109.643 99.7962 109.51 99.6078 109.382C99.707 109.698 99.8659 109.99 100.086 110.208L100.138 110.257C101.177 111.191 99.3192 112.658 98.6296 111.422C98.2624 110.764 98.1154 110.042 98.2299 109.295C98.2639 109.074 98.3231 108.873 98.409 108.68C98.3406 108.646 98.2732 108.609 98.2039 108.576L98.0802 108.518C97.2532 108.143 93.7245 106.669 93.7531 107.987C93.7563 108.133 93.5672 108.133 93.5197 108.018Z" fill="black"/>
<path fill-rule="evenodd" clip-rule="evenodd" d="M143.152 128.274C141.732 127.694 140.465 126.727 139.538 125.492C139.216 125.063 139.133 124.61 139.2 124.195C139.276 123.729 139.552 123.306 139.928 123.023C140.305 122.738 140.777 122.598 141.233 122.67C141.63 122.732 142.024 122.949 142.337 123.399L142.402 123.489C142.953 124.235 143.67 124.846 144.488 125.24C145.276 125.62 146.158 125.798 147.07 125.695C148.808 125.498 150.005 124.558 151.278 123.282C151.436 123.121 151.594 122.954 151.752 122.786C151.852 122.632 151.991 122.534 152.146 122.482C152.317 122.425 152.511 122.428 152.689 122.49C152.86 122.55 153.013 122.663 153.116 122.814C153.213 122.958 153.269 123.135 153.251 123.338C153.134 124.661 152.443 125.842 151.461 126.769C150.37 127.798 148.924 128.511 147.563 128.76C146.064 129.036 144.536 128.839 143.152 128.274V128.274ZM148.271 107.866C149.866 108.836 152.297 111.098 150.581 113.503C148.56 115.624 145.652 113.192 144.219 112.093C142.89 111.241 141.396 113.432 142.629 114.428C152.987 122.099 157.19 108.12 149.078 106.725C148.184 106.572 147.853 107.566 148.271 107.866ZM129.711 98.9426C129.887 96.7538 133.219 96.2568 133.551 98.4227C133.847 100.363 133.498 102.145 132.624 103.892C131.79 105.561 129.692 104.782 129.533 103.263C129.32 101.226 129.601 100.304 129.711 98.9426ZM155.076 97.9736C155.541 97.3649 156.212 96.9494 157.015 97.1842C159.526 97.9182 158.786 101.484 157.904 103.22C157.425 104.163 155.876 104.402 155.176 103.572C154.036 102.218 153.489 99.5154 154.94 98.1822C154.979 98.1133 155.023 98.0438 155.076 97.9736ZM132.589 89.3651L132.986 89.2957C134.213 89.0834 135.738 88.8794 136.606 89.8662C137.067 90.3895 137.225 91.3622 136.606 91.8631C135.518 92.7444 134.314 92.4028 133.01 92.4775C131.935 92.5392 130.902 92.7171 129.867 93.0132C127.595 93.6627 125.744 94.8484 123.804 96.1503C123.55 96.3211 123.29 95.9954 123.411 95.7572C124.531 93.5627 126.701 91.7601 128.875 90.6613C130.036 90.0748 131.305 89.5883 132.589 89.3651ZM152.787 88.3821L153.091 88.4442C156.395 89.1351 160.687 90.515 162.251 93.7613C162.311 94.2203 162.248 94.3187 162.197 94.3829L162.18 94.4043C162.137 94.4592 162.104 94.5349 161.905 94.5974C161.85 94.5842 161.794 94.5703 161.737 94.5555C161.02 94.3675 160.453 94.1085 159.904 93.8398L159.308 93.5462C158.617 93.2073 157.92 92.8807 157.181 92.6396C155.605 92.1252 153.983 91.7628 152.337 91.5693C151.98 91.5274 151.636 91.4069 151.365 91.2004C151.108 91.0044 150.911 90.733 150.821 90.3722C150.705 89.9053 150.739 89.5518 150.989 89.1306C151.177 88.8143 151.447 88.5951 151.756 88.4692C152.071 88.3408 152.43 88.3106 152.787 88.3821Z" fill="black"/>
<path fill-rule="evenodd" clip-rule="evenodd" d="M148.851 138.659C148.851 138.659 139.473 140.038 135.275 138.09C131.089 136.147 127.018 134.268 123.222 131.695C119.332 129.06 116.032 125.93 113.677 121.923C111.486 118.195 109.665 114.239 107.831 110.314C107.724 110.085 106.671 107.804 106.299 107.04C105.727 105.854 104.054 106.226 104.054 108.067C104.054 109.907 103.971 123.846 107.187 129.329C110.087 134.282 115.004 137.742 119.888 140.762C125.292 144.102 132.471 147.712 138.919 148.665C144.754 149.528 151.413 147.106 155.639 143.113C160.056 138.938 161.307 133.265 163.587 127.833C164.096 126.619 162.291 125.887 161.761 127.081C160.764 129.329 148.851 138.659 148.851 138.659Z" fill="black"/>
<path fill-rule="evenodd" clip-rule="evenodd" d="M166.075 104.71C165.478 106.336 164.569 108.029 163.457 109.398C158.958 113.209 154.587 111.099 152.367 105.934C151.524 102.284 153.763 98.3519 156.136 95.6667C159.562 92.2308 165.155 94.0341 166.731 98.1186C166.826 98.6478 166.884 99.1758 166.912 99.702C166.879 101.412 166.673 102.874 166.075 104.498M122.833 101.429C128.76 94.3771 139.847 94 139.564 104.854C138.291 118.593 116.853 115.22 122.833 101.429ZM167.939 95.5463C167.732 95.1944 167.501 94.8539 167.25 94.5282C167.157 94.4728 167.103 93.9816 166.761 93.9453C162.192 88.9027 154.166 91.7637 151.265 96.7884C150.736 97.4237 150.304 98.1674 149.985 98.9532C147.127 98.4289 143.796 98.5307 141.138 99.6105C138.503 92.7264 130.524 92.1118 125.266 95.0532C121.996 96.6622 119.876 100.032 116.695 101.883C109.219 102.421 101.195 100.745 93.8531 102.621C88.0631 103.826 92.9033 106.759 93.8742 104.801C100.796 102.755 108.996 104.484 116.183 104.023C116.93 105.288 118.363 106.323 119.791 106.278C121.334 119.957 141.274 117.689 141.962 105.529C142.742 104.295 143.713 103.114 145.102 102.345C145.633 102.235 146.147 102.092 146.616 101.871C147.419 101.757 148.655 102.098 149.393 102.766C151.922 117.944 166.49 116.177 169.093 102.88C169.145 102.827 169.29 102.629 169.401 102.311C170.292 101.132 172.474 100.694 172.125 98.7038C171.815 96.7136 169.302 96.7372 167.939 95.5463Z" fill="black"/>
</svg>
