<svg width="240" height="324" viewBox="0 0 240 324" fill="none" xmlns="http://www.w3.org/2000/svg">
<path fill-rule="evenodd" clip-rule="evenodd" d="M47.4645 286.051C75.0656 290.245 103.167 290.456 130.998 288.933C142.012 288.108 153.06 287.96 164.065 289.014C170.568 289.498 199.081 291.679 201.411 285.852C199.944 254.825 196.975 223.533 187.865 193.693C184.119 183.097 180.901 174.303 173.589 165.535C171.284 163.141 166.315 158.12 163.467 156.482C161 155.064 159.969 155.57 158.552 153.174C157.144 150.527 156.106 146.107 154.107 144.24C152.072 142.338 149.056 143.018 145.317 143.631C146.004 134.346 141.72 131.981 135.818 130.216C125.444 126.255 115.198 128.245 112.587 140.879C107.746 140.879 105.026 142.963 102.086 144.966C100.884 145.784 101.72 147.87 100.285 148.513C97.6289 149.459 92.9354 149.228 90.3781 150.392C78.7492 155.686 68.3917 163.364 61.5897 174.576C46.3403 198.515 35.8652 248.942 37.6779 277.315C36.8837 278.561 37.9819 280.348 38.2611 281.687C38.6135 282.853 39.7545 283.628 40.9454 283.495C42.6072 285.283 45.1775 285.681 47.4645 286.051Z" fill="white"/>
<path fill-rule="evenodd" clip-rule="evenodd" d="M161.709 155.78C161.54 155.686 161.689 155.443 161.859 155.523C170.045 159.365 176.324 166.105 180.743 173.892C185.318 181.955 187.926 191.11 190.174 200.058L190.255 200.381C192.652 209.953 194.69 219.624 196.526 229.319C198.384 239.136 199.876 249.015 201.076 258.934C201.67 263.838 202.199 268.751 202.612 273.674C202.818 276.134 203.005 278.596 203.174 281.059C203.241 282.044 203.304 283.029 203.358 284.015L203.397 284.755C203.431 285.426 203.511 286.098 203.345 286.76C203.202 287.331 202.9 287.847 202.635 288.371C202.109 289.406 200.67 289.235 200.104 288.371L199.939 288.119C199.564 287.539 199.252 286.999 199.134 286.277C199.02 285.578 199.016 284.845 198.965 284.139C198.871 282.839 198.791 281.538 198.7 280.238C198.508 277.502 198.293 274.767 198.055 272.034C197.583 266.639 197.078 261.249 196.457 255.869C195.353 246.307 193.969 236.771 192.337 227.286C190.742 218.02 188.726 208.848 186.623 199.687L186.406 198.74C182.723 182.746 177.048 164.327 161.709 155.78ZM74.5218 218.408C74.582 218.248 74.841 218.211 74.8848 218.408C75.4362 220.891 75.4907 223.449 75.575 225.992C75.658 228.5 75.6546 231.02 75.6181 233.53C75.4833 242.754 75.2302 251.97 75.0113 261.193C74.9019 265.806 74.7992 270.419 74.7204 275.033C74.6906 276.764 74.6656 278.494 74.6448 280.225L74.6193 282.507C74.6066 283.516 74.5801 284.513 74.4572 285.521C74.376 286.184 74.2032 286.816 73.8373 287.385C73.5776 287.788 73.2075 287.993 72.8468 288.267L72.7793 288.319C72.3191 288.683 71.8345 288.685 71.3788 288.319L71.2464 288.214C70.8111 287.874 70.4349 287.608 70.157 287.069C69.7704 286.32 69.7085 285.507 69.6428 284.682C69.5431 283.431 69.6092 282.161 69.6221 280.906C69.6479 278.389 69.6827 275.872 69.7269 273.355C69.8889 264.125 70.2092 254.894 70.7929 245.68C71.0679 241.341 71.4408 236.987 71.941 232.665L72.0362 231.855C72.1879 230.583 72.3263 229.289 72.4822 227.99C70.1547 226.352 68.1088 224.365 66.3641 222.111C66.2357 221.945 66.4472 221.712 66.6022 221.873C68.3849 223.719 70.4289 225.192 72.6918 226.349C73.0626 223.631 73.5724 220.927 74.5218 218.408ZM113.406 136.132C113.438 136.107 113.488 136.097 113.518 136.132C114.019 136.716 113.917 137.608 113.933 138.347L113.935 138.416C113.971 139.497 113.978 140.575 113.974 141.656L113.963 145.1V145.1C113.962 145.573 113.923 146.066 113.947 146.542L113.96 146.726V146.726C114.223 146.996 114.345 147.385 114.256 147.775C114.24 148.277 113.978 148.695 113.596 148.958L114.415 150.12V150.12L115.235 151.282C116.925 153.68 118.633 156.057 120.414 158.388C122.229 160.766 124.166 163.054 126.193 165.253C127.183 166.328 128.19 167.388 129.221 168.425C129.64 168.846 130.069 169.256 130.493 169.672L130.916 170.089C131.165 170.339 131.479 170.586 131.645 170.902C131.742 171.089 131.764 171.549 131.799 171.625C132.112 172.312 131.579 173.408 130.692 173.065L130.732 173.039C130.894 172.926 130.79 172.925 130.422 173.034C130.189 173.033 129.972 172.98 129.768 172.874L129.707 172.84C129.421 172.695 129.165 172.413 128.932 172.187L128.874 172.132C128.341 171.633 127.834 171.103 127.323 170.581C126.258 169.493 125.217 168.381 124.208 167.239C122.197 164.961 120.291 162.591 118.485 160.147C116.646 157.658 114.936 155.041 113.466 152.317C112.908 151.283 112.396 150.229 111.906 149.163C110.951 148.856 110.73 147.841 110.796 146.697C110.444 145.876 110.127 145.039 109.939 144.184C109.914 144.066 110.064 143.956 110.155 144.058C110.46 144.405 110.742 144.775 111.014 145.154C111.178 144.352 111.386 143.613 111.483 143.143L111.906 141.065V141.065C109.522 140.941 106.909 141.921 105.265 143.637C105.177 144.084 104.833 144.404 104.498 144.821C104.115 145.299 103.781 145.834 103.532 146.395C102.979 147.637 103.291 149.467 102.219 150.378C102.107 150.473 101.982 150.539 101.854 150.579C102.362 153.075 102.131 155.825 102.12 158.357L102.12 158.579C102.123 161.413 102.028 164.249 101.918 167.08L101.807 169.882C101.663 173.619 101.569 177.358 101.932 181.075C103.59 179.606 105.303 178.205 107.076 176.87C108.242 175.992 109.431 175.145 110.641 174.33L111.625 173.672C112.804 172.881 114.011 172.068 115.302 171.502C116.99 170.761 118.595 171.016 120.225 171.775C121.848 172.532 123.422 173.41 125.014 174.23C126.633 175.063 128.256 175.89 129.877 176.719C130.951 177.268 132.525 177.763 133.313 178.774C133.363 178.551 133.422 178.328 133.49 178.105C133.412 177.767 133.442 177.401 133.632 177.052C136.279 172.186 138.729 167.204 141.161 162.228C142.392 159.709 143.562 157.161 144.796 154.645L145.995 152.193C146.195 151.785 146.396 151.377 146.598 150.97C146.901 150.36 147.216 149.756 147.521 149.147C147.651 148.89 147.813 148.635 147.939 148.375L147.998 148.245C148.001 148.238 148.292 147.324 148.067 147.411L148.048 147.421C147.933 147.486 147.842 147.342 147.916 147.25C148.233 146.857 148.675 147.205 148.856 147.568C149.355 148.568 148.441 150.137 148.089 151.095L148.07 151.148C146.979 154.238 145.743 157.27 144.477 160.291C142.05 166.084 139.443 171.787 136.841 177.501L136.81 177.599V177.599C137.365 177.173 137.957 176.787 138.465 176.411C139.744 175.463 141.061 174.562 142.376 173.663C144.788 172.015 147.264 170.475 149.782 168.997L150.286 168.702C151.544 167.969 152.79 167.374 154.283 167.594C155.67 167.799 156.959 168.544 158.212 169.15L158.341 169.212L162.213 171.053C161.799 169.402 161.351 167.759 160.883 166.122C159.971 162.929 158.968 159.763 157.88 156.625C156.864 153.694 155.765 150.794 154.603 147.917L154.254 147.054C153.78 145.87 153.309 144.578 151.955 144.214C150.601 143.849 149.049 144.39 147.813 143.618C147.7 143.548 147.714 143.362 147.85 143.328L148.614 143.136C150.046 142.779 151.726 142.42 153.081 142.767C154.556 143.145 155.775 144.383 156.491 145.67C157.286 147.102 157.847 148.704 158.45 150.23L158.546 150.471C159.239 152.198 159.905 153.936 160.543 155.685C161.818 159.181 162.978 162.719 164.029 166.288C164.535 168.009 165.015 169.737 165.477 171.47C165.609 171.968 165.828 172.573 166.008 173.203C166.214 173.404 166.408 173.628 166.591 173.883C166.894 174.307 166.677 174.804 166.3 175.058C166.285 175.492 166.189 175.9 165.959 176.249C165.06 177.614 162.683 177.263 162.78 175.428C162.794 175.147 162.904 174.879 163.069 174.652L163.065 174.615V174.615L163.046 174.548V174.548C162.633 174.35 162.219 174.13 161.782 173.914L157.719 171.905V171.905C156.542 171.324 155.238 170.425 153.929 170.203C152.709 169.996 151.422 170.906 150.374 171.454L150.306 171.49C147.772 172.789 145.256 174.131 142.751 175.485C141.528 176.146 140.321 176.834 139.102 177.503C138.084 178.062 136.984 178.865 135.839 179.18C135.35 179.561 134.769 179.51 134.302 179.222C134.516 180.544 134.502 181.901 134.568 183.252C134.656 185.059 134.67 186.871 134.699 188.681L134.71 189.359C134.787 193.359 134.828 197.36 134.844 201.361C134.898 215.608 134.74 229.859 134.704 244.105C134.685 251.263 134.543 258.427 134.357 265.583C134.279 268.615 134.114 271.643 133.936 274.67L133.838 276.322C133.631 279.806 133.508 283.328 132.863 286.766C132.779 287.214 132.021 287.225 131.947 286.766C131.353 283.082 131.32 279.319 131.206 275.592L131.182 274.848C131.045 270.847 130.98 266.848 130.994 262.846C131.044 248.593 131.415 234.35 131.718 220.101C131.87 212.942 131.973 205.78 132.209 198.624C132.327 195.043 132.461 191.464 132.62 187.885C132.691 186.287 132.76 184.69 132.866 183.094L132.914 182.41C132.946 181.964 132.973 181.524 133.005 181.087C131.564 181.614 130.246 180.638 128.949 179.971C127.454 179.202 125.961 178.432 124.465 177.664L122.969 176.898V176.898L119.974 175.369C118.626 174.681 117.587 173.996 116.149 174.803C110.968 177.711 106.207 181.58 101.893 185.64C101.066 186.419 99.3173 186.209 99.1078 184.904C98.2126 179.33 98.757 173.675 99.2141 168.083L99.3825 166.007C99.5867 163.528 99.8091 161.049 100.105 158.579C100.238 157.475 100.37 156.371 100.516 155.268L100.628 154.442C100.811 153.135 100.93 151.836 101.319 150.583C101.196 150.543 101.078 150.478 100.973 150.378C99.8026 149.267 100.367 147.34 100.901 146.02C101.428 144.716 102.232 143.578 103.238 142.598C103.458 142.385 103.767 142.247 104.078 142.24C106.519 140.622 109.197 139.815 111.983 140.698C112.062 140.323 112.142 139.95 112.226 139.577L112.311 139.204C112.528 138.279 112.608 136.751 113.406 136.132ZM138.421 282.221C139.179 282.013 140.008 282.233 140.563 282.788C141.118 283.343 141.338 284.172 141.129 284.93C141.024 285.303 140.836 285.627 140.563 285.902C140.308 286.155 140.011 286.336 139.671 286.444L139.592 286.468L139.468 286.52C139.088 286.622 138.708 286.622 138.329 286.52C137.966 286.418 137.651 286.234 137.383 285.969C137.118 285.701 136.934 285.386 136.832 285.023C136.73 284.643 136.73 284.263 136.832 283.883L136.884 283.759V283.759C136.989 283.386 137.177 283.062 137.45 282.788C137.725 282.515 138.049 282.326 138.421 282.221ZM183.394 206.719C183.518 206.576 183.72 206.759 183.643 206.911C182.463 209.225 181.148 211.522 179.856 213.777C179.959 214.402 180.062 215.022 180.18 215.626C180.683 218.201 181.3 220.73 181.702 223.33C183.147 232.676 183.897 242.123 184.541 251.553C185.187 261.016 185.269 270.484 185.366 279.966C185.375 280.788 184.743 281.743 183.896 281.898C183.509 281.969 183.218 281.955 182.832 281.898C181.95 281.768 181.399 280.758 181.361 279.966C181.109 274.667 180.769 269.374 180.375 264.083C179.677 254.702 179.25 245.297 178.687 235.907L178.488 232.625C178.275 229.069 178.08 225.51 178.016 221.949C177.974 219.589 178.1 217.23 178.023 214.873C177.951 212.698 177.731 210.332 178.21 208.194C178.228 208.114 178.354 208.094 178.391 208.17C178.89 209.22 179.205 210.362 179.449 211.527C180.734 209.901 182.042 208.272 183.394 206.719ZM99.2255 149.243C99.4059 149.23 99.3988 149.501 99.2255 149.521C96.7038 149.814 94.2678 150.84 91.8868 151.713L91.6828 151.787C89.2774 152.66 86.9321 153.675 84.6751 154.886C80.2623 157.252 76.2102 160.303 72.6276 163.796C58.3237 177.739 51.805 197.846 47.0285 216.741C44.3745 227.239 42.4873 237.914 41.264 248.672C40.6592 253.992 40.2316 259.332 39.9823 264.681C39.8547 267.422 39.7742 270.166 39.7406 272.91C39.7233 274.315 39.7182 275.721 39.7199 277.126C39.7207 277.771 39.8357 278.582 39.6635 279.207C39.5038 279.786 39.0533 280.296 38.7202 280.779C38.3253 281.352 37.6157 281.322 37.2153 280.779L37.0677 280.582C36.6407 280.015 36.2229 279.473 36.1619 278.733C36.0966 277.939 36.1427 277.121 36.1397 276.323C36.133 274.717 36.1528 273.11 36.185 271.504C36.2469 268.426 36.3681 265.348 36.5483 262.274C36.9142 256.036 37.5166 249.811 38.379 243.622C39.9119 232.621 42.2097 221.726 45.2194 211.035C48.0588 200.949 51.4226 190.894 56.2146 181.552C60.6639 172.878 66.5008 164.809 74.2028 158.747C77.7844 155.928 81.6833 153.578 85.8869 151.809C88.007 150.917 90.2333 150.188 92.4975 149.773C94.7365 149.362 96.9658 149.42 99.2255 149.243ZM138.856 264.395C139.255 264.392 139.701 264.48 140.045 264.701L140.503 265.055V265.055C140.627 265.215 140.751 265.375 140.874 265.536C141.161 265.91 141.199 266.514 141.139 266.96C141.125 267.257 141.037 267.533 140.874 267.79L140.525 268.242V268.242C140.189 268.515 139.91 268.711 139.503 268.842C139.291 268.911 139.087 268.926 138.883 268.915L138.815 268.911L138.856 268.916L138.784 268.908V268.908C138.718 268.902 138.651 268.895 138.584 268.886C138.539 268.88 138.493 268.877 138.448 268.871C138.404 268.867 138.362 268.865 138.318 268.87C137.801 268.918 137.282 268.625 136.916 268.289C136.586 267.985 136.289 267.342 136.335 266.886L136.355 266.696C136.39 266.374 136.418 266.248 136.554 265.925C136.687 265.611 136.871 265.334 137.123 265.1C137.605 264.652 138.194 264.399 138.856 264.395ZM137.257 240.875C137.943 240.128 139.12 240.073 139.969 240.525C140.176 240.635 140.367 240.812 140.549 240.96C141.009 241.332 141.19 242.003 141.215 242.568C141.24 243.127 140.946 243.791 140.549 244.177L140.453 244.27V244.27C140.216 244.5 139.877 244.701 139.546 244.762C139.011 244.86 138.563 244.857 138.065 244.647C137.638 244.466 137.269 244.176 137.019 243.783L136.978 243.716C136.961 243.689 136.944 243.661 136.929 243.632L136.907 243.588C136.431 242.672 136.559 241.635 137.257 240.875ZM137.612 217.231C137.921 217.134 138.23 217.121 138.539 217.19C138.749 217.19 138.945 217.243 139.126 217.348C139.323 217.404 139.494 217.503 139.639 217.648C139.813 217.751 139.953 217.89 140.056 218.065C140.261 218.289 140.4 218.553 140.472 218.856L140.555 219.474L140.472 220.092L140.238 220.648V220.648C140.173 220.732 140.108 220.816 140.043 220.9C139.939 221.075 139.8 221.215 139.625 221.318C139.511 221.432 139.38 221.516 139.234 221.575C138.717 221.946 138.027 222.067 137.414 221.898C137.05 221.796 136.733 221.612 136.465 221.345C136.199 221.077 136.014 220.761 135.913 220.396L135.871 220.106C135.816 219.715 135.808 219.499 135.918 219.003C135.967 218.785 136.107 218.478 136.181 218.348C136.495 217.795 137.009 217.416 137.612 217.231ZM164.45 200.221C165.338 200.215 166.225 200.217 167.112 200.227L167.778 200.236C168.892 200.253 169.847 200.138 170.723 200.912C171.359 201.473 171.079 202.415 170.475 202.838C169.561 203.478 168.413 203.156 167.362 203.085C166.253 203.011 165.144 202.949 164.034 202.9C161.885 202.803 159.735 202.742 157.583 202.733C155.437 202.723 153.287 202.744 151.14 202.778C148.956 202.814 146.682 203.017 144.51 202.791C144.212 202.76 144.145 202.368 144.439 202.266C146.486 201.557 148.788 201.328 150.933 201.057C153.145 200.778 155.357 200.58 157.583 200.451C159.87 200.32 162.16 200.238 164.45 200.221ZM137.608 193.265L137.681 193.267C138.072 193.268 138.438 193.359 138.778 193.542L138.851 193.583L139.32 193.945C139.607 194.235 139.806 194.576 139.916 194.968L139.999 195.585V195.585C140.011 195.904 139.944 196.201 139.799 196.478C139.706 196.765 139.546 197.014 139.32 197.224C139.11 197.45 138.861 197.61 138.574 197.703C138.319 197.837 138.046 197.904 137.755 197.904L137.681 197.903C137.263 197.901 136.873 197.796 136.512 197.586L136.043 197.224V197.224C135.756 196.935 135.557 196.594 135.447 196.201L135.364 195.585V195.585C135.352 195.265 135.418 194.967 135.564 194.691C135.657 194.404 135.817 194.155 136.043 193.945C136.253 193.719 136.501 193.559 136.789 193.466C137.044 193.332 137.317 193.265 137.608 193.265V193.265ZM144.478 138.806C144.977 138.083 145.882 138.726 145.753 139.308C145.787 140.941 145.871 142.527 146.242 144.127C146.412 144.859 146.635 145.593 146.979 146.264L147.123 146.546C147.568 147.426 147.914 148.255 147.314 149.22C147.032 149.675 146.521 150.016 145.968 149.992C143.514 149.886 143.177 146.47 143.028 144.562C142.874 142.598 143.352 140.439 144.478 138.806Z" fill="black"/>
<path fill-rule="evenodd" clip-rule="evenodd" d="M92.9519 59.6854C94.0476 58.5092 95.4489 57.633 96.9808 57.353C95.5805 58.0527 94.2117 58.7821 92.9519 59.6854ZM90.8059 69.8268C90.6121 68.9305 90.482 68.0255 90.441 67.1207C90.6859 67.4931 91.0769 67.7419 91.5161 67.8704C91.2324 68.5059 90.9911 69.1607 90.8059 69.8268ZM164.12 83.8802C162.855 78.614 156.955 68.4846 155.561 66.535C154.046 61.7075 162.305 57.8361 157.814 54.0612C155.78 52.3579 153.092 51.7551 150.571 51.1511C133.114 46.9571 114.358 49.0722 98.1673 56.7846C95.7045 56.2662 93.1387 57.2794 91.3478 59.059C82.934 67.5189 94.4004 82.783 96.9077 92.3204C101.21 102.955 92.3481 104.744 93.2984 113.742C94.0368 118.39 98.7432 119.619 102.715 120.321C103.351 120.47 104.202 120.493 104.408 121.166C105.051 125.095 107.257 128.839 110.219 131.381C109.96 132.148 110.158 133.08 111.071 133.754C119.346 139.906 129.78 142.985 140.101 142.431C152.4 141.772 158.761 134.719 160.296 132.903C168.782 121.438 167.768 106.311 166.037 92.6476C164.831 83.1293 166.36 93.2093 164.12 83.8802Z" fill="white"/>
<path fill-rule="evenodd" clip-rule="evenodd" d="M126.195 40.0593C126.581 38.8504 127.676 38.1234 128.929 38.2734C130.038 38.4045 131.225 39.5056 131.09 40.7209C131.064 40.9555 131.031 41.1753 130.99 41.3824L130.996 41.3842V41.3842L131.001 41.3845L130.974 41.4648C130.891 41.8516 130.777 42.1982 130.608 42.5258C130.393 43.1535 130.186 43.7833 129.981 44.4153C130.276 44.4026 130.579 44.4195 130.885 44.4765C131.202 43.665 131.521 42.8555 131.838 42.0418C132.178 41.1731 132.417 40.0572 133.088 39.3851C133.948 38.527 135.44 38.3495 136.488 38.9624C137.595 39.6091 137.99 40.7589 137.749 41.9911C137.627 42.6196 137.207 43.057 136.687 43.3318L136.631 43.3606L136.232 44.3075C136.355 44.2546 136.481 44.206 136.619 44.1659C136.834 44.1025 137.045 44.0623 137.252 44.0454C137.823 43.0119 138.45 42.008 139.099 41.0231C139.845 39.8902 141.302 39.4084 142.526 40.1248C143.62 40.7652 144.207 42.4476 143.424 43.5529C142.828 44.392 142.264 45.248 141.708 46.1124C141.803 46.1293 141.898 46.1504 141.989 46.1779C142.031 46.1209 142.076 46.0638 142.122 46.0067C142.729 45.2543 143.434 44.69 144.159 44.0644C144.837 43.4769 145.15 42.5533 146.041 42.1073C147.163 41.5472 148.515 41.8156 149.183 42.9316C150.615 45.3219 148.211 47.0677 146.673 48.5154C148.01 47.6806 149.402 46.9176 150.831 46.2582C151.633 45.8884 152.449 45.5312 153.277 45.2226C154.505 44.7661 155.498 44.9121 156.505 45.7616C156.955 46.142 157.179 46.9728 156.972 47.5263C156.571 48.5873 155.937 49.2319 154.826 49.5384C154.044 49.754 153.243 49.8998 152.462 50.1259C151.152 50.5021 149.88 50.9608 148.646 51.5335C148.735 51.5885 148.819 51.6477 148.898 51.7153C149.819 51.4173 150.757 51.1594 151.699 50.9396C153.262 50.5731 154.852 50.3254 156.45 50.1705L156.98 50.1211C158.896 49.9372 161.199 49.5979 162.374 51.4321C162.761 52.0365 162.803 53.0341 162.374 53.6322C161.555 54.782 160.739 55.0102 159.383 55.0314C160.718 55.173 162.051 55.3484 163.378 55.5534C164.292 55.6929 165.207 55.851 166.117 56.0265L166.572 56.1156C167.681 56.3375 168.919 56.4664 169.872 57.109C171.951 58.5123 170.975 61.2451 168.672 61.5367C167.559 61.6762 166.323 61.2049 165.231 60.9851C164.17 60.7717 163.105 60.5836 162.036 60.4187C161.483 60.332 160.929 60.256 160.374 60.1862C161.504 60.349 162.626 60.5793 163.718 60.9048L164.021 60.9964C166.133 61.6402 168.983 62.6655 169.642 64.9226C170.041 66.2942 168.949 67.4905 167.626 67.5708C166.397 67.6448 165.372 66.9114 164.329 66.3703C163.568 65.9772 162.795 65.6834 161.975 65.4319C161.128 65.172 160.264 64.9564 159.393 64.781C160.129 65.1864 160.845 65.632 161.533 66.1304L161.849 66.364C163.677 67.7264 166.464 69.8357 165.82 72.3896C165.617 73.1948 164.719 73.9641 163.857 73.8817C161.614 73.6725 160.376 71.2821 158.683 70.0013C158.242 69.6674 157.758 69.3377 157.251 69.0164C159.816 72.0768 161.857 75.6148 163.409 79.269C166.822 87.3083 167.869 94.7534 167.894 103.397L167.895 103.665C167.899 108.433 167.791 113.288 167.326 118.035C166.895 122.42 166.105 126.749 164.117 130.72C160.786 137.38 154.293 142.566 147.133 144.54C139.167 146.738 130.262 145.02 123.736 139.948C122.071 138.654 124.279 135.846 125.979 137.04C132.771 141.805 141.556 143.315 149.352 140.089C155.536 137.532 160.515 132.031 162.626 125.696C163.969 121.667 164.36 117.37 164.839 113.17L164.871 112.891C165.379 108.499 165.672 104.077 165.668 99.6559C165.662 91.4449 164.483 84.6859 160.872 77.238C159.174 73.7295 156.97 70.4855 154.338 67.6384C153.539 67.8012 152.69 67.5729 151.883 67.4862C151.471 67.4419 151.059 67.3996 150.647 67.3616C151.068 67.6338 151.48 67.9168 151.886 68.2065L152.418 68.5903C154.083 69.7833 156.196 71.1421 155.768 73.4484C155.652 74.0719 155.031 74.6447 154.429 74.7863C152.246 75.3062 150.746 73.1843 149.271 71.9246C147.989 70.8298 146.648 69.8491 145.281 68.8664C144.97 68.6445 144.657 68.4225 144.343 68.2027C144.638 68.5477 144.926 68.898 145.207 69.2516L145.622 69.7776C146.877 71.3491 148.687 73.3917 147.569 75.4288C147.252 76.0037 146.576 76.3862 145.921 76.3735C143.669 76.327 142.773 73.7697 141.717 72.155C140.808 70.7706 139.821 69.4666 138.801 68.1626C138.52 67.8054 138.237 67.4482 137.95 67.091C133.219 67.3362 128.506 67.9618 123.875 68.9615C120.693 69.6484 117.564 70.5384 114.459 71.5125L114.201 71.5946C112.52 72.136 110.788 72.8288 109.576 74.017C109.403 74.8356 109.536 75.6989 109.702 76.5164L109.831 77.1422C110.362 79.7588 110.724 82.3271 110.453 85.0135C110.172 87.7843 109.338 90.2761 108.319 92.8504C107.838 94.0635 107.339 93.8437 107.168 95.1457C107.037 96.1373 107.118 97.161 107.207 98.161L107.282 99.0087C107.47 101.229 107.564 103.651 106.109 105.483C105.883 105.764 105.4 105.652 105.239 105.371C105.176 105.259 105.108 105.151 105.034 105.047C104.333 104.031 103.257 103.452 102.028 103.228C101.871 103.2 101.933 102.991 102.064 102.974C103.103 102.851 104.088 103.111 104.924 103.648C104.528 102.276 101.456 102.943 100.446 103.21L100.412 103.219C99.1525 103.557 97.9609 104.107 96.9109 104.885C94.7982 106.449 93.5771 108.888 93.6384 111.515C93.6996 114.097 95.0327 116.484 97.3229 117.72C98.4278 118.316 99.6849 118.603 100.936 118.591C102.241 118.578 103.403 118.005 104.711 118.086C105.467 118.132 106.046 118.944 105.609 119.652C105.317 120.125 104.937 120.497 104.498 120.782C105.569 123.253 106.936 125.61 108.512 127.784C109.384 128.991 110.373 130.105 111.461 131.122C112.31 131.916 114.15 132.836 114.047 134.161C114.011 134.639 113.764 134.93 113.329 135.108C111.975 135.661 110.33 133.756 109.425 132.837L109.352 132.764C108.224 131.64 107.195 130.397 106.3 129.078C104.711 126.736 103.724 124.096 103.317 121.324C101.147 121.977 98.2736 121.364 96.5032 120.563C90.9384 118.048 89.1194 110.551 92.5018 105.559C93.1567 104.593 93.9764 103.767 94.9102 103.099C94.7053 102.987 94.513 102.843 94.3419 102.661C93.3953 101.655 92.726 100.343 92.0617 99.1327L91.982 98.988C91.3924 97.9228 90.8361 96.8409 90.3147 95.7423L90.1208 95.3295C88.9567 92.825 87.9363 91.7302 87.106 89.0968C86.3074 86.5564 85.6778 83.9673 85.2701 81.3339L85.1617 80.6369C84.9259 79.1088 84.7029 77.4748 84.875 75.9234C83.6898 76.3101 82.4982 76.549 81.3257 75.9677C80.5525 75.5852 80.1257 74.4693 80.3898 73.6682C80.582 73.0786 80.9032 72.6157 81.3109 72.2522C81.068 72.1296 80.8398 71.9732 80.6391 71.7999L80.4637 71.6479V71.6479C79.7539 71.0306 79.7032 69.8576 80.1341 69.0841C80.1764 69.0101 80.2187 68.934 80.2588 68.86C80.6687 68.1266 81.5158 67.6469 82.3525 67.6596C82.4877 67.6617 82.6229 67.6617 82.7602 67.6596C82.3694 67.5729 81.987 67.4398 81.6236 67.2157C79.9841 66.2076 80.1912 63.4748 82.175 62.9929C83.0074 62.7922 83.9264 62.8746 84.8433 63.0902C84.8095 63.0711 84.7757 63.0521 84.7419 63.031C84.0489 62.6062 83.468 61.7756 83.5334 60.9238C83.6053 59.9812 83.9095 59.3091 84.7419 58.8145C85.4644 58.3876 86.487 58.3475 87.2053 58.8145C87.8285 59.2225 88.4391 59.6726 89.0264 60.1566C88.437 59.4317 87.9257 58.6434 87.7187 57.8064C87.463 56.7645 87.8898 55.6295 88.8278 55.08C89.5757 54.6425 90.3658 54.6911 91.0715 55.0293C91.0334 54.4819 91.1665 53.9239 91.5299 53.4293C92.2736 52.4151 93.6257 51.8315 94.8025 52.5713C94.9567 52.6685 95.1637 52.8355 95.3644 53.0405C94.9736 51.7956 95.3264 50.4895 96.6595 49.9273C97.4729 49.5828 98.5736 49.7561 99.2792 50.35C98.8313 47.9258 102.408 46.1441 103.798 48.6486C104.114 49.216 104.426 49.8134 104.705 50.4245L104.808 50.6543L104.819 50.6501L104.748 50.4821V50.4821L104.675 50.314C104.288 49.4158 103.796 48.4816 103.661 47.5073C103.462 46.0659 104.105 44.6985 105.672 44.4871C106.481 44.3772 107.381 44.745 107.924 45.3877C107.631 43.1514 110.128 41.5261 111.926 43.1958C112.777 43.9862 113.231 45.1423 113.772 46.1568C114.079 46.7295 114.391 47.3002 114.698 47.8751C114.776 47.7821 114.86 47.6891 114.949 47.5982C114.495 46.2371 114.142 44.8422 113.844 43.4388C113.561 42.1158 114.222 40.742 115.587 40.3681C116.827 40.0255 118.38 40.7908 118.657 42.1117C118.851 43.0415 119.081 43.9611 119.335 44.876C119.508 44.8337 119.679 44.8041 119.848 44.783C119.862 44.6111 119.878 44.4383 119.896 44.2664L119.963 43.655C120.11 42.2581 120.259 40.6635 120.989 39.476C122.233 37.447 125.424 38.2882 125.457 40.687C125.476 41.9277 124.971 43.1577 124.796 44.3857C124.72 44.9204 124.676 45.4614 124.65 46.0025C124.99 44.206 125.457 42.4328 125.998 40.687C126.062 40.4778 126.129 40.2686 126.195 40.0593ZM98.6707 109.336C101.47 108.903 104.028 110.464 105.687 112.652C105.989 113.051 105.79 113.616 105.518 113.952C105.321 114.199 105.057 114.229 104.759 114.267C104.417 114.311 103.984 114.034 103.834 113.736C102.767 111.606 100.864 110.259 98.6707 109.431C98.6306 109.416 98.6179 109.344 98.6707 109.336ZM102.551 71.165L102.636 71.0739C103.202 70.4862 102.307 69.5883 101.74 70.1774C101.142 70.7975 100.745 71.5507 100.363 72.3141C99.9988 73.042 101.092 73.6849 101.457 72.9543L101.624 72.6222C101.885 72.1059 102.164 71.5957 102.551 71.165V71.165ZM94.6899 69.9586C95.4927 69.8234 95.1523 68.6011 94.3529 68.736C93.3172 68.9105 92.2856 69.109 91.2498 69.2838C90.4472 69.419 90.7875 70.6413 91.587 70.5067C92.6226 70.3319 93.6542 70.1334 94.6899 69.9586ZM142.514 61.6143C141.739 61.3554 141.406 62.5798 142.177 62.8372C143.243 63.1929 144.3 63.5575 145.311 64.0514C146.042 64.4081 146.685 63.3148 145.951 62.9564C144.841 62.4143 143.684 62.0049 142.514 61.6143ZM94.5073 59.9708C93.7499 59.6678 93.421 60.8938 94.1703 61.1937L96.9084 62.2891V62.2891C97.6658 62.5922 97.9947 61.3664 97.2453 61.0665L94.5073 59.9708V59.9708ZM152.075 56.9934L151.975 56.9304C151.288 56.4853 150.652 57.5826 151.335 58.0254C151.736 58.2852 152.223 58.4614 152.59 58.7708L152.667 58.8393C153.26 59.3994 154.158 58.5045 153.563 57.9425C153.128 57.5318 152.578 57.3031 152.075 56.9934V56.9934Z" fill="black"/>
<path fill-rule="evenodd" clip-rule="evenodd" d="M149.372 128.003C148.022 128.014 146.504 127.507 145.489 127.11L145.224 127.005C144.346 126.653 143.443 126.249 142.77 125.571C142.555 125.35 142.326 125.101 142.209 124.839C142.141 124.685 142.113 124.526 142.179 124.368C142.422 124.344 142.653 124.313 142.871 124.273C142.975 124.254 143.075 124.234 143.151 124.234C143.433 124.232 143.711 124.268 143.99 124.303C144.03 124.308 144.07 124.313 144.111 124.318C144.327 124.345 144.543 124.374 144.758 124.403C145.384 124.487 146.007 124.57 146.642 124.601C147.101 124.623 147.582 124.597 148.067 124.57C149.325 124.502 150.626 124.408 151.595 125.29C151.849 125.521 151.955 125.812 151.955 126.108C151.955 126.468 151.804 126.835 151.573 127.122C151.049 127.773 150.244 127.996 149.372 128.003ZM156.736 116.649C156.148 117.531 155.169 118.098 153.828 118.036C151.163 117.914 147.982 116.908 145.749 115.453C145.168 115.075 144.791 114.469 144.723 113.82L144.603 112.666L143.953 113.627C143.885 113.727 143.817 113.827 143.749 113.927C143.56 114.202 143.372 114.477 143.195 114.759C142.514 115.842 141.89 116.935 141.323 118.082C140.921 118.894 140.628 119.802 140.334 120.718C139.837 122.265 139.357 123.787 138.295 124.874C138.135 125.038 137.888 125.097 137.662 125.068C137.463 125.043 137.268 124.945 137.173 124.75C135.904 122.17 137.61 119.061 138.994 116.9L139.14 116.674C140.424 114.721 142.519 112.136 144.919 111.784L145.194 112.223L145.593 111.956C146.247 111.52 147.109 111.54 147.864 111.881L148.619 112.222C150.025 112.853 151.411 113.436 152.932 113.755C153.043 113.778 153.154 113.799 153.264 113.82C153.369 113.839 153.474 113.856 153.579 113.873C153.556 113.769 153.532 113.666 153.508 113.563C153.482 113.454 153.456 113.345 153.428 113.236C153.399 113.124 153.369 113.012 153.338 112.901C153.216 112.457 153.079 112.017 152.916 111.586C152.301 109.968 151.321 108.454 150.367 107.01L150.255 106.84C150.118 106.633 149.968 106.417 149.813 106.194C149.07 105.122 148.245 103.959 148.186 102.792C149.174 102.854 150 103.468 150.727 104.002C151.725 104.735 152.65 105.573 153.489 106.483C155.117 108.249 156.578 110.507 157.219 112.841C157.585 114.178 157.424 115.616 156.736 116.649V116.649ZM130.694 103.334L130.693 103.286C130.696 101.938 131.481 98.8613 133.42 98.8613C134.632 98.8613 135.368 100.956 135.495 103.114L135.499 103.202C135.556 104.545 135.188 107.478 133.42 107.478C131.635 107.478 130.712 104.7 130.694 103.334V103.334ZM159.248 102.911L159.248 102.863C159.245 101.516 158.46 98.4386 156.521 98.4386C155.34 98.4386 154.611 100.429 154.457 102.53L154.446 102.692C154.37 103.989 154.714 107.056 156.521 107.056C158.307 107.056 159.229 104.277 159.248 102.911V102.911ZM137.225 94.2128C136.968 94.243 136.713 94.2824 136.457 94.3231C135.711 94.4419 134.97 94.5846 134.233 94.7509C132.834 95.0669 131.446 95.4658 130.084 95.9167C128.81 96.3388 127.556 96.8157 126.303 97.2927C126.236 97.3181 126.169 97.3436 126.102 97.369C125.659 97.5374 125.218 97.7261 124.775 97.9154C124.102 98.2035 123.425 98.4935 122.735 98.7121C124.554 96.1958 127.357 94.3313 130.054 92.9971C131.593 92.2358 133.226 91.622 134.868 91.119L135.783 90.844C137.13 90.4466 138.602 90.0794 139.867 90.8719C140.368 91.1854 140.687 91.6727 140.787 92.1995C140.886 92.7161 140.774 93.27 140.417 93.7323C140.106 94.1349 139.719 94.3643 139.307 94.4429C138.852 94.5296 138.37 94.4344 137.932 94.2C137.58 94.1738 137.476 94.1832 137.372 94.1948L137.225 94.2128ZM157.486 94.4688C156.584 94.2728 155.692 94.1941 154.767 94.2223C154.349 94.2349 153.944 94.2995 153.541 94.3646C152.914 94.4656 152.29 94.5699 151.614 94.4473C151.262 94.3833 150.962 94.1772 150.731 93.9082C150.46 93.5936 150.28 93.1916 150.223 92.8094C150.164 92.4146 150.223 92.0692 150.369 91.7643C150.541 91.4041 150.832 91.1005 151.183 90.8346C152.246 90.0296 154.07 90.2232 155.324 90.3859C156.564 90.5472 157.796 90.9317 158.892 91.5424C159.973 92.1452 160.913 92.9573 161.646 93.9499C162.264 94.7865 162.556 95.7494 162.856 96.7298C161.442 95.5428 159.277 94.858 157.486 94.4688Z" fill="black"/>
<path fill-rule="evenodd" clip-rule="evenodd" d="M154.774 123.403C155.352 123.997 155.908 124.633 156.432 125.29C156.578 126.335 156.612 127.391 156.478 128.482C156.284 130.063 155.853 131.608 155.27 133.091C154.926 133.043 154.585 132.946 154.254 132.793C153.202 132.309 152.614 131.335 151.902 130.475C150.485 128.765 147.899 127.755 146.09 129.528C145.304 130.299 144.802 131.367 144.1 132.214C143.329 133.146 142.463 134.032 141.559 134.835C141.447 134.936 141.331 135.046 141.21 135.154C140.707 134.579 140.213 134 139.729 133.413C138.29 131.663 137.048 129.725 136.395 127.539C136.188 126.846 136.059 126.123 136.009 125.394C136.649 124.599 137.38 123.877 138.21 123.278C140.714 121.471 143.597 121.178 146.597 121.021C149.701 120.861 152.496 121.072 154.774 123.403M162.345 131.787C162.225 130.578 162.039 129.321 161.764 128.065C160.761 123.407 158.587 118.764 154.228 116.636C152.166 115.628 149.824 115.272 147.601 115.759C143.701 114.298 139.37 115.788 136.3 118.46C132.679 121.611 131.008 126.556 130.446 131.189C130.055 134.412 129.908 138.719 130.822 141.057C131.736 143.396 137.546 149.649 145.839 149.693C157.651 149.755 160.522 141.786 160.871 141.089C162.326 138.189 162.664 134.987 162.345 131.787" fill="black"/>
<path fill-rule="evenodd" clip-rule="evenodd" d="M166.747 108.863C164.807 111.287 157.215 113.977 153.174 111.057C149.133 108.136 147.537 106.1 146.996 102.451C146.939 102.061 146.235 101.803 145.938 102.079C144.273 103.626 143.195 105.596 142.128 107.572C140.923 109.8 139.737 112.042 137.548 113.55C133.672 115.629 126.659 115.925 124.587 115.008C120.619 113.252 117.479 109.495 116.765 104.325C116.765 104.325 116.039 102.032 115.403 101.55C114.8 101.092 111.472 100.685 111.107 100.617C104.537 99.3977 96.2272 98.6203 90.3753 102.911C89.5833 103.39 86.8722 105.189 86.8321 104.747C86.8037 103.014 88.7667 99.0916 93.2312 97.2253C98.752 94.9174 106.959 94.7825 111.713 95.2918C111.952 95.3174 112.767 95.117 112.825 95.0921C120.028 91.9724 128.315 92.8009 136.022 94.1121C137.127 94.3265 147.013 96.7755 150.946 95.2918C157.448 92.6364 164.38 90.7126 171.402 91.4694C171.461 91.4758 172.347 96.8581 171.656 97.2253C171.107 97.5175 170.172 98.2663 169.84 98.676C169.543 99.0424 169.356 99.4978 169.372 100.129C169.506 103.779 168.465 106.715 166.747 108.863ZM140.013 105.606C140.838 104.413 141.098 101.733 140.753 99.7776C140.578 98.7876 140.238 97.9996 139.813 97.6073C139.529 97.3466 139.206 97.2238 138.854 97.2421C138.661 97.2521 138.452 97.307 138.23 97.4265C135.232 95.8038 131.599 95.2196 128.156 95.3876C125.415 95.3871 123.459 96.0344 122.133 97.0419C120.537 98.2543 119.818 99.9971 119.776 101.887C119.727 104.13 120.648 106.584 122.159 108.525C123.605 110.383 125.583 111.761 127.729 112.079C130.165 112.562 132.647 112.094 134.805 110.95C137.019 109.775 138.889 107.89 140.013 105.606ZM164.051 106.871C165.44 105.229 166.364 103.092 166.505 100.975C166.633 99.048 166.117 97.1395 164.691 95.5622C163.398 94.4521 161.114 94.4338 158.711 95.0519C155.604 95.8512 152.389 97.6375 151.317 98.7912C151.065 98.9236 150.831 99.1541 150.627 99.6487L150.625 99.825C150.3 101.323 150.493 102.843 151.055 104.245C151.665 105.768 152.711 107.15 153.986 108.205C155.681 109.602 157.45 110.029 159.106 109.804C160.982 109.548 162.726 108.438 164.051 106.871Z" fill="white"/>
<path fill-rule="evenodd" clip-rule="evenodd" d="M150.722 94.6984C157.307 92.0092 164.345 90.0709 171.47 90.839C172.059 90.6147 172.79 90.8037 173.052 91.6372C175.589 99.3716 169.93 97.2207 170.006 100.112C170.599 116.323 148.819 119.092 146.37 102.543L146.324 102.57V102.57C142.801 105.859 142.059 111.212 137.908 114.072C129.535 120.198 117.665 115.345 116.141 104.439L116.108 104.291C115.596 102.066 114.984 101.514 112.46 101.525L112.061 101.446C105.504 100.153 96.7716 98.9916 90.7318 103.437C89.4181 104.201 89.3564 106.165 88.2464 107.019C87.0303 107.255 86.2812 105.792 86.1988 104.78C86.0061 94.6849 104.063 93.9587 112.15 94.825C112.304 94.6651 112.634 94.6849 112.745 94.8842C120.059 91.7165 128.299 92.1548 136.13 93.487C140.98 94.4264 145.772 96.5664 150.722 94.6984ZM170.814 92.7027C166.863 92.5051 163.209 92.7213 159.331 93.6713C157.287 94.1646 155.719 94.7883 153.762 95.5384C141.56 100.947 140.152 91.3333 112.8 95.1017C113.154 96.6179 113.219 98.1191 113.238 99.5437C118.823 99.3185 117.508 104.653 119.6 108.401L119.665 108.514C122.714 113.981 129.91 116.531 135.714 112.905C140.557 110.081 141.03 102.919 145.851 100.077C150.031 99.9127 148.361 105.556 150.636 107.875C153.837 112.149 160.642 112.746 164.657 108.726C166.54 106.792 167.541 104.336 167.597 101.698C167.702 100.012 167.413 98.299 168.687 97.1133C169.58 96.2058 171.166 96.5087 171.348 95.1368C171.464 94.3256 171.127 93.4458 170.814 92.7027ZM127.876 94.9122C131.801 94.7188 135.953 95.4006 139.323 97.3262C141.818 95.3404 142.429 103.233 140.773 105.515C138.388 110.398 132.834 113.608 127.487 112.542C119.145 111.333 113.332 94.8976 127.876 94.9122ZM139.084 97.8554L138.87 97.8242C135.255 97.2724 125.411 94.7158 121.614 98.7509C117.93 105.444 127.278 116.687 137.005 107.732C139.713 104.974 140.762 101.631 139.084 97.8554ZM150.541 98.7109C152.413 96.4932 161.955 92.0011 165.281 94.8838C171.351 101.689 161.724 115.455 153.661 108.749C150.976 106.507 149.209 102.935 149.982 99.4762L149.983 99.3312C149.985 99.2786 149.995 99.2906 150.051 99.2251C150.15 98.9637 150.329 98.7967 150.541 98.7109ZM165.196 102.836C167.243 91.7279 158.687 95.9507 151.66 98.9155C152.038 99.2602 152.036 99.7309 151.928 100.118C151.186 108.359 161.2 113.03 165.196 102.836ZM112.008 95.3648C109.077 96.3578 89.691 94.582 87.9001 103.673C89.7906 100.609 93.7058 99.3932 97.2255 98.7333C102.013 97.8357 106.774 98.3554 111.495 99.3L111.592 98.3227C111.697 97.286 111.807 96.3163 112.008 95.3648Z" fill="black"/>
</svg>
