<svg width="240" height="324" viewBox="0 0 240 324" fill="none" xmlns="http://www.w3.org/2000/svg">
<path fill-rule="evenodd" clip-rule="evenodd" d="M198.116 286.313C202.199 286.116 200.557 278.971 200.263 276.347C197.031 266.764 197.791 256.308 196.519 246.263C195.727 236.886 194.71 227.538 193.854 218.168C192.172 199.147 180.099 160.427 166.321 154.2C164.586 146.582 157.417 139.47 148.347 139.47C142.161 132.145 134.716 126.99 125.166 128.031C121.219 128.21 117.392 132.398 113.611 133.206C111.493 133.498 92.7032 132.746 88.9392 134.983C86.3174 136.329 83.9505 138.818 84.7215 141.986C85.9515 145.825 82.129 141.672 74.1551 145.769C57.8953 155.538 67.6115 168.607 68.042 169.012C57.8953 183.135 49.0265 194.593 44.9231 211.855C42.2636 224.671 42.563 237.902 40.3348 250.783C39.548 255.25 38.341 259.564 37.035 263.902C35.6195 269.578 34.9312 283.727 34.151 283.853C32.7298 284.206 34.9724 287.126 36.4783 287.128C78.2298 294.056 120.639 287.415 162.615 286.33C174.445 285.918 186.287 285.823 198.116 286.313Z" fill="white"/>
<path fill-rule="evenodd" clip-rule="evenodd" d="M134.835 170.258C134.855 170.067 135.112 170.068 135.132 170.258L135.427 173.105C135.786 176.582 136.131 180.052 136.381 183.545C136.693 187.9 136.902 192.255 137.003 196.621C137.353 211.824 137.423 227.036 137.453 242.244C139.508 242.102 141.564 241.965 143.622 241.832C145.017 241.742 146.413 241.655 147.809 241.57L151.368 241.354V241.354L152.833 241.264C153.824 241.203 154.949 240.953 155.641 241.831C155.918 242.182 156.057 242.639 155.799 243.056C155.203 244.018 154.287 243.984 153.252 244.026C152.275 244.065 151.298 244.104 150.321 244.141C148.228 244.223 146.135 244.3 144.041 244.358C141.843 244.42 139.646 244.47 137.45 244.507C137.427 250.928 137.162 257.34 136.875 263.753L136.745 266.639C136.393 274.443 136.016 282.254 135.479 290.048C135.435 290.686 134.532 290.685 134.488 290.048C133.884 281.271 133.485 272.475 133.089 263.686C132.803 257.313 132.636 250.939 132.556 244.564C132.266 244.566 131.975 244.57 131.685 244.571C123.44 244.607 115.197 244.643 106.952 244.566C106.966 244.582 106.979 244.598 106.988 244.62C107.585 246.029 107.642 247.827 107.627 249.339C107.61 251.074 107.377 252.787 106.978 254.473C105.547 260.516 101.857 265.927 97.6545 270.402L97.5173 270.547C96.526 271.595 95.3888 272.648 94.7801 273.982C94.1584 275.345 93.9426 276.939 93.6358 278.404L93.6 278.572L92.4004 284.115C92.0193 285.875 91.9111 288.443 90.518 289.713C89.2183 290.898 87.4964 290.279 86.8848 288.753C86.4071 287.562 86.8829 286.254 87.1658 285.064L89.3822 275.744C89.7464 274.224 90.1444 272.694 90.9304 271.328C91.7355 269.93 92.9159 268.916 94.1203 267.879C96.4009 265.914 98.4946 263.666 100.265 261.231C102.035 258.797 103.548 256.114 104.609 253.293C105.14 251.881 105.575 250.413 105.875 248.934C106.161 247.531 106.158 246.077 106.463 244.689C106.484 244.593 106.565 244.527 106.658 244.498C106.636 244.436 106.67 244.352 106.756 244.347L113.499 243.913C119.493 243.526 125.487 243.13 131.476 242.676L132.534 242.6V242.6C132.452 234.094 132.522 225.587 132.675 217.078C132.816 209.275 132.819 201.47 133.051 193.668C133.166 189.796 133.415 185.933 133.692 182.069C133.975 178.117 134.428 174.198 134.835 170.258ZM71.5199 215.501C71.4481 215.068 71.993 214.799 72.2442 215.196C75.1155 219.723 76.4999 224.641 77.0835 229.94C77.599 234.616 77.4471 239.359 77.1904 244.048C76.9166 249.048 76.5971 254.047 76.2741 259.045L75.7778 266.709V266.709L74.5324 285.923C74.4433 287.297 74.1314 288.547 72.9485 289.186C72.7987 289.311 72.6426 289.423 72.4607 289.521C71.8216 289.862 70.974 289.69 70.6045 289.034L70.7527 289.131C70.8817 289.213 70.7368 289.099 70.3178 288.791L69.9623 288.331V288.331C69.7039 287.942 69.5389 287.56 69.4725 287.099C69.3694 286.381 69.503 285.594 69.5499 284.873L70.3662 272.274V272.274C71.0011 262.479 71.7424 252.687 72.3012 242.888C72.5615 238.32 72.7438 233.749 72.6204 229.173C72.4975 224.623 72.2657 219.996 71.5199 215.501ZM96.3595 131.161L96.5188 131.134C102.222 130.186 108.424 130.364 113.636 133.114C113.679 133.136 113.659 133.208 113.611 133.206L111.933 133.139C106.622 132.931 101.328 132.808 96.1054 134.056L95.5708 134.185C93.6901 134.644 91.7262 135.206 90.2156 136.448C88.7718 137.636 88.0529 139.468 87.3616 141.155L87.2692 141.378C86.5678 143.043 85.6801 144.623 84.1428 145.665C82.1516 147.014 79.7568 146.849 77.4737 147.032C73.4537 147.355 70.167 150.27 68.5318 153.836C67.5416 155.996 67.1192 158.417 67.0356 160.779C66.9927 161.981 66.9866 163.23 67.1467 164.425C67.1978 164.807 67.6698 166.198 67.9104 166.165C68.4452 166.09 68.934 166.369 69.1007 166.797C70.4216 165.52 71.7804 164.281 73.183 163.085C76.6793 160.107 80.4452 157.407 84.4111 155.088C87.4379 153.317 90.6306 151.563 93.9367 150.236C93.6747 150.231 93.4164 150.283 93.1664 150.413C93.057 150.47 92.9482 150.333 93.0346 150.242C94.0759 149.146 95.3233 148.99 96.5807 149.282C96.849 149.197 97.1175 149.114 97.3871 149.036C97.5213 148.997 97.588 149.182 97.4786 149.253L97.1697 149.45V149.45C98.5415 149.91 99.8883 150.814 100.955 151.527C104.018 153.574 106.714 156.078 109.446 158.534L109.943 158.98C112.349 161.129 114.816 163.217 117.549 164.94C118.98 165.843 120.482 166.677 122.059 167.298C123.411 167.831 125.612 168.166 126.245 169.596C126.808 170.28 126.573 171.152 125.914 171.613C124.802 172.837 122.578 172.046 121.253 171.536C119.656 170.922 118.109 170.183 116.634 169.317C113.769 167.634 111.128 165.543 108.668 163.318C106.098 160.994 103.674 158.525 101.175 156.128C100.092 155.089 99.0339 154.026 97.9494 152.989L97.4047 152.473C96.8511 151.954 96.0625 151.144 95.2193 150.654C93.6308 151.602 92.0178 152.511 90.4436 153.484C88.2462 154.841 86.1135 156.296 84.0137 157.799C79.9713 160.693 76.1406 163.934 72.5843 167.407C66.0621 173.778 60.5053 181.053 55.651 188.755L55.2824 189.342C52.5239 193.751 49.9153 198.302 48.0656 203.174C46.0305 208.535 45.0407 214.172 44.503 219.863C43.9694 225.513 43.7894 231.191 43.193 236.836C42.5813 242.625 41.3763 248.286 40.0056 253.937L39.6787 255.276C38.4384 260.337 37.1583 265.398 36.5207 270.578C36.1804 273.345 35.9756 276.15 36.0219 278.939C36.0684 281.745 36.5091 284.488 36.8647 287.264C37.0009 288.328 35.9547 289.215 35.0186 289.356C33.942 289.518 33.0171 288.831 32.6824 287.831C31.6392 284.712 31.4497 281.264 31.4824 277.99C31.5154 274.667 31.9394 271.365 32.536 268.099C33.7094 261.674 35.5201 255.383 37.0349 249.035C38.3699 243.44 39.2659 237.835 39.7489 232.104C40.2502 226.157 40.5504 220.191 41.465 214.287C42.3678 208.459 44.0663 202.892 46.628 197.578C48.9604 192.739 51.8678 188.185 54.916 183.77C58.6176 178.41 62.683 173.309 67.2274 168.661C66.8192 168.643 66.4001 168.511 66.0152 168.271C64.8375 167.536 64.2891 166.099 64.1205 164.787C63.7259 161.716 63.8211 158.511 64.6104 155.509C65.8837 150.667 69.1884 146.364 73.9778 144.619C75.2106 144.169 76.5211 144.005 77.8275 143.973C79.0673 143.942 80.4213 144.104 81.6175 143.711C83.5215 143.084 84.3376 140.841 85.0525 139.141L85.0854 139.063C86.0021 136.896 87.1024 135.038 89.0879 133.685C91.2062 132.241 93.8603 131.585 96.3595 131.161V131.161ZM150.549 139.731C152.263 139.136 154.406 139.676 156.082 140.195C157.949 140.774 159.674 141.841 161.154 143.107C162.714 144.443 164.004 146.092 164.915 147.935L165.002 148.112C165.835 149.822 166.782 152.168 166.363 154.046C166.351 154.099 166.337 154.15 166.321 154.2C169.722 155.875 172.862 157.972 175.597 160.63C178.781 163.726 181.477 167.248 183.759 171.053C192.821 186.166 194.416 204.317 195.486 221.552L195.753 225.922C196.334 235.359 197.014 244.773 198.781 254.079L198.91 254.751C200.798 264.495 203.502 274.313 203.228 284.309C203.145 287.304 198.721 287.283 198.593 284.309C198.11 273.113 195.498 262.303 193.73 251.282C190.618 231.893 192.177 211.903 187.768 192.708C186.038 185.175 183.357 177.868 179.53 171.144C177.639 167.822 175.476 164.612 172.942 161.747C170.762 159.281 168.496 156.908 165.948 154.835C165.134 155.651 163.508 155.235 163.083 154.046C162.791 153.228 162.876 152.273 162.688 151.417C162.514 150.622 162.275 149.835 161.955 149.086C161.319 147.595 160.384 146.163 159.305 144.957C158.139 143.652 156.8 142.568 155.301 141.673C153.791 140.772 152.141 140.503 150.549 139.845C150.495 139.823 150.49 139.751 150.549 139.731ZM157.208 243.354C157.21 243.276 157.303 243.239 157.36 243.291C157.961 243.844 158.324 244.638 158.766 245.319C159.276 246.103 159.812 246.872 160.373 247.62C161.498 249.12 162.751 250.533 164.013 251.918C165.188 253.206 166.439 254.44 167.738 255.603C169.144 256.863 170.72 257.987 171.998 259.383C174.665 262.294 175.096 266.29 175.658 270.042L175.72 270.448C176.063 272.675 176.371 274.908 176.648 277.144C176.783 278.231 176.917 279.32 177.027 280.41L177.06 280.756C177.158 281.823 177.185 282.906 176.572 283.839C175.916 284.837 174.425 285.186 173.538 284.23C172.014 282.586 172.3 279.666 172.102 277.552C171.938 275.803 171.752 274.057 171.545 272.313L171.439 271.441C171.194 269.458 170.995 267.434 170.541 265.485C170.141 263.769 169.379 262.473 168.129 261.229C166.869 259.977 165.56 258.807 164.398 257.458C163.165 256.027 162.052 254.493 161.05 252.892C160.193 251.523 159.506 250.032 158.876 248.543L158.772 248.295C158.163 246.844 157.16 244.954 157.208 243.354ZM179.203 180.997C179.216 180.794 179.516 180.791 179.52 180.997C179.558 182.738 179.594 184.48 179.63 186.222C179.921 200.256 179.742 214.323 181.149 228.309C181.813 234.903 183.035 241.4 184.45 247.871C185.174 251.182 185.933 254.484 186.654 257.796C187.358 261.023 188.112 264.266 188.669 267.523C189.217 270.724 189.708 273.95 189.929 277.192L189.956 277.615C190.051 279.186 190.503 281.496 189.639 282.888C188.702 284.396 186.909 284.423 185.905 282.983C184.962 281.632 185.197 279.227 185.03 277.615C184.861 275.972 184.682 274.328 184.479 272.689C184.082 269.492 183.56 266.302 183.016 263.127C181.885 256.514 180.243 249.985 179.032 243.382C177.79 236.617 176.907 229.804 176.87 222.916C176.833 215.97 177.568 209.037 177.939 202.105C178.316 195.066 178.744 188.031 179.203 180.997ZM112.933 137.346C113.309 136.077 114.639 135.284 115.935 135.64C117.124 135.967 118.105 137.41 117.64 138.644C117.133 139.991 116.247 141.14 115.5 142.365C114.81 143.496 113.804 144.387 113.101 145.498L113.875 146.333C114.263 146.75 114.651 147.164 115.044 147.571L116.395 148.971C117.448 150.059 118.506 151.141 119.595 152.192C122.796 155.281 126.048 158.268 129.633 160.913C130.449 161.515 131.271 162.114 132.117 162.674L132.432 162.883C133.012 163.263 133.659 163.637 134.36 163.572C136.063 163.416 137.601 161.607 138.771 160.481L138.833 160.422C141.732 157.662 144.417 154.645 146.765 151.4C147.286 150.679 147.791 149.946 148.282 149.204C147.147 147.878 147.418 145.289 147.356 143.681C147.312 142.55 147.308 141.419 147.302 140.287L147.299 140.059C147.285 139.326 147.252 138.623 147.727 138.021C147.755 137.986 147.812 137.987 147.848 138.005C148.498 138.346 148.699 138.918 148.977 139.558L149.006 139.625C149.344 140.394 149.667 141.17 149.995 141.944C150.338 142.754 150.652 143.576 150.971 144.395C151.119 144.776 151.261 145.159 151.399 145.544C151.483 145.79 151.57 146.034 151.66 146.279L151.681 146.297C151.799 146.398 151.9 146.504 151.986 146.613C152.349 146.795 152.638 147.126 152.773 147.613C153.068 148.672 152.458 149.535 151.914 150.376C149.704 153.791 147.185 157.046 144.385 159.998C142.994 161.465 141.531 162.866 140.008 164.195L139.742 164.425C138.373 165.602 136.888 166.716 135.06 166.991C132.922 167.313 131.181 166.249 129.544 165.024L129.381 164.901C127.829 163.725 126.308 162.509 124.835 161.236C121.831 158.642 118.973 155.856 116.436 152.8C113.969 149.827 111.531 146.503 110.01 142.925C109.917 142.708 110.161 142.479 110.352 142.661C111.095 143.369 111.809 144.115 112.516 144.87C112.535 143.758 112.33 142.637 112.444 141.518C112.584 140.158 112.543 138.655 112.933 137.346Z" fill="black"/>
<path fill-rule="evenodd" clip-rule="evenodd" d="M162.571 89.5609C162.069 83.0632 162.847 76.2526 160.342 70.0765C155.976 59.8292 143.732 56.4125 134.239 52.5112C130.436 51.3871 117.64 51.23 113.187 49.7422C103.11 46.375 100.702 42.363 92.6947 48.7743C91.343 49.8695 90.4973 51.0599 89.8804 52.6862L89.9057 52.6932C89.7295 53.3712 89.9184 54.0477 90.3154 54.5645C86.8434 58.1147 85.3905 63.4374 87.1719 68.1634C92.9854 80.4616 92.712 87.1114 90.8389 100.333C88.3928 112.675 93.9823 117.184 103.239 123.9C102.862 124.631 102.784 125.603 103.276 126.248C113.98 141.296 134.163 148.48 151.456 140.843C158.475 137.717 161.609 130.239 163.397 123.491C165.481 115.936 166.121 107.974 164.425 100.277C163.741 96.7179 162.849 93.1841 162.571 89.5609Z" fill="white"/>
<path fill-rule="evenodd" clip-rule="evenodd" d="M100.826 17.5712C102.126 17.376 103.107 18.1824 103.574 19.3191L103.598 19.3803C103.748 19.7671 103.915 20.1433 104.095 20.5132C107.346 18.9175 111.985 19.3275 114.043 22.559C115.511 24.867 114.616 27.6061 114.062 30.0535L113.699 31.6661C114.401 32.1133 114.931 32.9141 114.906 33.7433L114.903 33.8071L114.755 36.0559C115.224 35.5803 115.653 35.0625 116.035 34.5109C116.3 34.0269 116.585 33.5514 116.891 33.0906C118.693 30.379 122.739 32.7356 121.252 35.6395C120.966 36.1996 120.645 36.7301 120.301 37.2415C119.912 37.9961 119.593 38.7717 119.348 39.5685C120.052 39.875 120.592 40.5555 120.65 41.5827C120.783 43.9815 119.523 45.983 117.521 47.2405C116.931 47.6104 116.323 47.6822 115.771 47.5449C115.674 47.6759 115.577 47.8069 115.484 47.9401C116.283 48.5889 117.003 49.3287 117.622 50.1487C119.485 49.8697 121.359 49.7387 123.233 49.7345C125.523 48.6122 128.266 48.6354 130.727 49.056C132.311 49.3266 133.833 49.8528 135.392 50.2311C137.035 50.6285 138.704 50.6433 140.367 50.9138C142.463 51.2541 144.301 52.2221 145.457 53.767C146.726 53.8051 148.062 54.325 149.169 55.0309C151.746 56.6752 154.309 58.3428 156.88 59.9976C157.867 60.633 158.236 61.6472 158.054 62.7785L158.042 62.8509L157.955 63.3201L158.159 63.6088C158.945 64.7204 159.802 65.8847 160.311 67.1117C161.253 68.4707 162.104 69.8952 162.859 71.364C163.875 73.3381 164.714 75.4304 165.282 77.5777C165.423 78.1209 165.565 78.6683 165.658 79.2221C165.791 80.0041 165.586 80.6106 165.474 81.3609C165.335 82.312 165.284 83.2758 165.136 84.2289C165.037 84.8609 164.5 85.1716 163.938 85.1885C164.15 86.7968 164.302 88.4158 164.447 90.022C164.652 92.3173 164.792 94.6189 164.912 96.9205C165.533 97.823 166.803 98.5374 167.72 98.7846C168.99 99.1249 170.321 98.755 171.521 98.3218C172.275 98.0491 172.894 98.9981 172.526 99.6321C171.371 101.623 168.899 101.615 167.027 100.733C166.235 100.361 165.54 99.8224 165.024 99.1207C165.056 99.7885 165.09 100.456 165.123 101.126L165.155 101.733C165.536 108.82 166.357 116.151 165.026 123.168C162.721 135.323 152.667 144.578 140.384 145.296C133.939 145.674 128.571 143.769 125.902 142.707C123.233 141.644 124.271 139.478 126.124 140.097C129.315 141.164 135.179 142.753 140.426 142.067C152.794 140.45 163.281 134.266 162.204 107.632C162.051 103.855 161.581 100.076 161.479 96.2992C161.382 92.6069 161.418 88.9125 161.255 85.2223L161.201 83.9632C161.137 82.4921 161.069 81.0141 160.959 79.5412C160.826 78.9705 160.716 78.3914 160.554 77.8314C160.112 76.3075 159.535 74.826 158.819 73.412C158.661 73.5325 158.483 73.6192 158.291 73.653C156.831 73.915 155.462 73.8411 154.095 73.2324C153.457 72.9513 152.895 72.5772 152.371 72.1143C152.122 71.8967 151.955 71.6853 151.824 71.4655C151.163 71.4761 150.502 71.2774 150.088 70.8019C149.615 70.2598 149.537 69.7 149.722 69.1818L149.741 69.1301L149.695 69.1132C149.137 70.5567 148.026 71.8269 146.807 72.685C144.88 74.0461 142.469 74.4392 140.158 74.4751C137.606 74.5132 134.914 74.1201 132.396 73.7185C131.731 73.6128 131.069 73.4923 130.421 73.3296C130.395 73.355 130.37 73.3846 130.342 73.4099C128.181 75.479 125.141 76.0116 122.399 74.8302C120.814 74.1475 119.485 73.0485 118.311 71.7889C118.294 72.4483 118.26 73.1077 118.203 73.7608L118.179 74.0201C118.062 75.2364 117.837 76.5266 116.919 77.4044C115.433 78.8268 113.278 78.2562 111.565 77.3305C111.567 77.3749 111.567 77.4213 111.567 77.4678C112.03 79.0403 112.495 80.6148 112.959 82.1894L113.059 82.5248C113.397 83.6429 113.768 84.7623 113.87 85.9324C114.064 88.1685 112.577 90.3771 110.092 89.6268C108.789 89.2347 107.745 88.1385 106.743 87.2605L106.112 86.7144C107.745 92.0552 108.878 97.5863 108.983 103.16C108.99 103.462 108.73 103.69 108.442 103.701C107.771 103.728 107.048 103.595 106.372 103.327C106.334 103.324 106.296 103.322 106.256 103.316C105.102 103.149 104.031 102.733 103.087 102.118C103.304 102.809 103.402 103.551 103.345 104.326C103.33 104.514 103.036 104.58 102.994 104.373C102.449 101.691 99.3115 99.6639 96.6073 100.177C93.7045 100.729 91.5664 103.227 91.0425 106.07C90.4805 109.124 91.5559 112.656 93.5481 115.012C94.465 116.098 95.6714 117.005 97.1038 117.233C97.7587 117.337 98.439 117.301 99.0749 117.115C99.3453 117.035 99.5988 116.923 99.8566 116.817C100.233 116.665 100.672 116.642 101.027 116.481C101.832 116.12 102.641 116.861 102.233 117.688C101.878 118.409 101.559 118.895 100.97 119.267C101.447 119.85 101.881 120.662 102.041 120.879C102.861 121.987 103.693 123.033 104.627 124.045C105.578 125.072 106.615 126.011 107.711 126.879L108.172 127.244C109.229 128.082 110.148 128.858 110.893 130.06C111.481 131.009 110.72 132.296 109.619 132.282C106.176 132.233 103.672 129.206 101.889 126.562C101.635 126.184 101.397 125.785 101.175 125.375C101.095 125.504 101.006 125.624 100.907 125.734L101.103 126.262C101.686 127.818 99.1742 128.834 98.4453 127.382C97.915 126.33 97.3002 125.328 96.6157 124.381C96.2122 124.324 95.8171 124.079 95.5974 123.762C95.0418 122.957 94.4185 122.143 93.8925 121.285C93.6009 121.008 93.3009 120.742 92.9946 120.482C92.9059 120.56 92.815 120.638 92.7284 120.721C92.3439 121.598 91.8685 122.399 91.2791 123.153L91.1527 123.314C90.0235 124.738 88.5527 126.195 86.7326 126.543C86.177 126.649 85.6425 125.958 86.1347 125.516C87.4087 124.371 88.915 123.591 90.0897 122.312C90.6684 121.682 91.1997 120.988 91.6567 120.261L91.7608 120.093C91.8369 119.968 91.915 119.844 91.9953 119.717C91.465 119.355 90.9347 118.992 90.4045 118.628C88.9447 119.876 87.0436 120.447 85.429 121.48L85.2685 121.585C83.8087 122.562 82.2707 120.402 83.4411 119.216C84.7313 117.914 85.8083 116.361 86.9513 114.914C86.4138 113.923 86.1595 112.752 86.0642 111.569C86.0266 111.234 85.9972 110.898 85.9678 110.563C85.1481 110.576 84.3242 110.295 83.627 109.811L83.3629 109.623C82.5157 109.893 81.6263 110.024 80.7749 110.001C78.7721 109.942 77.9523 107.653 79.2052 106.205C80.4833 104.726 82.7207 104.402 84.4932 105.121C84.5502 105.091 84.6094 105.06 84.6664 105.028C84.5819 104.639 84.6007 104.286 84.6968 103.976L84.669 103.788C84.2792 103.189 84.0229 102.506 83.9257 101.784C83.8488 101.213 83.8645 100.646 83.9967 100.081C84.0407 99.8936 84.1321 99.6989 84.2021 99.503C84.058 99.1391 83.9733 98.7629 83.9471 98.3845C83.9067 98.3366 83.8666 98.2873 83.8285 98.2341C82.949 96.9987 83.1267 95.5102 83.9637 94.5105C83.9676 94.4469 83.9735 94.3833 83.9821 94.3201C83.9331 94.2097 83.8881 94.0984 83.8471 93.9857C83.0293 93.1604 82.4289 92.1673 82.5409 90.9366C82.6066 90.2125 82.904 89.5607 83.3542 89.0735C83.2744 88.8372 83.2668 88.5635 83.3635 88.3351C82.645 86.4232 82.7359 84.1205 83.253 81.9823C83.139 81.6568 83.0798 81.3039 83.0925 80.9298C83.1516 79.3425 84.5249 77.8842 86.1516 77.9032C86.3475 77.9049 86.5309 77.9305 86.7071 77.9679L86.7094 77.9301C86.7717 77.4537 86.9027 77.0134 87.0939 76.6184C86.9999 76.5844 86.9128 76.5356 86.8366 76.4707C85.7942 77.027 84.6911 77.4522 83.5347 77.742C82.6843 77.955 81.8133 76.9881 82.3418 76.1896C82.5871 75.8191 82.8578 75.4864 83.1493 75.1825C82.7348 75.1848 82.314 75.2129 81.8883 75.2677C81.1235 75.367 80.2699 74.845 79.7735 74.1391C79.1566 74.7393 78.5376 75.3374 77.9185 75.9356C76.3509 77.4552 73.9826 76.3371 73.7354 74.3335C73.2685 74.2088 72.8333 73.9975 72.4509 73.6952C69.9791 74.7689 67.3192 75.3586 64.6002 75.4706C62.6481 75.5509 61.5073 73.2768 62.4199 71.6705C63.0326 70.5926 63.7932 69.6246 64.6699 68.7835C63.3094 69.1998 61.9045 69.4999 60.4699 69.6923C59.6946 69.7958 58.5981 69.1533 58.2876 68.4411C57.1002 65.702 57.2016 62.8466 58.5685 60.1815C58.6214 60.0758 58.6805 59.9744 58.7376 59.8729C58.8791 59.52 59.0333 59.1713 59.2002 58.8289C57.5185 57.0747 57.3728 54.4666 58.2791 52.2833C57.9157 51.6937 57.7763 50.9835 58.0235 50.341C58.727 48.4917 59.7411 46.784 61.0214 45.3172C60.8988 45.0805 60.7911 44.829 60.7002 44.5585C59.9798 42.371 60.8143 39.7312 62.4981 38.2074C63.5566 37.2479 64.7735 36.673 66.0728 36.3053C66.6199 35.3373 67.3235 34.4644 68.1432 33.7289C68.1749 33.6592 68.2066 33.5894 68.2425 33.5197C69.5185 31.1145 71.8425 29.8253 74.3333 29.5273C74.4305 28.5867 75.0643 27.6885 75.9854 27.3968C76.239 26.5831 76.6171 25.8054 77.1368 25.0995C77.9545 23.9878 79.3129 23.4636 80.5932 24.1928C81.2946 24.5922 81.9664 25.0509 82.596 25.5581C82.8788 25.4254 83.1994 25.3396 83.5611 25.3122L83.6523 25.3066L85.7354 25.2009C86.608 24.8141 87.4784 24.4084 88.3509 24.0131C88.8749 23.5799 89.4601 23.2185 90.0981 22.95C90.8207 22.6478 91.5601 22.4766 92.3016 22.4195C92.9038 22.223 93.5101 22.0497 94.127 21.9144C95.5763 21.5974 97.0932 21.4199 98.5974 21.4347C98.6282 21.0452 98.6435 20.651 98.6405 20.2522L98.6376 20.0524C98.6038 18.7738 99.6242 17.7529 100.826 17.5712ZM99.3664 119.875C99.1594 119.92 98.9502 119.956 98.7411 119.981C98.8045 120.137 98.8678 120.294 98.9291 120.45C99.0981 120.545 99.2692 120.636 99.4404 120.721C99.3897 120.433 99.3601 120.144 99.3664 119.875ZM88.5121 116.649L88.3717 116.907C88.3489 116.95 88.3265 116.991 88.3045 117.033C88.6023 117.009 88.9023 117.016 89.1981 117.05L89.1973 117.018C89.1592 117.005 89.1212 116.993 89.0849 116.976C88.8808 116.877 88.6911 116.768 88.5121 116.649ZM94.3784 104.844C96.2475 104.953 97.8311 105.24 99.531 106.058L99.677 106.129C101.179 106.875 103.664 108.253 103.454 110.229C103.395 110.791 102.988 111.383 102.345 111.339C100.585 111.218 99.5798 109.443 98.3883 108.336C97.1861 107.22 95.7094 106.072 94.2537 105.305C94.048 105.197 94.129 104.855 94.3529 104.844L94.3784 104.844ZM85.9023 78.8078C85.4545 78.8226 85.6045 79.258 85.8347 78.8945C85.8537 78.8649 85.877 78.8353 85.9023 78.8078ZM110.079 49.7425C105.837 49.8541 101.568 52.3596 98.3904 54.8922C95.6259 57.0956 93.2388 59.7163 91.1251 62.541C90.5813 63.9478 90.1144 65.3839 89.7199 66.8306C89.4601 67.7859 89.2974 68.7518 89.0798 69.7155L89.0122 70.011C88.8413 70.3305 88.7143 70.6744 88.6218 71.0297C89.0069 71.416 89.5066 71.6927 90.0567 71.8239C90.234 71.8662 90.3812 71.9577 90.4976 72.079C90.9404 71.3397 91.3275 70.5594 91.5527 69.7322L91.5609 69.694C92.4121 68.2993 93.3366 66.9479 94.3277 65.6428C97.0615 62.0393 100.072 58.7549 103.691 56.0221C106.435 53.9509 109.503 52.3277 112.765 51.2731C111.967 50.6287 111.06 50.1189 110.079 49.7425Z" fill="black"/>
<path fill-rule="evenodd" clip-rule="evenodd" d="M143.152 128.274C141.732 127.694 140.465 126.727 139.538 125.492C139.216 125.063 139.133 124.61 139.2 124.195C139.276 123.729 139.552 123.306 139.928 123.023C140.305 122.738 140.777 122.598 141.233 122.67C141.63 122.732 142.024 122.949 142.337 123.399L142.402 123.489C142.953 124.235 143.67 124.846 144.488 125.24C145.276 125.62 146.158 125.798 147.07 125.695C148.808 125.498 150.005 124.558 151.278 123.282C151.436 123.121 151.594 122.954 151.752 122.786C151.852 122.632 151.991 122.534 152.146 122.482C152.317 122.425 152.511 122.428 152.689 122.49C152.86 122.55 153.013 122.663 153.116 122.814C153.213 122.958 153.269 123.135 153.251 123.338C153.134 124.661 152.443 125.842 151.461 126.769C150.37 127.798 148.924 128.511 147.563 128.76C146.064 129.036 144.536 128.839 143.152 128.274V128.274ZM148.271 107.866C149.866 108.836 152.297 111.098 150.581 113.503C148.56 115.624 145.652 113.192 144.219 112.093C142.89 111.241 141.396 113.432 142.629 114.428C152.987 122.099 157.19 108.12 149.078 106.725C148.184 106.572 147.853 107.566 148.271 107.866ZM129.711 98.9426C129.887 96.7538 133.219 96.2568 133.551 98.4227C133.847 100.363 133.498 102.145 132.624 103.892C131.79 105.561 129.692 104.782 129.533 103.263C129.32 101.226 129.601 100.304 129.711 98.9426ZM155.076 97.9736C155.541 97.3649 156.212 96.9494 157.015 97.1842C159.526 97.9182 158.786 101.484 157.904 103.22C157.425 104.163 155.876 104.402 155.176 103.572C154.036 102.218 153.489 99.5154 154.94 98.1822C154.979 98.1133 155.023 98.0438 155.076 97.9736ZM132.589 89.3651L132.986 89.2957C134.213 89.0834 135.738 88.8794 136.606 89.8662C137.067 90.3895 137.225 91.3622 136.606 91.8631C135.518 92.7444 134.314 92.4028 133.01 92.4775C131.935 92.5392 130.902 92.7171 129.867 93.0132C127.595 93.6627 125.744 94.8484 123.804 96.1503C123.55 96.3211 123.29 95.9954 123.411 95.7572C124.531 93.5627 126.701 91.7601 128.875 90.6613C130.036 90.0748 131.305 89.5883 132.589 89.3651ZM152.787 88.3821L153.091 88.4442C156.395 89.1351 160.687 90.515 162.251 93.7613C162.311 94.2203 162.248 94.3187 162.197 94.3829L162.18 94.4043C162.137 94.4592 162.104 94.5349 161.905 94.5974C161.85 94.5842 161.794 94.5703 161.737 94.5555C161.02 94.3675 160.453 94.1085 159.904 93.8398L159.308 93.5462C158.617 93.2073 157.92 92.8807 157.181 92.6396C155.605 92.1252 153.983 91.7628 152.337 91.5693C151.98 91.5274 151.636 91.4069 151.365 91.2004C151.108 91.0044 150.911 90.733 150.821 90.3722C150.705 89.9053 150.739 89.5518 150.989 89.1306C151.177 88.8143 151.447 88.5951 151.756 88.4692C152.071 88.3408 152.43 88.3106 152.787 88.3821Z" fill="black"/>
<path fill-rule="evenodd" clip-rule="evenodd" d="M129.449 129.599C131.159 125.59 134.892 122.644 139.191 121.566C142.347 120.778 145.66 120.803 148.877 121.116C150.563 121.279 152.371 121.412 153.96 122.039C155.316 122.574 156.422 123.585 157.253 124.772C158.243 126.179 158.916 127.789 159.389 129.439C159.456 129.674 159.519 129.91 159.578 130.148C159.372 131.393 158.936 132.453 157.783 133.236C156.658 134 155.316 134.313 153.978 134.424C153.846 134.361 153.72 134.296 153.603 134.23C151.518 133.035 150.05 130.213 147.419 130.595C145.07 130.936 143.524 133.893 142.127 135.626C137.644 136.149 133.163 134.801 129.515 132.236C129.33 131.359 129.319 130.473 129.449 129.599M162.625 126.558C162.266 125.551 161.814 124.576 161.279 123.657C159.509 120.619 156.791 118.198 153.565 116.814C145.934 113.546 136.06 115.85 129.897 121.211C127.792 123.044 125.663 125.737 125.019 128.634C124.827 128.672 124.645 128.772 124.496 128.913C120.043 126.108 115.458 123.41 111.87 119.523C109.264 116.698 107.452 113.355 106.342 109.682C106.251 109.38 105.764 109.424 105.779 109.759C105.783 109.837 105.787 109.915 105.791 109.993C105.745 109.849 105.526 109.923 105.509 110.063C104.912 114.525 104.165 119.256 104.853 123.741C105.264 126.418 106.479 128.377 108.104 130.493C109.845 132.761 111.815 134.87 113.83 136.893C115.109 138.177 116.444 139.658 118.01 140.6C119.831 141.694 121.896 142.525 123.839 143.369C125.816 144.231 127.823 145.026 129.867 145.716C133.954 147.1 138.178 148.056 142.476 148.475C145.917 148.809 149.85 149.173 153.148 147.878C155.675 146.886 157.715 145.092 159.334 142.934C161.095 140.583 162.488 137.905 163.258 135.082C164.058 132.149 162.793 127.03 162.625 126.558" fill="black"/>
</svg>
