<svg width="240" height="324" viewBox="0 0 240 324" fill="none" xmlns="http://www.w3.org/2000/svg">
<path fill-rule="evenodd" clip-rule="evenodd" d="M188.18 197.386C187.516 195.563 188.485 193.744 189.023 191.98C190.933 185.864 193.019 179.747 195.969 174.043C197.087 172.134 195.248 169.794 193.117 170.332C189.47 170.843 185.709 170.436 182.055 170.21C180.719 166.752 177.152 165.317 174.345 163.325C171.16 161.337 168.062 159.052 164.749 157.309C164.565 155.661 162.568 155.253 161.347 156.431C157.993 154.344 153.971 154.732 150.376 153.364C147.644 148.947 147.439 144.302 146.716 140.041C146.4 138.183 146.735 136.391 145.466 134.735C141.204 128.738 124.363 126.137 118.153 129.691C114.811 127.606 114.73 131.383 114.2 133.714C113.609 134.88 113.29 136.201 113.389 137.592C109.799 145.094 101.585 148.485 94.2286 151.233C93.3058 150.344 91.9868 150.457 91.1088 151.192C84.7327 152.578 78.5445 155.016 73.2024 158.822C67.1331 160.598 62.8587 165.536 59.7679 170.831C59.4273 171.389 59.347 171.958 59.4465 172.481C49.9418 186.419 45.4055 203.105 44.7683 219.957C38.6561 223.627 47.6734 256.593 49.7726 263.437C49.7747 263.436 49.7768 263.435 49.7789 263.434C51.1408 265.846 52.687 272.729 56.0952 272.196C58.4331 274.841 62.1588 274.321 65.3314 274.524C64.8146 276.507 65.0686 278.776 65.6836 280.735C66.411 283.067 69.9806 283.146 70.4868 280.603C102.081 286.744 134.497 281.845 166.446 282.766C175.684 282.832 184.92 283.118 194.136 283.776C195.433 283.869 196.749 282.542 196.66 281.25C194.679 260.163 192.819 232.423 190.603 211.543C190.078 206.781 189.662 201.967 188.18 197.386Z" fill="white"/>
<path fill-rule="evenodd" clip-rule="evenodd" d="M114.721 130.993C114.811 130.745 115.181 130.778 115.188 131.056C115.333 136.985 113.858 144.23 109.115 148.235C106.681 150.291 103.462 151.232 100.506 152.313L100.173 152.436L94.9507 154.382C93.5656 154.898 92.0715 155.692 90.8481 154.963C91.8381 157.419 92.6692 159.942 93.8749 162.309C95.3758 165.256 97.1903 167.951 99.4112 170.403C108.21 180.117 122.134 183.08 134.63 180.234C141.065 178.768 147.326 175.99 151.716 170.924C155.052 167.073 156.969 161.905 157.421 156.807C157.289 156.828 157.15 156.827 157.008 156.796C155.427 156.451 153.831 155.603 152.44 154.772L152.306 154.692C150.967 153.885 149.572 152.962 148.611 151.709C147.657 150.465 146.656 146.408 146.656 146.408C146.383 144.883 146.127 141.845 146.171 140.304C146.175 140.159 146.82 140.073 146.889 140.224C147.485 141.532 147.678 144.408 148.138 145.769L148.231 146.041C148.722 147.464 149.143 149.195 150.162 150.345C152.074 152.504 154.959 153.418 157.534 154.5C157.719 152.06 161.615 152.117 161.565 154.662C161.563 154.8 161.556 154.938 161.552 155.075C161.859 155.244 162.154 155.437 162.43 155.624L162.7 155.807C163.72 156.501 164.748 157.161 165.834 157.749C167.937 158.89 170.163 159.794 172.317 160.828C174.497 161.876 176.535 163.123 178.439 164.617C179.333 165.318 180.19 166.064 181.003 166.858L181.224 167.076C181.997 167.847 183.004 168.709 183.445 169.722C183.542 169.945 184.029 170.465 184.293 170.482C188.387 170.751 192.472 171.13 196.54 171.698C197.593 171.845 198.009 172.388 197.62 173.266C196.282 176.284 191.045 188.336 189.652 191.57C189.815 193.946 189.595 196.743 189.742 199.12C189.956 202.588 190.237 206.055 190.574 209.513C191.778 221.885 193.603 234.197 195.253 246.515C196.079 252.679 196.831 258.853 197.574 265.028C197.95 268.149 198.268 271.272 198.513 274.406C198.615 275.712 198.708 277.019 198.789 278.326L198.86 279.486C198.957 280.945 199.18 282.338 198.277 283.591C197.868 284.159 196.934 284.479 196.395 283.834C195.719 283.022 195.468 282.416 195.403 281.35C195.354 280.534 195.342 279.715 195.304 278.898C195.224 277.128 195.123 275.358 195.005 273.59C194.769 270.055 194.5 266.521 194.188 262.991C193.094 250.616 191.015 238.334 189.632 225.989C188.935 219.766 188.44 213.531 188.177 207.273C188.046 204.148 187.999 201.023 188.029 197.896C188.041 196.727 188.096 195.564 188.177 194.404C186.104 199.113 183.926 203.777 181.649 208.379L181.109 209.468C179.665 212.377 178.183 215.296 176.449 218.038L176.151 218.506C175.448 219.62 174.488 221.376 173.206 221.727C172.314 221.972 171.223 221.8 170.308 221.782C169.399 221.765 168.49 221.761 167.583 221.724C166.564 221.683 165.593 221.549 164.609 221.284C164.446 221.24 164.291 221.192 164.15 221.131C163.159 222.754 161.475 223.99 159.753 224.71C158.373 225.287 156.928 225.682 155.48 226.048L154.968 226.177C153.416 226.564 151.64 226.747 150.765 228.247L150.561 228.595C149.91 229.701 149.286 230.673 148.208 231.466C147.049 232.32 145.675 232.857 144.306 233.275C142.905 233.703 141.471 234.03 140.048 234.381L139.66 234.478C138.721 234.713 137.773 234.929 136.84 235.184C136.441 235.294 136.036 235.406 135.645 235.54C135.187 235.698 134.855 235.943 134.494 236.21C134.169 237.344 132.782 237.96 131.642 237.881C131.043 237.84 130.506 237.637 130.017 237.339C129.164 238.065 128.224 238.716 127.354 239.389C126.136 240.332 124.914 241.268 123.684 242.195C121.149 244.107 118.594 245.993 116.013 247.842C111.432 251.125 106.751 254.257 101.991 257.273C100.006 258.53 98.0079 259.786 95.9901 261.011L96.2055 261.091L96.6326 261.252C97.6422 261.629 98.7672 262.239 98.9629 263.417C99.1179 264.352 98.5961 264.996 97.6737 265.11C96.5774 265.245 95.7243 264.471 95.0417 263.731C94.7405 263.405 94.4033 263.102 94.1147 262.766C93.997 262.629 93.9066 262.471 93.8269 262.305C91.8356 263.479 89.8231 264.613 87.7787 265.674L87.2669 265.938C82.1971 268.531 77.2625 271.373 72.1496 273.892C70.8159 274.55 69.1898 275.261 67.4948 275.746C67.9446 277.49 67.9376 279.405 67.949 281.175C67.9598 282.9 65.2194 282.892 65.2773 281.175L65.3052 280.346C65.3551 278.952 65.4366 277.504 65.7672 276.148C60.7732 276.976 55.7842 275.176 54.8553 274.635C53.83 274.038 52.8993 273.084 52.1248 272.199C50.4674 270.304 49.3173 268.032 48.2969 265.747C46.1111 260.853 44.5625 255.621 43.4303 250.389C39.2563 231.1 41.0517 210.455 47.8302 191.965C49.5237 187.345 51.5231 182.827 53.8143 178.473L54.0988 177.934C56.3852 173.628 58.9263 169.338 62.1541 165.674C65.5162 161.857 69.6636 158.889 74.1793 156.585C76.383 155.46 78.6505 154.486 80.9681 153.622C81.3404 153.483 81.7152 153.359 82.0908 153.24C84.506 151.7 87.4372 150.226 90.3693 150.284C90.5686 150.288 90.73 150.363 90.8504 150.477C90.9917 150.502 91.1331 150.532 91.2746 150.573C91.5871 150.664 91.9171 151.007 91.8723 151.359L91.8571 151.476C91.8488 151.533 91.8384 151.588 91.8205 151.642C91.9253 151.658 92.0282 151.683 92.129 151.717C94.9344 150.924 97.6946 149.712 100.432 148.735L101.056 148.514C103.349 147.711 105.701 146.923 107.582 145.332C109.453 143.749 110.86 141.699 111.877 139.483C113.13 136.753 113.692 133.796 114.721 130.993ZM170.888 274.99C171.444 274.576 172.1 275.056 172.308 275.568C172.991 277.247 172.653 279.856 171.692 281.341C170.695 282.879 168.309 282.272 168.251 280.409C168.191 278.466 169.32 276.158 170.888 274.99ZM176.626 228.622C176.676 228.404 177.015 228.406 177.065 228.622C177.528 230.593 177.517 232.715 177.653 234.735L177.668 234.959C177.831 237.187 177.968 239.421 178.066 241.652C178.257 246.043 178.486 250.434 178.743 254.822C178.87 256.997 179.007 259.173 179.153 261.347C179.608 261.093 180.078 260.87 180.565 260.673C181.294 260.378 182.004 260.344 182.788 260.352C183.742 260.362 184.461 261.202 184.334 262.137C184.197 263.156 183.3 263.592 182.369 263.447C181.338 263.285 180.303 263.035 179.262 262.931C179.378 264.613 179.498 266.294 179.625 267.974C179.793 270.199 180.013 272.42 180.167 274.646C180.182 274.858 180.197 275.07 180.214 275.284C180.834 274.961 181.494 274.795 182.241 274.592L182.435 274.537C183.52 274.226 184.68 273.795 185.684 274.524C186.359 275.015 186.493 275.822 185.934 276.469C185.087 277.451 183.833 277.261 182.662 277.21L182.032 277.187C181.438 277.164 180.891 277.126 180.342 276.976C180.443 278.426 180.496 279.881 180.318 281.31C180.222 282.082 179.206 282.284 178.937 281.496C178.235 279.438 178.09 277.218 177.833 275.062C177.592 273.049 177.446 271.02 177.289 268.998L177.242 268.391C176.888 263.942 176.605 259.489 176.398 255.031C176.192 250.572 176.067 246.115 176.018 241.652C175.995 239.626 176.029 237.592 176.108 235.566L176.134 234.959C176.225 232.875 176.161 230.664 176.626 228.622ZM83.7898 275.318C83.8168 275.034 84.0448 274.68 84.3839 274.724C84.6963 274.765 85.0183 274.745 85.3274 274.797C85.7354 274.864 86.0637 275.106 86.4431 275.257C87.0598 275.504 87.732 275.631 88.3648 275.833C89.5519 276.212 90.1988 277.462 89.7072 278.63C89.1902 279.857 87.8911 280.136 86.7687 279.621C85.8839 279.215 85.2244 278.566 84.6295 277.815L84.4609 277.601C84.2046 277.278 83.9136 276.918 83.8061 276.528C83.7015 276.147 83.753 275.706 83.7898 275.318ZM141.465 269.549C142.944 269.34 144.207 269.846 145.575 270.323L145.686 270.361C147.079 270.842 149.11 271.175 149.824 272.601C150.255 273.46 149.92 274.602 148.907 274.857C147.302 275.259 145.863 274.086 144.536 273.296L144.467 273.255C143.186 272.504 141.864 271.873 141.046 270.579C140.828 270.234 141.017 269.612 141.465 269.549ZM89.8486 151.912C89.2562 152.045 88.6638 152.163 88.072 152.275C85.821 153.482 83.636 154.735 81.3119 155.81C78.846 156.951 76.3891 158.13 74.0468 159.51C69.3146 162.299 65.4136 165.925 62.19 170.369C56.6219 178.047 52.48 186.9 49.5157 195.884C48.7541 198.192 48.0725 200.526 47.4696 202.879C48.5356 201.893 49.7977 201.286 51.213 200.767C51.8128 200.547 52.5594 200.92 52.8634 201.439C53.0001 201.672 53.0772 201.903 53.0631 202.177C53.0316 202.781 52.6386 203.467 51.99 203.587C50.478 203.866 49.0078 204.408 47.5498 204.886C47.3288 204.958 47.1389 204.931 46.9872 204.846C45.5398 210.979 44.6343 217.238 44.3136 223.535C44.0424 228.866 44.2097 234.239 44.8 239.563C45.2536 239.359 45.6972 239.168 46.1946 239.052C46.8396 238.902 47.474 238.719 48.1031 238.513C49.9188 237.917 50.7469 240.916 48.8912 241.373C48.2005 241.543 47.5057 241.684 46.8019 241.787C46.1886 241.878 45.6461 241.838 45.0679 241.744C45.5096 245.065 46.113 248.362 46.8816 251.613L47.0512 252.324C48.0496 256.475 49.2132 260.665 50.8959 264.589C51.7213 266.513 52.8142 268.341 54.1636 269.945C54.8265 270.734 55.5624 271.411 56.3648 272.052C57.0328 272.585 59.3036 273.742 61.9929 273.742C64.6823 273.742 65.4103 273.488 66.7672 273.021C69.4505 272.097 71.9982 270.622 74.5146 269.308L74.7748 269.173C75.8876 268.597 76.9961 268.012 78.1017 267.423C77.962 266.295 78.2065 265.348 78.7938 264.307C79.4286 263.18 81.0017 263.741 81.1186 264.893L81.1224 264.938C81.1401 265.197 81.1836 265.462 81.2377 265.726C88.6302 261.675 95.8661 257.34 102.987 252.823C107.574 249.913 112.112 246.917 116.583 243.833C118.819 242.291 121.035 240.721 123.229 239.121C124.378 238.283 125.522 237.438 126.661 236.585C127.135 236.23 127.6 235.857 128.076 235.5C127.96 235.356 127.848 235.212 127.739 235.069C125.964 232.744 124.812 229.973 124.238 227.114C123.892 225.389 123.724 223.598 123.673 221.839L123.651 221.074C123.616 219.786 123.607 218.437 123.844 217.189C123.521 217.366 123.191 217.541 122.862 217.727C121.682 218.396 120.5 219.063 119.317 219.728C116.947 221.057 114.571 222.372 112.164 223.633C107.865 225.886 103.524 228.029 99.0658 229.95L96.8964 230.885C93.1314 232.506 89.3356 234.096 85.421 235.301C83.2131 235.98 80.9884 236.56 78.7488 237.078L79.6545 238.14C80.2686 238.859 80.2794 239.892 79.4946 240.498C78.723 241.093 77.6878 240.845 77.1738 240.054L76.2368 238.613C76.0365 238.304 75.9229 238.016 75.8584 237.712C74.8268 237.928 73.7924 238.135 72.7552 238.335L70.7945 238.71C67.9947 239.25 65.2802 240.321 62.7776 241.691C61.9076 242.167 61.6652 241.242 62.587 240.597C65.2823 238.712 68.4262 237.646 71.67 236.75L71.8293 236.707C73.0194 236.381 74.2074 236.041 75.3928 235.689C75.2624 235.217 75.1872 234.727 75.2022 234.188C75.2356 232.985 75.3419 231.779 75.4057 230.577C75.5396 228.055 75.7105 225.541 75.9108 223.024C75.9877 222.055 76.0739 221.082 76.1726 220.111C75.5369 219.77 74.9887 219.317 74.2799 219.094L74.1603 219.06C73.4022 218.855 73.6581 217.878 74.3314 217.794C74.9413 217.719 75.5483 217.754 76.1496 217.883C76.2427 217.903 76.3308 217.926 76.4149 217.951C76.5254 217.051 76.6479 216.154 76.7872 215.261C77.1554 212.903 77.4159 210.418 78.1824 208.152C78.2392 207.985 78.4883 207.925 78.5806 208.1C79.6957 210.222 79.7344 212.826 79.8601 215.189L79.8757 215.471C80.0238 218.049 80.0322 220.652 79.9845 223.234C79.9355 225.894 79.8444 228.548 79.725 231.206C79.6771 232.277 79.679 233.387 79.4967 234.411C86.1322 232.253 92.6504 229.67 98.8982 226.611C103.305 224.454 107.675 222.21 111.994 219.882C114.158 218.716 116.333 217.569 118.495 216.398C119.252 215.988 120.009 215.576 120.766 215.164L121.9 214.545C122.962 213.965 123.848 213.388 125.085 213.348C125.454 213.336 125.784 213.508 126.019 213.77C126.684 213.298 127.452 213.009 128.258 213.016C129.472 211.339 130.704 209.676 131.985 208.049L132.931 206.844C134.569 204.766 136.305 202.656 138.394 201.074C139.326 200.369 140.351 199.839 141.421 199.402C141.169 199.34 140.923 199.216 140.703 199.013C139.682 198.065 139.541 196.305 139.334 194.983C139.119 193.612 139.202 192.385 139.414 191.018C139.497 190.487 140.376 190.377 140.591 190.865C141.043 191.893 141.522 192.879 141.934 193.919L142.055 194.233C142.497 195.404 143.438 196.635 143.376 197.905C143.359 198.254 143.242 198.557 143.062 198.801C143.96 198.503 144.87 198.237 145.767 197.959C148.589 197.087 151.422 196.239 154.298 195.563C155.064 195.383 155.833 195.215 156.606 195.062C157.01 193.14 157.6 191.253 158.296 189.4C157.637 189.062 157.211 188.496 156.644 187.993C156.113 187.522 155.748 186.948 155.296 186.407C154.884 185.915 155.115 185.025 155.856 185.054L156.066 185.063C156.833 185.099 157.576 185.178 158.272 185.536L158.52 185.664C158.86 185.841 159.232 186.043 159.564 186.282C159.997 185.285 160.447 184.297 160.903 183.319L161.494 182.054C163.026 178.763 164.554 175.347 166.477 172.282C167.333 170.92 168.471 170.069 170.104 169.938C171.786 169.802 173.535 169.977 175.22 170.037C177.172 170.107 179.125 170.19 181.075 170.293C180.575 169.769 180.119 169.185 179.617 168.683C178.783 167.849 177.902 167.058 176.977 166.328C175.144 164.882 173.13 163.691 171.037 162.665C168.944 161.639 166.79 160.744 164.825 159.476C163.581 158.674 162.47 157.665 161.456 156.573C160.818 163.46 157.493 169.86 152.499 174.668C147.311 179.661 140.141 182.404 133.128 183.571C125.975 184.761 118.509 184.324 111.666 181.837C108.137 180.554 104.753 178.722 101.735 176.423C101.702 176.623 101.662 176.821 101.584 177.007C101.478 177.256 101.35 177.469 101.202 177.688L100.939 178.073C100.773 178.315 100.604 178.555 100.416 178.779C99.9596 179.323 99.3134 179.561 98.6172 179.558C97.2843 179.554 96.2749 178.246 96.6336 176.953C96.8591 176.141 97.3414 175.652 98.0943 175.333C98.3323 175.233 98.5749 175.149 98.8188 175.066L99.002 175.004C99.2485 174.919 99.4931 174.839 99.7469 174.792C98.3179 173.53 96.992 172.158 95.8046 170.677C92.0806 166.034 88.4075 159.53 89.6525 153.363C89.6741 153.258 89.7693 153.191 89.872 153.174C89.9443 152.741 90.1746 152.322 90.49 152.041C90.2777 151.985 90.0636 151.942 89.8486 151.912ZM128.519 258.538C129.256 258.127 130.018 259.102 129.419 259.704L128.524 260.6C127.693 261.435 126.885 262.279 126.174 263.23L126.002 263.463C125.042 264.769 124.019 266.282 122.447 266.77C120.545 267.361 118.717 265.043 119.819 263.35C120.781 261.871 122.633 261.313 124.23 260.701C125.741 260.122 127.106 259.323 128.519 258.538ZM67.1664 251.71C67.5997 251.143 68.7296 251.442 68.4336 252.245C67.4721 254.853 67.0802 258.408 64.6519 260.141C63.8685 260.699 62.6379 260.443 61.9929 259.797C61.26 259.064 61.2307 258.032 61.6498 257.137C62.161 256.046 63.4183 255.255 64.2997 254.424L64.3788 254.348C65.3269 253.427 66.3524 252.776 67.1664 251.71ZM168.657 254.712C169.43 254.378 171.446 253.73 172.043 254.497C172.071 254.525 172.095 254.556 172.114 254.59C172.261 254.845 172.282 255.204 172.114 255.456C171.418 256.503 170.693 257.284 169.703 258.029L169.592 258.112C168.515 258.904 167.503 259.835 166.19 260.192C164.37 260.688 163.099 258.408 164.377 257.078C165.407 256.005 166.979 255.449 168.343 254.851L168.657 254.712ZM95.5826 239.812C95.2782 239.261 95.9001 238.586 96.4634 238.93C98.0701 239.913 99.9417 240.65 101.746 241.179C102.477 241.394 103.136 242.134 103.081 242.933L103.073 243.054C103.051 243.337 103.012 243.617 102.833 243.852C102.205 244.674 101.305 244.991 100.345 244.504C98.2053 243.419 96.7406 241.905 95.5826 239.812ZM142.543 238.145C142.504 237.914 142.673 237.735 142.908 237.78C144.266 238.037 145.52 238.693 146.686 239.447C147.311 239.852 147.914 240.296 148.538 240.704C149.309 241.209 149.597 241.625 149.711 242.551C149.787 243.162 149.216 243.72 148.693 243.888C147.268 244.348 145.635 242.84 144.67 241.859L144.627 241.815C143.616 240.785 142.782 239.566 142.543 238.145ZM183.324 236.544C183.014 235.708 184.081 235.015 184.779 235.425C185.435 235.812 186.148 236.132 186.768 236.575C187.337 236.983 187.856 237.465 188.402 237.907L188.672 238.12C189.674 238.926 191.327 240.917 189.895 242.073C188.532 243.172 186.725 241.768 185.81 240.741L185.747 240.669C185.22 240.061 184.572 239.4 184.19 238.69C183.83 238.021 183.587 237.254 183.324 236.544ZM169.885 171.818C168.178 172.15 167.482 174.257 166.764 175.631C165.067 178.873 163.507 182.175 161.941 185.481C161.458 186.497 160.989 187.522 160.515 188.545C160.486 188.625 160.449 188.704 160.405 188.782C159.434 190.873 158.434 192.95 157.266 194.935C158.335 194.734 159.41 194.563 160.489 194.429C160.435 193.413 161.13 192.053 161.475 191.197L161.503 191.125C161.932 190.028 162.382 188.301 163.487 187.732C163.855 187.543 164.248 187.78 164.276 188.186C164.36 189.392 163.18 190.774 162.603 191.798C162.255 192.418 161.915 193.04 161.583 193.669C161.459 193.905 161.355 194.136 161.228 194.344C161.785 194.283 162.342 194.23 162.9 194.191L163.264 194.166C165.335 194.029 167.535 193.99 169.406 195.012C171.142 195.959 172.029 197.982 171.075 199.824C169.887 202.119 167.271 202.423 164.97 202.609C162.096 202.84 159.216 203.259 156.363 203.668C153.411 204.09 150.632 205.178 147.725 205.738C147.454 205.79 147.286 205.436 147.534 205.285C149.827 203.888 152.616 203.12 155.18 202.337L155.387 202.273C156.778 201.846 158.137 201.358 159.576 201.115C160.972 200.88 162.378 200.69 163.787 200.545L163.923 200.532C165.474 200.402 169.431 200.446 169.264 198.149C169.153 196.628 166.683 196.366 165.555 196.348C160.384 196.265 155.177 197.638 150.263 199.109L149.166 199.438C147.154 200.044 145.139 200.667 143.164 201.377C140.927 202.181 139.165 203.435 137.535 205.152C135.728 207.056 133.978 209.002 132.104 210.842C130.922 212.001 129.726 213.14 128.519 214.27C128.246 214.623 128.028 215.007 127.877 215.505C127.622 216.347 127.681 217.129 127.777 217.993C128.02 220.177 128.074 222.382 128.378 224.558C128.661 226.574 129.055 228.665 129.892 230.535C130.223 231.275 130.655 232.003 131.146 232.653L131.542 233.169C131.715 233.393 131.908 233.638 132.111 233.868C132.409 233.505 132.84 233.268 133.341 233.328C134.406 233.453 135.242 233.423 136.287 233.178C137.095 232.989 137.897 232.767 138.702 232.562C140.282 232.159 141.877 231.792 143.441 231.329L143.709 231.248C144.875 230.89 146.041 230.442 147.011 229.689C148.138 228.815 148.485 227.553 149.32 226.461C151.102 224.131 154.955 224.18 157.563 223.542C159.78 223 161.913 222.144 163.447 220.535L163.536 220.439C163.468 220.152 163.579 219.828 163.845 219.679L163.903 219.647C164.007 219.589 164.119 219.565 164.229 219.567C164.372 219.358 164.509 219.142 164.634 218.912C164.736 218.722 164.993 218.862 164.959 219.049C164.939 219.161 164.912 219.27 164.885 219.379C166.371 218.997 168.003 219.07 169.512 219.071L171.47 219.064C171.808 219.06 172.313 219.043 172.358 219.022L172.404 219.002C172.526 218.949 172.353 219.036 172.438 218.923C172.532 218.798 172.624 218.672 172.715 218.544C173.04 218.09 173.347 217.622 173.648 217.15C170.369 217.986 166.973 218.506 163.625 218.939C160.033 219.405 156.394 219.728 152.771 219.731C151.772 219.732 151.781 218.223 152.771 218.186C156.608 218.039 160.425 217.836 164.236 217.344C166.207 217.089 168.17 216.77 170.121 216.396C170.875 216.252 171.627 216.099 172.376 215.938L172.938 215.815C173.291 215.737 174.287 215.625 174.773 215.299C174.869 215.135 174.964 214.971 175.059 214.807C175.012 214.231 173.549 214.308 173.206 214.307C172.233 214.305 171.26 214.313 170.287 214.316C168.341 214.321 166.395 214.304 164.449 214.289C160.56 214.257 156.658 214.121 152.773 214.287C151.829 214.328 151.334 212.815 152.266 212.417C156.381 210.659 160.949 210.277 165.343 209.737C167.654 209.453 169.966 209.125 172.225 208.55L172.783 208.408C174.202 208.044 175.769 207.6 176.964 206.733C175.168 206.006 172.936 206.089 171.074 205.987L170.931 205.978C168.325 205.818 165.713 205.736 163.101 205.732C157.758 205.725 152.412 205.914 147.074 206.168C146.94 206.174 146.913 205.962 147.043 205.934C152.529 204.737 158.105 204.16 163.72 204.071C166.335 204.029 168.951 204.066 171.563 204.182L172.522 204.226C174.75 204.322 177.221 204.348 179.085 205.694C179.369 205.899 179.519 206.161 179.542 206.438C182.042 201.454 184.35 196.365 186.668 191.31C188.47 187.38 190.205 183.417 192.073 179.517L192.677 178.256C193.487 176.572 194.316 174.889 195.237 173.266C191.793 172.806 188.33 172.486 184.865 172.241C181.707 172.018 171.405 171.524 169.885 171.818ZM168.36 225.839C168.753 225.62 169.354 225.798 169.451 226.283C169.523 226.643 169.646 227.044 169.646 227.413C169.646 227.855 169.488 228.335 169.404 228.768C169.21 229.762 168.972 230.571 168.466 231.457C168.15 232.011 167.511 232.387 166.869 232.373C166.361 232.361 165.911 232.225 165.562 231.831C165.144 231.359 164.857 230.666 165.086 230.031C165.687 228.368 166.79 226.711 168.36 225.839ZM85.0578 224.179C85.9768 222.569 88.1552 221.13 90.0562 221.272C92.9106 221.486 93.4931 225.331 90.7295 226.248C89.0776 226.797 86.805 226.234 85.3599 225.331C84.9703 225.088 84.8275 224.583 85.0578 224.179ZM55.7214 218.678C55.5126 218.374 55.8576 218.028 56.1686 218.096C56.8584 218.247 57.6021 218.313 58.2777 218.519C58.9696 218.73 59.6393 219.079 60.3247 219.319C61.7605 219.822 63.294 220.075 64.6836 220.682C65.239 220.925 65.6759 221.73 65.6245 222.323L65.6114 222.462C65.5807 222.756 65.5297 223.013 65.3651 223.282C64.9229 224.005 64.0468 224.378 63.2199 224.155C61.6859 223.743 60.1869 222.684 58.879 221.804L58.6373 221.644C58.0658 221.267 57.4514 220.873 56.9909 220.389C56.5102 219.882 56.1152 219.251 55.7214 218.678ZM108.453 212.821C108.277 212.185 109.068 211.765 109.529 212.195C110.451 213.054 111.414 213.85 112.317 214.731L112.377 214.791C113.024 215.441 113.964 216.693 113.123 217.533C112.046 218.611 110.546 217.012 109.969 216.179C109.236 215.122 108.796 214.057 108.453 212.821ZM178.975 207.562C177.608 209.01 175.502 209.676 173.647 210.228C171.449 210.882 169.183 211.272 166.915 211.594C164.724 211.904 162.549 212.181 160.392 212.537C162.024 212.558 163.655 212.57 165.283 212.599C167.16 212.633 169.036 212.674 170.912 212.728C172.279 212.768 173.882 212.58 175.181 213.088C175.415 213.18 175.634 213.307 175.825 213.461C176.917 211.519 177.963 209.55 178.975 207.562ZM94.6499 194.015C96.0768 193.562 97.4185 192.96 98.9312 193.117C99.3333 193.158 99.6212 193.549 99.4017 193.936C98.6848 195.198 97.5192 195.911 96.3717 196.755L96.2705 196.83C95.0145 197.764 93.666 198.616 92.3002 199.383C89.9485 200.703 87.8411 196.924 90.216 195.816C91.645 195.148 93.1461 194.493 94.6499 194.015ZM120.34 190.735C122.523 190.879 124.705 190.976 126.891 191.065C129.422 191.167 128.571 195.065 126.456 194.276C124.367 193.497 122.277 192.727 120.169 192C119.527 191.779 119.579 190.724 120.299 190.733L120.34 190.735ZM64.3484 183.801C64.9142 183.762 65.4848 183.885 66.0515 183.94L66.6544 183.999C67.8972 184.122 69.0626 184.275 70.2479 184.781C72.4349 185.715 71.2603 189.232 69.0648 189.151C67.442 189.091 66.0544 188.394 64.6841 187.583C63.4863 186.873 62.7519 185.985 61.9429 184.871C61.6751 184.502 62.0484 184.089 62.4132 184.051C63.0559 183.986 63.7056 183.846 64.3484 183.801ZM173.979 176.619C173.617 178.878 172.719 180.995 171.365 182.839C170.685 183.765 169.491 183.8 168.816 182.839C167.863 181.479 168.451 179.92 169.169 178.614L169.382 178.231C169.703 177.658 170.198 176.821 170.762 176.244L170.772 176.184C171.074 173.819 174.352 174.291 173.979 176.619ZM85.6829 162.121C86.2271 161.63 87.2294 161.778 87.406 162.576C87.6532 163.693 87.8036 164.952 87.6417 166.087C87.5541 166.702 87.5211 167.392 87.2794 167.965C87.0196 168.581 86.5197 169.055 86.0488 169.518C85.1086 170.443 83.1267 170.138 82.8749 168.68L82.8429 168.502C82.7163 167.812 82.5543 167.075 82.7418 166.392C82.8834 165.876 83.1998 165.35 83.4616 164.872L83.5167 164.77C84.0411 163.793 84.8585 162.863 85.6829 162.121ZM162.181 164.498L162.378 164.5C163.897 164.53 166.674 164.9 166.689 166.778C166.692 167.221 166.365 167.679 165.926 167.781C165.018 167.992 164.431 167.455 163.783 166.913C163.254 166.469 162.637 166.115 161.997 165.86C161.304 165.585 161.35 164.497 162.181 164.498Z" fill="black"/>
<path fill-rule="evenodd" clip-rule="evenodd" d="M166.991 109.396C165.666 99.8335 162.636 90.5493 162.201 80.8437C161.942 76.6905 161.683 72.537 161.425 68.3833C161.327 65.7892 157.958 64.914 156.671 67.2122C153.747 63.9676 148.51 64.4455 144.515 64.5439C120.995 65.3777 98.6438 81.2861 90.57 103.467C90.3759 103.996 90.4346 104.559 90.6541 105.062C86.8908 117.617 100.2 125.7 109.277 131.298C112.959 135.191 117.287 138.425 122.174 140.64C127.796 143.285 134.054 144.761 140.266 144.902C141.629 144.933 142.448 143.83 142.547 142.689C144.529 142.227 147.92 142.76 148.968 140.729C160.918 135.536 168.705 122.375 166.991 109.396V109.396Z" fill="white"/>
<path fill-rule="evenodd" clip-rule="evenodd" d="M161.399 75.4847C161.365 75.1746 161.813 75.1651 161.905 75.4162C162.662 77.4805 163.448 79.5306 164.048 81.647C164.626 83.6868 165.043 85.7728 165.465 87.8499C166.164 91.2971 166.766 94.7696 167.264 98.2532C168.328 97.4222 169.719 97.3465 171.029 97.9933C171.644 98.2966 171.879 99.0986 171.731 99.7209C171.613 100.22 171.468 100.717 171.295 101.203C171.666 101.532 171.981 101.937 172.21 102.403C172.814 103.629 172.619 104.915 172.078 106.085C172.119 106.154 172.16 106.225 172.199 106.299C172.982 107.82 172.563 109.183 171.991 110.668C171.562 111.778 171.801 113.029 170.877 113.868C170.556 114.9 170.073 115.861 169.372 116.728C169.212 117.02 168.974 117.255 168.69 117.428C168.619 119.057 168.447 120.682 168.124 122.292C166.868 128.543 162.881 134.113 157.947 138.042C153.118 141.886 147.447 144.183 141.328 144.926C138.357 145.287 135.381 145.173 132.434 144.658L132.067 144.593C129.348 144.099 126.057 143.282 124.177 141.23C123.188 140.151 123.766 137.776 125.514 138C126.44 138.119 127.247 138.267 128.119 138.609C128.799 138.876 129.48 139.133 130.178 139.351C131.516 139.767 132.899 140.092 134.287 140.272C137.18 140.646 140.187 140.547 143.046 139.982C148.247 138.956 153.299 136.589 157.245 133.025C161.832 128.881 164.521 123.519 164.917 117.335C165.358 110.447 164.563 103.394 163.903 96.5415C163.559 92.9771 163.123 89.4199 162.599 85.8776C162.086 82.4166 161.778 78.9603 161.399 75.4847ZM120.803 53.2433L121.025 53.2091C129.856 51.8647 139.147 51.9601 147.448 55.6059C149.039 56.3052 150.596 57.1485 152.062 58.1271C153.112 58.0174 154.169 57.9284 155.206 57.9138C156.512 57.8967 157.785 58.5751 157.946 59.8961C159.169 60.0482 160.296 60.4984 161.016 61.399C161.297 61.7496 161.485 62.1554 161.58 62.5781C162.332 62.7558 163.069 63.0283 163.769 63.3876C164.618 63.8251 165.108 65.0424 164.808 65.943C164.739 66.1474 164.66 66.3466 164.572 66.5414L164.504 66.6867L164.544 66.7417C165.222 67.8323 164.751 69.2631 163.712 69.9141C162.932 70.4023 162.062 70.7912 161.166 70.9793C161.24 71.3386 161.307 71.7 161.362 72.0656C161.383 72.2138 161.193 72.3194 161.109 72.1734C161.109 72.1734 161.43 73.1731 161.914 74.2744C162.104 74.7075 161.495 75.0921 161.263 74.6546C160.646 73.488 160.264 72.2918 159.704 71.0892C159.186 71.0554 158.671 70.937 158.174 70.7109C157.849 70.5629 157.602 70.3135 157.424 70.0155C157.414 70.0282 157.407 70.043 157.397 70.0578C155.73 72.203 152.472 72.9554 149.954 73.6338C147.25 74.3632 144.482 74.8132 141.704 75.145C136.853 75.722 131.964 75.8298 127.091 76.054C126.768 76.0686 126.446 76.0849 126.123 76.1005C124.144 77.8378 121.594 78.9174 118.978 79.2456C117.653 79.4117 116.085 79.3695 114.599 79.0309C114.061 79.5804 113.382 79.9874 112.64 80.1965C112.506 82.9649 110.963 85.5861 108.63 87.114L108.672 87.2785C109.251 89.6426 109.244 92.2267 107.166 93.8698C106.884 94.0921 106.577 94.2828 106.254 94.4408L106.325 94.6041C107.398 97.1137 107.741 99.8859 105.723 101.968C104.905 102.812 103.469 102.612 102.855 101.644L102.825 101.595C102.791 101.537 102.754 101.482 102.719 101.425C102.664 101.537 102.581 101.631 102.457 101.684C101.69 102.014 101.383 101.771 100.684 101.431C100.038 101.114 99.3552 100.877 98.6582 100.693C98.0897 100.545 97.5235 100.439 96.953 100.378C93.3488 101.756 91.0207 105.983 91.5742 109.95C91.8742 112.11 93.0596 114.249 95.1256 115.145C96.0298 115.538 97.0925 115.703 98.0707 115.57C99.3953 115.39 100.414 114.556 101.785 115.033C102.326 115.221 102.664 115.646 102.693 116.227C102.742 117.14 102.419 117.825 101.873 118.332C102.835 119.135 103.61 120.251 104.445 121.141C105.488 122.255 106.547 123.369 107.675 124.396C108.74 125.37 109.872 126.275 111.072 127.078L111.198 127.161C112.702 128.141 114.596 129.01 114.668 131.058C114.691 131.675 114.317 132.241 113.81 132.556C111.915 133.731 109.853 132.188 108.368 131.058C107.77 130.603 107.189 130.132 106.629 129.644C106.255 129.673 105.847 129.612 105.423 129.424C105.15 129.306 104.884 129.166 104.622 129.018C103.771 129.232 102.968 129.044 102.307 128.598C101.354 128.832 100.344 128.86 99.4861 128.672C98.7026 128.498 98.003 128.128 97.4263 127.632C96.2221 128.016 94.8847 127.945 93.6974 127.215C92.9854 126.778 92.4298 126.154 92.1277 125.425C91.9739 125.184 91.8755 124.903 91.868 124.594L91.8678 124.476C90.8326 124.499 89.7953 124.144 88.9946 123.325C88.2594 122.572 87.9004 121.634 87.8601 120.68C86.8185 120.385 85.8657 119.778 85.1411 118.842C83.9411 117.29 83.7807 115.373 84.3976 113.661C84.3573 113.571 84.3214 113.478 84.2897 113.385C83.3326 112.034 82.7009 110.405 82.7516 108.771C82.758 108.517 82.7918 108.268 82.8425 108.021C81.9002 107.52 81.2073 106.64 81.1333 105.522C81.0763 104.645 81.3911 103.787 81.9594 103.138C81.6826 102.477 81.5601 101.758 81.6446 101.04C81.7312 100.302 81.9911 99.6616 82.3716 99.1271C82.3629 98.9327 82.3735 98.7359 82.4052 98.5351C82.3671 98.3386 82.3354 98.1357 82.3187 97.9288C82.139 95.6629 83.7023 93.6804 85.6059 92.6342C86.1066 92.3595 86.6474 92.1354 87.1883 91.9452C87.5812 91.8057 88.1728 91.7592 88.5192 91.5035C88.5045 91.4929 88.6481 91.3071 88.6735 91.2076C88.7009 91.085 88.7305 90.9645 88.7455 90.8399C88.8023 90.3157 88.7601 89.7768 88.7495 89.2505C88.703 86.8622 88.777 84.4634 89.0284 82.0878C89.4953 77.6833 90.6469 73.3739 92.8904 69.5252C94.7728 66.3 97.3502 63.5757 100.306 61.3163C106.193 56.8182 113.54 54.3725 120.803 53.2433ZM93.5197 108.018C92.7533 106.176 96.3612 106.158 97.3151 106.245L97.3432 106.248C99.4903 106.462 102.847 107.495 103.726 109.662C104.089 110.559 103.013 111.532 102.151 111.237C101.308 110.948 100.835 110.328 100.159 109.785C99.9813 109.643 99.7962 109.51 99.6078 109.382C99.707 109.698 99.8659 109.99 100.086 110.208L100.138 110.257C101.177 111.191 99.3192 112.658 98.6296 111.422C98.2624 110.764 98.1154 110.042 98.2299 109.295C98.2639 109.074 98.3231 108.873 98.409 108.68C98.3406 108.646 98.2732 108.609 98.2039 108.576L98.0802 108.518C97.2532 108.143 93.7245 106.669 93.7531 107.987C93.7563 108.133 93.5672 108.133 93.5197 108.018Z" fill="black"/>
<path fill-rule="evenodd" clip-rule="evenodd" d="M143.152 128.274C141.732 127.694 140.465 126.727 139.538 125.492C139.216 125.063 139.133 124.61 139.2 124.195C139.276 123.729 139.552 123.306 139.928 123.023C140.305 122.738 140.777 122.598 141.233 122.67C141.63 122.732 142.024 122.949 142.337 123.399L142.402 123.489C142.953 124.235 143.67 124.846 144.488 125.24C145.276 125.62 146.158 125.798 147.07 125.695C148.808 125.498 150.005 124.558 151.278 123.282C151.436 123.121 151.594 122.954 151.752 122.786C151.852 122.632 151.991 122.534 152.146 122.482C152.317 122.425 152.511 122.428 152.689 122.49C152.86 122.55 153.013 122.663 153.116 122.814C153.213 122.958 153.269 123.135 153.251 123.338C153.134 124.661 152.443 125.842 151.461 126.769C150.37 127.798 148.924 128.511 147.563 128.76C146.064 129.036 144.536 128.839 143.152 128.274V128.274ZM148.271 107.866C149.866 108.836 152.297 111.098 150.581 113.503C148.56 115.624 145.652 113.192 144.219 112.093C142.89 111.241 141.396 113.432 142.629 114.428C152.987 122.099 157.19 108.12 149.078 106.725C148.184 106.572 147.853 107.566 148.271 107.866ZM129.711 98.9426C129.887 96.7538 133.219 96.2568 133.551 98.4227C133.847 100.363 133.498 102.145 132.624 103.892C131.79 105.561 129.692 104.782 129.533 103.263C129.32 101.226 129.601 100.304 129.711 98.9426ZM155.076 97.9736C155.541 97.3649 156.212 96.9494 157.015 97.1842C159.526 97.9182 158.786 101.484 157.904 103.22C157.425 104.163 155.876 104.402 155.176 103.572C154.036 102.218 153.489 99.5154 154.94 98.1822C154.979 98.1133 155.023 98.0438 155.076 97.9736ZM132.589 89.3651L132.986 89.2957C134.213 89.0834 135.738 88.8794 136.606 89.8662C137.067 90.3895 137.225 91.3622 136.606 91.8631C135.518 92.7444 134.314 92.4028 133.01 92.4775C131.935 92.5392 130.902 92.7171 129.867 93.0132C127.595 93.6627 125.744 94.8484 123.804 96.1503C123.55 96.3211 123.29 95.9954 123.411 95.7572C124.531 93.5627 126.701 91.7601 128.875 90.6613C130.036 90.0748 131.305 89.5883 132.589 89.3651ZM152.787 88.3821L153.091 88.4442C156.395 89.1351 160.687 90.515 162.251 93.7613C162.311 94.2203 162.248 94.3187 162.197 94.3829L162.18 94.4043C162.137 94.4592 162.104 94.5349 161.905 94.5974C161.85 94.5842 161.794 94.5703 161.737 94.5555C161.02 94.3675 160.453 94.1085 159.904 93.8398L159.308 93.5462C158.617 93.2073 157.92 92.8807 157.181 92.6396C155.605 92.1252 153.983 91.7628 152.337 91.5693C151.98 91.5274 151.636 91.4069 151.365 91.2004C151.108 91.0044 150.911 90.733 150.821 90.3722C150.705 89.9053 150.739 89.5518 150.989 89.1306C151.177 88.8143 151.447 88.5951 151.756 88.4692C152.071 88.3408 152.43 88.3106 152.787 88.3821Z" fill="black"/>
<path fill-rule="evenodd" clip-rule="evenodd" d="M167.179 109.154C164.614 111.805 160.332 112.566 156.919 111.144C148.156 107.481 152.445 96.058 159.203 92.9903C160.047 92.7797 161.175 92.2803 162.203 92.167C162.296 92.1214 162.499 92.2535 162.744 92.1286C170.196 92.9609 171.892 104.533 167.179 109.154M138.916 109.832C136.039 113.65 130.69 114.827 126.321 113.053C117.688 109.652 120.75 99.5218 126.656 95.5505C139.133 90.8605 144.285 102.794 138.916 109.832M120.202 101.375C120.194 101.371 120.185 101.369 120.177 101.365C120.223 101.345 120.269 101.325 120.314 101.304C120.299 101.343 120.283 101.381 120.269 101.42C120.246 101.405 120.227 101.387 120.202 101.375M173.118 97.2483C172.413 97.2498 171.396 97.3656 170.813 97.8545C169.375 93.0034 164.067 88.5136 159.452 91.7875C155.817 92.9569 153.12 95.5503 151.587 98.9983C148.823 97.3536 144.476 98.0559 142.08 100.231C140.51 95.042 136.647 93.2251 132.048 92.9569C127.03 92.1345 122.027 97.0106 120.466 100.922C119.168 100.774 117.229 100.361 116.008 101.163C108.084 99.0837 94.2304 97.9375 92.6195 99.0926C91.4715 99.5332 90.8415 102.244 92.445 102.39C93.8423 102.192 92.2819 100.404 93.6904 100.209C101.195 99.7435 108.481 101.256 115.906 101.89C116.569 102.782 118.711 103.081 119.854 102.722C118.054 109.358 121.939 113.872 127.761 115.224C136.775 117.296 144.618 109.229 142.26 100.838C144.991 99.4793 148.132 99.5377 151.107 100.254C146.136 118.554 175.599 117.733 170.997 98.4816C174.059 100.005 174.724 97.5558 173.118 97.2483" fill="black"/>
</svg>
