<svg width="240" height="324" viewBox="0 0 240 324" fill="none" xmlns="http://www.w3.org/2000/svg">
<path fill-rule="evenodd" clip-rule="evenodd" d="M200.256 272.088C199.919 265.825 199.505 259.567 199.009 253.314C198.022 240.859 196.729 228.395 194.577 216.083C192.454 203.935 189.482 192.123 185.202 180.548C183.216 175.177 181.065 170.596 177.945 165.768C174.995 161.204 171.23 158.111 166.54 155.355C162.314 152.873 157.405 148.566 153.352 145.785C151.66 144.625 148.179 144.702 147.019 142.986C145.499 140.737 146.484 137.296 144.953 135.056C143.202 132.494 140.749 130.503 137.983 129.058C134.964 127.013 131.409 126.087 127.843 126.214C122.586 125.895 117.292 127.57 113.916 131.85C112.232 133.987 111.249 136.451 111.113 139.181C111.077 139.89 111.305 140.45 111.68 140.854C111.458 141.152 111.236 141.45 111.016 141.749C110.326 140.726 108.712 140.183 107.637 140.955C104.119 143.481 100.317 145.49 96.3038 146.962C95.3649 146.518 94.2283 146.723 93.424 147.449C93.0976 147.743 92.7513 147.995 92.3894 148.209C90.9014 148.612 89.3905 148.949 87.8571 149.21C87.3771 149.291 86.9704 149.564 86.6619 149.931C86.205 149.504 85.5769 149.299 84.8755 149.566C76.7765 152.655 69.1282 157.453 63.3147 163.953C56.874 171.154 53.4912 180.112 50.9159 189.29C48.128 199.225 46.3464 209.407 44.85 219.607C43.3337 229.941 41.8402 240.316 40.797 250.71C40.2099 256.559 39.9859 262.462 40.2517 268.337C40.3842 271.273 40.6523 274.2 41.0793 277.108C41.1788 277.788 41.2829 278.572 41.4507 279.354C40.9409 279.255 40.3337 279.686 40.437 280.376C41.1566 285.182 46.9652 286.582 50.9712 287.136C57.5241 288.041 64.111 288.543 70.7269 288.582C77.2282 288.619 83.7285 288.202 90.2163 287.828C96.8679 287.445 103.519 287.06 110.171 286.67C136.82 285.107 163.47 283.561 190.119 281.997C192.554 281.854 195.334 281.661 197.42 280.248C200.278 278.311 200.425 275.234 200.256 272.088V272.088Z" fill="white"/>
<path fill-rule="evenodd" clip-rule="evenodd" d="M70.3428 218.33C70.2503 218.156 70.4649 218.001 70.6073 218.126C73.8424 220.966 75.5362 225.527 75.8913 229.743C76.2676 234.214 75.7341 238.842 75.5303 243.311C75.3034 248.289 75.0995 253.268 74.8225 258.244C74.5413 263.292 74.2384 268.338 73.9787 273.387L73.3946 284.744V284.744C73.3324 285.955 73.467 287.443 73.0026 288.573C72.2831 290.324 70.1456 290.053 69.6964 288.59L69.6824 288.541L69.6414 288.573C69.245 287.254 69.5417 285.688 69.6088 284.324L70.2209 271.915V271.915C70.6533 263.144 71.0389 254.372 71.5034 245.603L71.6613 242.68C71.8785 238.745 72.0449 234.82 72.1786 230.886L72.222 229.575C72.349 225.625 72.2482 221.896 70.3428 218.33ZM148.767 145.517C150.57 145.345 151.931 145.943 153.567 146.573C154.28 146.847 154.955 147.164 155.639 147.492C156.495 147.903 157.045 148.629 157.573 149.397L157.854 149.81C160.05 153.028 161.526 156.74 163.193 160.243C165.142 164.341 167.111 168.43 169.018 172.547L169.959 174.576C170.43 175.59 170.899 176.605 171.361 177.623L172.16 179.395C172.962 181.192 173.682 183.093 172.538 184.947C171.475 186.671 169.59 188.005 168.097 189.338C166.852 190.45 165.606 191.562 164.361 192.674C166.936 195.254 168.665 198.502 169.681 201.985C171.125 201.384 172.887 201.268 174.38 201.008C176.469 200.644 176.725 203.808 174.753 203.77C173.297 203.741 171.588 203.89 170.094 203.583C170.353 204.728 170.542 205.89 170.662 207.055C171.29 213.162 169.918 219.304 168.487 225.213L168.369 225.698C166.815 232.094 165.342 238.506 164.024 244.954C162.703 251.417 161.514 257.906 160.459 264.417C159.386 271.045 158.626 277.708 157.809 284.371C157.686 285.379 157.052 286.243 155.938 286.243C155.01 286.243 153.949 285.377 154.066 284.371C154.909 277.116 156.103 269.898 157.291 262.693C159.335 250.284 161.909 237.983 164.869 225.763L165.387 223.634C166.719 218.115 167.927 212.428 167.259 206.735C166.715 202.099 164.777 197.156 160.948 194.277L160.831 194.19C159.936 193.534 159.592 192.279 160.473 191.415C161.034 190.865 161.595 190.315 162.157 189.766L165.528 186.474L166.208 185.809C166.774 185.256 167.344 184.705 167.93 184.172C168.285 183.85 169.247 183.235 169.318 182.704C169.363 182.358 168.954 181.75 168.787 181.431L168.027 179.894V179.894C167.595 179.018 167.176 178.136 166.754 177.255C165.88 175.43 164.993 173.61 164.138 171.776L158.999 160.762V160.762C157.55 157.655 156.259 154.374 154.363 151.501L153.99 150.942C153.678 150.47 153.402 150.016 153.205 149.44C153.016 148.885 152.778 148.276 152.428 147.802C151.607 146.691 150.038 146.061 148.725 145.828C148.536 145.794 148.605 145.532 148.767 145.517ZM109.249 142.624C109.363 142.624 109.38 142.787 109.275 142.818C107.692 143.295 106.178 144.064 104.944 145.173C104.353 145.704 103.758 146.307 103.394 147.021C103.254 147.295 103.177 147.584 103.12 147.883L103.102 147.984C103.008 148.525 102.873 148.826 102.598 149.259L102.551 149.333C100.982 151.757 99.8825 154.449 98.8771 157.145L96.6875 163.023V163.023L94.4994 168.902C93.7944 170.796 93.089 172.69 92.3838 174.584C91.9942 175.63 91.5936 176.671 91.1933 177.713C91.02 178.164 90.8337 178.612 90.6753 179.069C90.6535 179.131 90.5842 179.507 90.5322 179.598L90.55 179.629V179.629C90.9913 180.372 92.1683 180.993 92.8355 181.532L95.1328 183.39V183.39C96.7707 184.715 98.4507 186.003 100.039 187.387C101.038 188.256 100.417 189.812 99.3036 190.175C97.4386 190.783 95.6113 191.511 93.7741 192.198C93.032 192.476 92.2593 192.718 91.5258 193.024L91.0793 193.217C90.9049 193.296 90.9888 193.295 90.9957 193.617C91.0027 193.954 91.0984 194.306 91.1534 194.638C91.7722 198.381 92.4281 202.118 93.1205 205.848C95.5695 219.039 98.4953 232.133 101.832 245.126C103.518 251.688 105.325 258.218 107.048 264.77C108.766 271.304 111.027 277.745 113.186 284.145C113.795 285.95 110.934 286.727 110.34 284.93C107.852 277.403 105.576 269.81 103.226 262.24C99.0497 248.79 95.759 235.048 92.8486 221.272C91.406 214.444 90.0867 207.591 88.8917 200.716C88.6655 199.414 88.4436 198.112 88.2263 196.809L87.9096 194.892C87.6925 193.526 87.5689 192.102 88.6304 191.021C89.6669 189.966 91.4464 189.592 92.8104 189.097L92.9094 189.06C93.7773 188.736 94.6515 188.424 95.5224 188.102C94.2395 187.092 92.9726 186.059 91.6929 185.05C90.6607 184.235 89.6122 183.437 88.5947 182.604C87.7557 181.917 87.0717 181.034 86.9842 179.917C86.895 178.775 87.3843 177.715 87.7789 176.667L87.8168 176.566C88.2043 175.52 88.5928 174.474 88.9912 173.432L91.4567 166.982V166.982C93.0235 162.883 94.5241 158.752 96.172 154.685C96.824 153.075 97.5345 151.491 98.3741 149.97C98.7788 149.236 99.213 148.518 99.6848 147.826C100.213 147.05 100.693 146.671 101.512 146.243C102.822 145.558 103.85 144.409 105.165 143.703C106.456 143.01 107.784 142.64 109.249 142.624ZM113.501 135.311C113.551 135.225 113.683 135.264 113.685 135.362C113.719 137.399 113.236 139.48 112.938 141.494C112.639 143.516 112.543 145.649 112.111 147.649C112.102 147.742 112.084 147.834 112.058 147.924L112.037 147.993V147.993C111.855 148.553 111.38 149.028 110.798 149.176C110.981 150.192 111.154 151.209 111.299 152.231C111.548 153.989 111.775 155.749 111.999 157.509L112.267 159.622C112.52 161.614 112.766 163.606 113.009 165.598C113.627 165.857 114.259 166.071 114.905 166.255C116.393 166.682 117.918 166.855 119.454 167.006C122.581 167.312 125.733 167.455 128.872 167.629L129.545 167.667C133.074 167.869 136.622 167.905 140.142 167.543C141.888 167.363 143.619 167.062 145.322 166.635C146.187 166.418 147.027 166.093 147.89 165.881C148.177 165.811 148.433 165.648 148.719 165.475C148.847 165.314 149.026 165.192 149.258 165.145L149.321 165.134V165.134L149.384 165.125L149.405 165.115L149.404 165.122C149.58 165.098 149.748 165.098 149.906 165.12C149.969 163.566 150.038 162.013 150.123 160.46C150.353 156.289 150.987 151.938 150.14 147.803C150.112 147.664 150.301 147.615 150.35 147.745C152.011 152.122 151.825 156.908 151.908 161.515C151.99 166.021 151.941 170.529 151.918 175.036C152.241 175.173 152.529 175.359 152.757 175.621C153.212 176.143 153.343 177.05 152.757 177.554C152.497 177.777 152.209 177.933 151.904 178.04C151.888 181.955 151.86 185.87 151.821 189.785C152.565 190.36 152.635 191.726 151.793 192.293C151.653 204.972 151.422 217.651 151.231 230.327L150.831 256.923V256.923C150.778 260.467 150.69 264.01 150.658 267.553L150.683 267.563V267.563L150.772 267.604C150.921 267.674 151.143 267.787 151.189 267.903C151.201 267.934 151.204 267.954 151.202 267.97C151.447 268.004 151.689 268.12 151.898 268.318C152.415 268.81 152.31 269.55 151.898 270.05L151.788 270.184V270.184C151.531 270.496 151.044 270.616 150.646 270.552C150.65 272.764 150.664 274.976 150.657 277.187C150.655 277.862 150.644 278.538 150.633 279.213L150.605 280.833C150.586 281.757 150.505 282.931 149.558 283.347C148.491 283.815 147.534 283.431 147.101 282.347C146.984 282.053 147.009 281.779 147.052 281.489C147.039 281.052 146.971 280.547 146.979 280.142L147.014 278.453V278.453C147.02 278.193 147.03 277.933 147.038 277.672L147.007 277.676V277.676C143.214 277.86 139.394 277.77 135.595 277.768L133.905 277.77C132.495 277.771 131.082 277.764 129.674 277.71L129.146 277.687C128.092 277.638 126.984 277.622 125.891 277.528C126.03 278.65 126.16 279.773 126.276 280.897C126.386 281.963 125.287 282.868 124.306 282.868C123.141 282.868 122.474 281.952 122.335 280.897C121.677 275.918 121.407 270.893 120.778 265.911C120.215 261.449 119.727 256.977 119.23 252.507L119.064 251.016C117.247 234.747 115.483 218.472 113.796 202.19L113.01 194.578C112.217 186.906 111.419 179.233 110.746 171.55C110.361 167.157 110.006 162.764 109.672 158.367C109.427 155.137 109.273 151.924 109.173 148.7C108.778 148.294 108.58 147.7 108.755 147.087C108.858 146.73 108.977 146.374 109.102 146.019C109.094 145.67 109.086 145.321 109.079 144.972C109.073 144.642 109.408 144.471 109.677 144.526C110.165 143.344 110.702 142.172 111.151 141.001C111.877 139.106 112.475 137.065 113.501 135.311ZM72.9595 155.792C80.548 151.034 89.5809 147.611 98.6281 147.979C98.8338 147.988 98.8917 148.301 98.6781 148.349C93.8524 149.427 88.9736 150.74 84.4049 152.65C79.8229 154.567 75.4662 157.148 71.5858 160.249C64.4264 165.97 58.8616 173.413 55.1974 181.802C53.0511 186.716 51.5466 191.904 50.233 197.094C48.8428 202.587 47.6971 208.139 46.7445 213.725C44.863 224.757 43.7676 235.911 43.1847 247.085C42.5916 258.451 42.8361 269.825 42.4131 281.193C42.34 283.162 39.5259 283.124 39.3829 281.193C38.4246 268.268 38.9555 255.138 39.8418 242.223C40.6387 230.612 42.0303 219.026 44.2712 207.603L44.4664 206.613C46.5613 196.044 49.0882 185.219 54.1526 175.647C58.4764 167.476 65.1516 160.687 72.9595 155.792ZM178.337 206.304C178.377 206.19 178.527 206.192 178.567 206.304C179.432 208.726 179.463 211.46 179.693 214.013L179.711 214.209C179.931 216.539 180.097 218.871 180.252 221.205L180.309 222.08C180.929 231.601 181.703 241.112 182.87 250.583C184.033 260.019 185.606 269.389 187.306 278.74C187.496 279.781 187.035 280.841 185.944 281.141C184.981 281.406 183.746 280.813 183.543 279.778C182.487 274.41 181.633 269.036 180.872 263.622C179.531 254.089 178.531 244.511 177.887 234.905C177.564 230.081 177.366 225.258 177.287 220.423C177.25 218.18 177.308 215.932 177.428 213.691L177.457 213.174C177.588 210.883 177.575 208.488 178.337 206.304ZM96.3388 266.949C96.4402 266.894 96.5657 267.007 96.5015 267.112C95.0321 269.501 93.0443 271.561 91.1231 273.591C89.1145 275.713 87.1557 277.899 85.1066 279.98C83.626 281.483 81.2444 279.058 82.8069 277.679C85.0039 275.741 87.3002 273.898 89.5362 272.003L90.5141 271.174C92.3475 269.624 94.2352 268.089 96.3388 266.949ZM166.129 265.753C166.02 265.544 166.27 265.374 166.44 265.513C167.626 266.477 168.688 267.627 169.832 268.644C170.966 269.652 172.142 270.592 173.349 271.509C174.562 272.43 175.802 273.314 177.074 274.15C178.13 274.844 179.218 275.399 180.323 275.975C180.835 276.041 181.309 276.292 181.689 276.769C182.289 277.523 182.353 278.944 181.521 279.598L181.371 279.715V279.715C180.4 280.479 179.247 280.572 178.291 279.715C177.224 278.759 176.215 277.707 175.19 276.696L174.881 276.395C173.78 275.323 172.705 274.218 171.692 273.062L170.775 272.018C169.073 270.077 167.302 267.985 166.129 265.753ZM160.67 153.835C160.473 153.705 160.594 153.353 160.837 153.437L161.284 153.591C163.149 154.24 165.068 154.959 166.762 155.957C168.581 157.03 170.262 158.307 171.867 159.678C175.189 162.516 178.016 166.005 180.418 169.642C185.239 176.939 188.22 185.297 190.627 193.659C193.193 202.576 195.169 211.684 196.782 220.818C198.421 230.101 199.686 239.467 200.517 248.858C200.926 253.483 201.201 258.111 201.339 262.753C201.41 265.141 201.408 267.527 201.388 269.916C201.383 270.53 201.387 271.144 201.394 271.758L201.418 273.6C201.43 274.765 201.57 275.989 201.293 277.127C200.847 278.959 197.82 278.617 197.919 276.745C197.828 276.122 197.825 275.478 197.848 274.833C197.834 274.75 197.818 274.665 197.801 274.579C197.751 274.331 197.794 274.102 197.891 273.905C197.906 273.596 197.921 273.288 197.926 272.986C197.945 271.756 197.944 270.531 197.91 269.302C197.839 266.709 197.735 264.117 197.631 261.526C197.423 256.348 197.134 251.167 196.714 246.002C195.254 228.022 192.172 209.94 186.994 192.643C184.589 184.61 181.273 176.725 176.519 169.784C174.408 166.702 172.027 163.856 169.387 161.214C166.731 158.556 163.804 155.912 160.67 153.835ZM124.841 269.74L125.2 272.336C125.379 273.635 125.557 274.934 125.726 276.233C126.871 276.076 128.043 276.011 129.146 275.913C131.078 275.742 133.024 275.659 134.961 275.579C138.969 275.413 142.996 275.127 147.007 275.147C147.048 275.147 147.087 275.15 147.126 275.153L147.325 270.03V270.03L144.507 270.025V270.025C142.119 270.022 139.731 270.001 137.344 269.981C135.193 269.962 133.042 269.959 130.892 269.915L129.97 269.893C128.34 269.849 126.54 269.939 124.841 269.74ZM147.561 262.304C147.446 262.318 147.329 262.329 147.205 262.334C146.647 262.358 146.084 262.341 145.525 262.346C144.336 262.356 143.147 262.364 141.957 262.364C139.578 262.364 137.2 262.378 134.821 262.407C132.373 262.437 129.926 262.479 127.477 262.484C126.29 262.486 125.108 262.455 123.922 262.422C124.114 264.108 124.314 265.793 124.535 267.473C126.377 267.225 128.358 267.35 130.158 267.333L130.392 267.33C132.849 267.288 135.308 267.319 137.765 267.322C140.293 267.325 142.821 267.333 145.349 267.354L147.426 267.371V267.371L147.43 267.266V267.266C147.491 265.614 147.53 263.959 147.561 262.304ZM123.008 254.238C123.238 256.228 123.454 258.222 123.675 260.215C123.821 260.192 123.969 260.173 124.12 260.157C125.309 260.032 126.494 259.926 127.687 259.852C130.064 259.705 132.44 259.627 134.821 259.563C137.269 259.497 139.718 259.447 142.167 259.412C143.357 259.396 144.546 259.397 145.735 259.406C146.294 259.409 146.858 259.392 147.415 259.429C147.481 259.434 147.545 259.441 147.608 259.448L147.649 256.456C147.657 255.957 147.664 255.458 147.672 254.96C145.833 255.073 143.964 255.03 142.126 255.03L141.703 255.031C139.394 255.042 137.084 255.01 134.775 254.962C132.394 254.913 130.017 254.835 127.64 254.682C126.676 254.621 125.72 254.539 124.762 254.433L124.283 254.378C123.866 254.329 123.437 254.289 123.008 254.238ZM147.862 245.793C143.433 246.145 139.028 246.292 134.587 246.336L133.921 246.341C129.997 246.371 126.04 246.533 122.107 246.429C122.342 248.469 122.577 250.509 122.813 252.548C123.376 252.522 123.942 252.521 124.493 252.502C125.613 252.461 126.729 252.451 127.85 252.449C130.158 252.443 132.467 252.463 134.775 252.459C137.155 252.454 139.534 252.413 141.912 252.369C143.841 252.333 145.79 252.187 147.724 252.193L147.862 245.793V245.793ZM148.049 237.091C147.536 237.262 146.93 237.273 146.266 237.303L144.551 237.389C143.757 237.427 142.962 237.464 142.167 237.493C139.517 237.59 136.868 237.681 134.218 237.765C131.503 237.851 128.774 237.901 126.058 237.816C124.728 237.774 123.409 237.704 122.082 237.593C121.754 237.566 121.42 237.548 121.085 237.524C121.394 240.227 121.704 242.929 122.015 245.631C125.93 245.15 129.874 244.851 133.784 244.354L137.319 243.902C140.853 243.451 144.383 243.008 147.93 242.635L148.049 237.091V237.091ZM148.238 228.293C147.485 228.479 146.627 228.47 145.904 228.515L145.77 228.525C144.4 228.629 143.026 228.68 141.653 228.714C138.961 228.781 136.268 228.814 133.576 228.83L131.957 228.84C129.798 228.853 127.641 228.859 125.482 228.808C124.097 228.776 122.716 228.708 121.332 228.639C120.917 228.618 120.493 228.604 120.068 228.583C120.358 231.141 120.65 233.699 120.941 236.258C121.396 236.185 121.853 236.13 122.288 236.057C123.403 235.868 124.517 235.718 125.64 235.583C128.073 235.292 130.519 235.082 132.963 234.905C135.472 234.723 137.984 234.569 140.494 234.393L142.271 234.267C142.864 234.226 143.456 234.186 144.049 234.15C145.062 234.088 146.238 234.158 147.242 233.938C147.514 233.824 147.816 233.798 148.119 233.863L148.238 228.293V228.293ZM148.466 217.994C148.205 218.325 147.816 218.499 147.352 218.559C144.936 218.873 142.457 218.923 140.02 219.071L139.59 219.098C137.074 219.264 134.556 219.394 132.037 219.528C129.45 219.665 126.864 219.777 124.275 219.867C123.176 219.906 122.071 219.91 120.97 219.896L120.499 219.889C120.046 219.881 119.573 219.882 119.098 219.867C119.361 222.259 119.626 224.652 119.895 227.043C120.379 226.991 120.863 226.951 121.332 226.901C122.715 226.755 124.096 226.61 125.482 226.501C128.109 226.294 130.737 226.169 133.368 226.039C136.06 225.906 138.754 225.817 141.447 225.691C142.752 225.63 144.057 225.554 145.359 225.434C146.271 225.35 147.355 225.04 148.306 225.154C148.358 222.767 148.412 220.381 148.466 217.994ZM148.678 208.769C148.637 208.833 148.589 208.895 148.53 208.952C147.466 210.004 146.155 209.923 144.745 210.033L144.659 210.04C143.277 210.156 141.894 210.267 140.511 210.366C137.746 210.566 134.975 210.706 132.205 210.83C129.371 210.958 126.519 211.045 123.682 210.988C121.865 210.95 119.963 210.957 118.11 210.78C118.394 213.415 118.681 216.049 118.969 218.684C119.49 218.586 120.014 218.51 120.511 218.432C121.763 218.235 123.016 218.037 124.275 217.892C126.79 217.602 129.307 217.331 131.828 217.087C133.983 216.878 136.138 216.666 138.295 216.474L139.59 216.363C142.164 216.146 144.77 215.789 147.352 215.736C147.778 215.727 148.259 215.959 148.503 216.325C148.56 213.806 148.619 211.287 148.678 208.769ZM148.857 201.3C148.2 201.38 147.492 201.335 146.885 201.355C145.351 201.405 143.818 201.451 142.284 201.497L133.081 201.768V201.768C129.947 201.861 126.803 201.93 123.669 201.886C122.29 201.866 120.905 201.864 119.526 201.789L119.067 201.761C118.5 201.723 117.804 201.718 117.124 201.649L117.927 209.086V209.086C119.771 208.819 121.671 208.72 123.499 208.563L123.89 208.529C126.587 208.283 129.296 208.121 131.998 207.938C134.769 207.75 137.536 207.522 140.303 207.289C141.687 207.173 143.069 207.057 144.452 206.929L144.622 206.913C145.928 206.776 147.156 206.486 148.312 207.256C148.481 207.369 148.614 207.519 148.704 207.688C148.755 205.559 148.804 203.429 148.857 201.3ZM149.071 192.621C143.467 192.847 137.861 193.018 132.252 193.094C129.095 193.136 125.942 193.106 122.785 193.04C121.416 193.011 120.036 192.946 118.668 192.841L118.156 192.8C117.506 192.745 116.822 192.705 116.142 192.64C116.423 195.197 116.702 197.754 116.979 200.312C117.648 200.187 118.348 200.13 118.934 200.055L119.067 200.037C120.524 199.837 121.995 199.72 123.459 199.591C126.311 199.34 129.176 199.178 132.035 199.04C134.963 198.899 137.892 198.78 140.819 198.65L143.748 198.518C144.236 198.497 144.724 198.476 145.212 198.455C145.909 198.425 146.606 198.397 147.304 198.368C147.647 198.354 148.005 198.308 148.349 198.325L148.447 198.312C148.492 198.306 148.532 198.302 148.569 198.298C148.663 198.227 148.764 198.167 148.87 198.122L148.935 198.097L149.071 192.621ZM115.223 184.396C115.483 186.698 115.741 189.001 115.995 191.303C116.794 191.212 117.603 191.162 118.366 191.093C119.905 190.955 121.452 190.834 122.995 190.763L126.081 190.62C128.137 190.525 130.194 190.433 132.252 190.357C137.885 190.152 143.518 189.916 149.147 189.628C149.187 188.067 149.228 186.505 149.27 184.943C148.999 185.233 148.609 185.423 148.096 185.422C142.186 185.406 136.271 185.441 130.362 185.343C127.404 185.295 124.449 185.223 121.495 185.071C120.049 184.997 118.595 184.846 117.161 184.647C116.549 184.562 115.879 184.502 115.223 184.396ZM114.277 176.194C114.555 178.552 114.828 180.911 115.096 183.27C115.83 183.139 116.588 183.069 117.273 182.976C118.744 182.776 120.224 182.616 121.706 182.533C124.589 182.369 127.475 182.287 130.362 182.226C136.271 182.1 142.186 182.101 148.096 182.055C148.651 182.05 149.063 182.27 149.334 182.598C149.375 181.125 149.418 179.653 149.463 178.18C148.892 178.12 148.326 178.035 147.802 177.998C146.193 177.886 144.582 177.783 142.971 177.691C139.61 177.498 136.245 177.333 132.881 177.186C129.516 177.04 126.15 176.897 122.784 176.772L121.312 176.718C118.971 176.631 116.591 176.521 114.277 176.194ZM113.219 167.314C113.508 169.702 113.793 172.09 114.077 174.479L114.163 175.219V175.219C116.979 174.671 119.945 174.511 122.784 174.39C126.151 174.247 129.511 174.173 132.881 174.183C136.247 174.194 139.608 174.273 142.971 174.412C144.652 174.482 146.333 174.562 148.012 174.653C148.474 174.678 149.015 174.665 149.573 174.673C149.585 174.298 149.595 173.922 149.608 173.547C149.659 172.027 149.709 170.506 149.761 168.986C148.625 169.57 147.148 169.805 146.007 170.054L145.876 170.083C143.991 170.506 142.066 170.781 140.142 170.948C136.363 171.278 132.545 171.155 128.77 170.836L128.109 170.779C124.794 170.491 121.357 170.127 118.143 169.306C116.612 168.915 115.03 168.369 113.658 167.576C113.515 167.493 113.368 167.406 113.219 167.314ZM145.139 138.935C145.171 138.806 145.365 138.776 145.428 138.897C145.875 139.745 146.041 140.763 146.351 141.672C146.684 142.65 146.996 143.634 147.364 144.6C148.132 146.617 149.039 148.555 150.121 150.424C151.192 152.274 148.193 153.595 147.405 151.569C146.591 149.479 145.923 147.317 145.518 145.109C145.321 144.031 145.145 142.938 145.088 141.843C145.038 140.903 144.906 139.852 145.139 138.935Z" fill="black"/>
<path fill-rule="evenodd" clip-rule="evenodd" d="M169.522 68.4446C169.451 65.9172 165.777 64.8679 164.715 67.3709C164.649 67.4379 164.578 67.5024 164.51 67.5601C164.843 67.2749 164.148 67.7467 164.035 67.805C163.938 67.8549 163.839 67.8999 163.74 67.9464C163.058 61.5438 160.74 54.6415 154.75 51.4277C146.395 47.3748 136.742 46.5837 127.577 46.9864C122.934 47.262 117.572 48.0047 113.447 45.6549C112.162 44.9227 111.131 43.7703 109.679 43.3178C105.094 42.0769 103.014 46.7871 103.638 50.6605C101.683 50.6759 99.7427 51.7591 98.8987 53.5425C98.403 54.5979 98.4117 55.7369 97.9843 56.7962C96.673 59.4825 94.7967 61.4134 95.8575 64.6703C93.9918 66.7941 95.0555 70.0094 96.561 72.0428C97.3044 73.1004 98.1899 74.1157 98.7345 75.2995C99.2631 76.433 98.4651 77.7771 98.0211 78.8517C94.738 86.6397 94.9256 95.2165 96.6922 103.34C93.1471 104.879 92.0832 109.689 94.3949 112.718C95.1903 113.789 96.1606 114.186 97.2611 114.845C98.6538 115.612 97.5163 118.683 97.9623 120.166C98.5682 123.787 101.864 126.017 105.123 123.666C107.191 123.353 108.859 129.372 110.36 130.882C111.285 132.1 112.313 133.193 113.429 134.202C116.757 142.767 133.807 147.11 142.237 146.614C151.065 145.689 157.021 138.19 161.98 131.533C164.526 127.987 166.182 124.017 166.784 119.687C167.39 115.336 167.125 110.977 166.716 106.621C165.857 97.3642 164.501 84.0289 163.626 74.6726C166.789 74.412 169.618 71.7179 169.522 68.4446V68.4446Z" fill="white"/>
<path fill-rule="evenodd" clip-rule="evenodd" d="M100.567 62.8797C100.564 62.8928 100.569 62.9027 100.572 62.9166C100.572 62.9126 100.573 62.9105 100.574 62.9057C100.571 62.8951 100.569 62.8881 100.567 62.8797" fill="#4F66AF"/>
<path fill-rule="evenodd" clip-rule="evenodd" d="M100.566 63.0141C100.555 63.0018 100.538 62.9927 100.522 62.9805C100.521 62.9809 100.521 62.9813 100.521 62.9817C100.536 62.9919 100.551 63.0035 100.566 63.0141" fill="#4F66AF"/>
<path fill-rule="evenodd" clip-rule="evenodd" d="M169.019 69.6408C170.058 68.7772 171.695 69.5723 171.343 70.994C170.96 72.5424 169.301 73.6004 167.931 74.2366C166.522 74.8911 165.149 75.0173 163.611 74.9459L163.592 74.9416V74.9416C164.019 76.6542 164.261 78.4344 164.588 80.1573C165.002 82.3431 165.41 84.53 165.812 86.7179C166.2 88.8326 166.691 90.9502 166.99 93.0755C167.291 95.2209 167.58 97.3678 167.876 99.5139C168.369 103.098 168.768 106.699 169.188 110.293L169.388 111.995C169.809 115.596 170.147 119.202 169.35 122.786C168.603 126.145 166.919 129.278 164.967 132.081C163.055 134.827 160.919 137.467 158.574 139.855C154.051 144.46 148.473 148.149 141.933 148.833C139.117 149.128 136.11 148.8 133.462 147.776L133.286 147.707C130.607 146.649 127.325 144.836 126.627 141.862C126.199 140.038 128.078 138.614 129.726 139.479C130.489 139.881 131.063 140.339 131.69 140.914L131.801 141.016C132.313 141.492 132.511 141.638 133.101 142.01C134.313 142.773 135.222 143.134 136.599 143.481C139.137 144.12 141.876 144.019 144.453 143.263C149.923 141.659 154.167 137.475 157.803 133.279C159.777 131 161.651 128.61 163.096 125.954C164.612 123.168 165.312 120.243 165.27 117.073C165.222 113.496 164.728 109.904 164.404 106.344C164.073 102.715 163.768 99.0865 163.499 95.4519C163.247 92.0435 163.222 88.6196 163.134 85.2006L163.117 84.5596C163.065 82.7445 163.029 80.9288 162.988 79.1133C162.947 77.3031 162.804 75.4698 162.99 73.6672C163.004 73.5359 163.18 73.5028 163.224 73.6355C163.333 73.9732 163.43 74.3162 163.52 74.6612C163.534 74.6506 163.55 74.6411 163.569 74.6345C164.774 74.2203 165.884 73.3933 166.788 72.5014C167.651 71.6503 168.101 70.4035 169.019 69.6408ZM103.087 44.2793C103.844 41.169 107.251 40.4743 109.77 41.9722C110.981 42.6924 111.951 43.7312 113.083 44.5568C114.208 45.3776 115.452 46.0368 116.764 46.5024C119.371 47.4273 122.121 47.7636 124.876 47.7756C131.582 47.805 138.15 45.9198 144.866 46.13C150.062 46.2928 155.577 47.8291 159.347 51.5869C161.377 53.6112 162.685 56.2138 163.387 58.9768C163.715 60.2681 163.96 61.5907 164.153 62.9103L164.2 63.2401C164.308 64.0113 164.481 64.8278 164.497 65.6072C164.512 66.3072 164.335 67.0398 164.239 67.7326C164.037 69.193 161.775 69.0267 161.45 67.7326C160.711 64.7861 161.02 61.7452 160.116 58.809C159.314 56.2051 157.76 53.9285 155.509 52.3714C146.011 45.8027 133.83 51.3035 123.365 50.7924C120.807 50.6675 118.211 50.2721 115.799 49.391C114.554 48.9366 113.33 48.3824 112.202 47.6854C111.168 47.0472 110.273 46.2453 109.316 45.5074L108.894 45.1865C108.238 44.6929 107.122 43.9211 106.46 44.5741C106.172 44.8583 106.155 45.501 106.16 45.9917L106.163 46.2135C106.193 48.297 106.618 50.3767 105.838 52.3896C105.483 53.3077 104.495 53.8866 103.555 53.3667L103.506 53.3388C101.518 52.1558 98.9067 54.5329 100.434 56.5003L100.481 56.5598C101.34 57.6043 100.882 59.4437 99.3447 59.4391L99.2893 59.4381C96.5496 59.3526 95.3341 62.7779 97.6956 64.2745L97.7682 64.3193C99.6855 65.4671 98.0038 68.2267 96.0388 67.2792C96.2053 67.3595 95.9158 67.3585 95.7502 67.5808C95.5911 67.7943 95.5793 67.979 95.6171 68.2487C95.7318 69.0658 96.4501 69.7544 97.0319 70.2713C98.3536 71.4458 99.992 72.2567 101.68 72.7505C108.443 74.7283 115.381 72.309 121.97 70.8479C128.839 69.3247 136.598 68.7111 142.589 73.0335C142.66 73.0846 142.598 73.1989 142.519 73.1533C138.219 70.6556 132.954 70.8773 128.254 71.9013C122.091 73.2442 115.983 75.7438 109.671 76.4024C111.443 79.5316 112.184 83.2275 111.711 86.8067C111.385 89.2706 110.405 91.4078 109.248 93.5735L109.027 93.9863C107.994 95.9303 107.195 97.7668 107.182 100.019C107.17 102.256 103.844 102.728 103.281 100.547C102.001 95.5943 106.663 91.6929 108.565 87.6086C110.191 84.1171 110.241 80.0463 108.925 76.4713C107.441 76.5907 105.945 76.6032 104.434 76.4683C103.136 76.3523 101.801 76.1183 100.499 75.748L99.9788 77.9376C99.2891 80.8541 98.65 83.7686 98.4563 86.7979C98.3137 89.0238 98.3213 91.2607 98.5383 93.4812C98.7259 95.399 99.1218 97.2485 99.5247 99.1208C99.8703 99.5769 100.047 100.275 99.9498 100.831C102.193 101.477 103.958 103.249 104.603 105.594C104.642 105.737 104.442 105.817 104.368 105.694C102.838 103.154 98.8985 102.22 96.4066 103.898C94.0269 105.499 93.0882 108.733 94.4353 111.293C95.1438 112.639 96.1943 113.585 97.5489 114.236L97.8212 114.364C98.5311 114.7 99.1827 115.066 99.6392 115.741C100.231 116.616 100.251 117.542 100.195 118.542L100.171 118.948C100.134 119.618 100.125 120.308 100.325 120.953L100.37 121.097C100.423 121.258 100.478 121.399 100.574 121.553C100.603 121.599 100.873 121.863 100.961 121.959L101.071 121.993V121.993L101.195 121.998V121.998C101.333 122 101.513 121.94 101.454 121.981L101.47 121.972C101.522 121.94 101.57 121.905 101.61 121.875L101.687 121.815C101.866 121.556 102.091 121.341 102.367 121.178L102.63 121.061V121.061C103.315 120.338 104.487 120.718 104.978 121.438C105.331 121.956 105.521 122.482 105.536 123.001C105.591 122.913 105.714 122.864 105.792 122.963L106.257 123.556C108.037 125.831 109.786 128.12 111.808 130.194C112.922 131.336 114.12 132.41 115.373 133.399C116.442 134.243 118.471 135.055 118.502 136.593C118.512 137.093 118.157 137.446 117.724 137.616C116.313 138.167 114.569 136.292 113.55 135.379L113.467 135.305C112.22 134.212 111.081 133.013 110.031 131.73C107.991 129.238 106.285 126.37 105.533 123.214C105.497 123.765 105.261 124.304 104.802 124.814C104.189 125.491 103.352 125.966 102.457 126.162C100.43 126.605 98.4508 125.875 97.2447 124.186C96.2253 122.757 95.9251 120.871 96.0566 119.145L96.0728 118.938C96.0913 118.661 96.1149 118.153 96.1865 117.937L95.5482 117.587V117.587C94.7657 117.17 94.0404 116.624 93.3895 116.024C90.7734 113.611 89.4608 109.69 90.6567 106.258C91.4048 104.112 92.9769 102.244 94.9898 101.273C94.6534 100.496 94.5409 99.5718 94.4139 98.7545L94.3926 98.6193C94.1773 97.2785 93.9971 95.9208 93.9284 94.5639C93.8 92.0298 93.9561 89.4721 94.3541 86.9674C95.0006 82.8991 96.339 78.5846 98.7922 75.1717C96.9206 74.4282 95.1979 73.3518 93.8682 71.8571C92.4787 70.2952 91.5929 68.0591 92.6674 66.0756C92.9412 65.57 93.298 65.145 93.7081 64.8075C92.9969 63.4642 92.7669 61.8765 93.2057 60.359C93.73 58.5448 95.1538 57.1298 96.8737 56.4691C96.456 54.7502 96.7974 52.9013 98.0737 51.4688C99.3396 50.0476 101.305 49.53 103.125 49.8549C103.224 48.0267 102.648 46.0823 103.087 44.2793ZM97.9841 108.466C99.6523 107.65 101.629 107.779 103.296 108.553L103.409 108.607C105.228 109.489 107.637 111.551 107.059 113.744C106.72 115.027 105.296 115.465 104.192 114.911C103.269 114.449 103.059 113.622 102.596 112.791C102.268 112.203 101.864 111.744 101.389 111.272C100.387 110.276 99.2621 109.537 97.9841 108.945C97.7999 108.86 97.8062 108.554 97.9841 108.466ZM140.017 64.1399C139.86 64.0685 139.974 63.8236 140.131 63.8684C144.323 65.0659 148.231 67.7538 150.567 71.4848C150.709 71.7124 150.731 72.0871 150.567 72.3124L150.491 72.4147C150.384 72.5546 150.278 72.6578 150.077 72.6891C149.698 72.7478 149.369 72.6491 149.151 72.3124C146.851 68.7563 143.903 65.9182 140.017 64.1399ZM168.078 64.8441C168.434 64.2424 169.375 64.3635 169.563 65.0381L169.59 65.0969C169.691 65.3268 169.645 65.3739 169.456 65.2438C169.923 65.6289 170.135 66.2025 169.992 66.8192C169.221 70.1501 165.449 72.5286 162.161 72.2012C161.875 72.1727 161.836 71.8199 162.096 71.7147C163.36 71.2024 164.483 70.3703 165.386 69.3493C166.263 68.3568 166.632 67.2212 167.104 66.0226C167.281 65.5726 167.557 65.2486 167.945 65.0717C167.996 65.0007 168.041 64.9251 168.078 64.8441ZM149.382 62.7036L149.405 62.705C151.094 62.9233 152.555 63.7573 153.741 64.9794C154.884 66.1562 156.326 68.098 156.202 69.825C156.121 70.9699 154.493 71.6244 153.886 70.4527C153.524 69.7536 153.442 68.9872 153.188 68.2479C152.955 67.5703 152.634 66.927 152.249 66.3236C151.456 65.0804 150.366 64.0272 149.251 63.077C149.12 62.9658 149.211 62.7042 149.382 62.7036V62.7036ZM106.054 62.1962C105.679 61.8395 106.069 61.2312 106.545 61.3517C109.058 61.9881 111.546 62.762 114.159 62.839C115.463 62.8772 116.761 62.7743 118.053 62.6054L118.708 62.5185C119.716 62.3869 120.741 62.2835 121.737 62.4907C122.402 62.6287 122.531 63.4846 122.117 63.9312C120.163 66.0403 116.393 65.8387 113.801 65.4832C110.986 65.0968 108.146 64.1901 106.054 62.1962ZM151.427 55.6223C151.255 55.3837 151.544 55.0071 151.818 55.113C154.315 56.0784 156.932 58.592 157.62 61.2219C157.802 61.9166 156.926 62.4411 156.412 61.9254C155.454 60.9644 154.777 59.8293 153.967 58.7491C153.16 57.6722 152.215 56.7159 151.427 55.6223ZM110.514 56.7968C110.314 56.5967 110.516 56.1981 110.803 56.2999C112.429 56.8759 114.067 57.3742 115.775 57.6357C117.524 57.9032 119.29 57.6999 121.048 57.8083C121.76 57.8521 122.244 58.9591 121.453 59.3036C117.94 60.834 113.167 59.4463 110.514 56.7968ZM115.003 53.3641C114.724 53.1574 114.883 52.5902 115.263 52.7485C116.811 53.3933 118.377 53.5518 120.038 53.4855C120.652 53.4607 120.781 54.4255 120.183 54.5557C118.346 54.9554 116.504 54.4742 115.003 53.3641Z" fill="black"/>
<path fill-rule="evenodd" clip-rule="evenodd" d="M143.152 128.274C141.732 127.694 140.465 126.727 139.538 125.492C139.216 125.063 139.133 124.61 139.2 124.195C139.276 123.729 139.552 123.306 139.928 123.023C140.305 122.738 140.777 122.598 141.233 122.67C141.63 122.732 142.024 122.949 142.337 123.399L142.402 123.489C142.953 124.235 143.67 124.846 144.488 125.24C145.276 125.62 146.158 125.798 147.07 125.695C148.808 125.498 150.005 124.558 151.278 123.282C151.436 123.121 151.594 122.954 151.752 122.786C151.852 122.632 151.991 122.534 152.146 122.482C152.317 122.425 152.511 122.428 152.689 122.49C152.86 122.55 153.013 122.663 153.116 122.814C153.213 122.958 153.269 123.135 153.251 123.338C153.134 124.661 152.443 125.842 151.461 126.769C150.37 127.798 148.924 128.511 147.563 128.76C146.064 129.036 144.536 128.839 143.152 128.274V128.274ZM148.271 107.866C149.866 108.836 152.297 111.098 150.581 113.503C148.56 115.624 145.652 113.192 144.219 112.093C142.89 111.241 141.396 113.432 142.629 114.428C152.987 122.099 157.19 108.12 149.078 106.725C148.184 106.572 147.853 107.566 148.271 107.866ZM129.711 98.9426C129.887 96.7538 133.219 96.2568 133.551 98.4227C133.847 100.363 133.498 102.145 132.624 103.892C131.79 105.561 129.692 104.782 129.533 103.263C129.32 101.226 129.601 100.304 129.711 98.9426ZM155.076 97.9736C155.541 97.3649 156.212 96.9494 157.015 97.1842C159.526 97.9182 158.786 101.484 157.904 103.22C157.425 104.163 155.876 104.402 155.176 103.572C154.036 102.218 153.489 99.5154 154.94 98.1822C154.979 98.1133 155.023 98.0438 155.076 97.9736ZM132.589 89.3651L132.986 89.2957C134.213 89.0834 135.738 88.8794 136.606 89.8662C137.067 90.3895 137.225 91.3622 136.606 91.8631C135.518 92.7444 134.314 92.4028 133.01 92.4775C131.935 92.5392 130.902 92.7171 129.867 93.0132C127.595 93.6627 125.744 94.8484 123.804 96.1503C123.55 96.3211 123.29 95.9954 123.411 95.7572C124.531 93.5627 126.701 91.7601 128.875 90.6613C130.036 90.0748 131.305 89.5883 132.589 89.3651ZM152.787 88.3821L153.091 88.4442C156.395 89.1351 160.687 90.515 162.251 93.7613C162.311 94.2203 162.248 94.3187 162.197 94.3829L162.18 94.4043C162.137 94.4592 162.104 94.5349 161.905 94.5974C161.85 94.5842 161.794 94.5703 161.737 94.5555C161.02 94.3675 160.453 94.1085 159.904 93.8398L159.308 93.5462C158.617 93.2073 157.92 92.8807 157.181 92.6396C155.605 92.1252 153.983 91.7628 152.337 91.5693C151.98 91.5274 151.636 91.4069 151.365 91.2004C151.108 91.0044 150.911 90.733 150.821 90.3722C150.705 89.9053 150.739 89.5518 150.989 89.1306C151.177 88.8143 151.447 88.5951 151.756 88.4692C152.071 88.3408 152.43 88.3106 152.787 88.3821Z" fill="black"/>
<path fill-rule="evenodd" clip-rule="evenodd" d="M159.38 76.3791C160.601 75.9605 161.575 77.2309 161.34 78.3381C161.064 79.6422 159.703 80.6888 158.801 81.6079C157.854 82.5759 156.889 83.5249 155.887 84.4379C153.975 86.1839 151.994 87.828 149.904 89.3603L149.265 89.8286C147.35 91.2305 145.44 92.5999 143.389 93.8134C142.278 94.4686 141.156 95.1027 140.019 95.7135C139.614 95.9312 139.119 96.267 138.61 96.5166C140.471 97.9538 141.904 100.148 142.214 102.191C142.983 107.268 139.713 111.973 135.099 113.843C132.798 114.775 130.237 115.046 127.778 114.765C125.277 114.479 122.742 113.739 121.117 111.689C119.674 109.87 119.154 107.547 119.051 105.267C119.002 104.184 119.013 103.119 119.241 102.162C118.246 102.17 117.251 102.166 116.264 102.177C113.826 102.2 111.384 102.211 108.944 102.143C106.428 102.071 103.924 101.959 101.416 101.735C100.316 101.636 99.2213 101.473 98.1267 101.316C97.0642 101.166 95.8917 101.109 94.8987 100.674C94.8311 100.646 94.8591 100.549 94.9177 100.53C95.9762 100.188 97.1783 100.249 98.2811 100.181L99.356 100.116C100.251 100.063 101.146 100.013 102.044 99.9846C104.118 99.9164 106.19 99.8996 108.264 99.8641L109.153 99.8475C111.593 99.7989 114.033 99.7714 116.473 99.6932C117.485 99.6615 118.499 99.6023 119.516 99.5474C119.634 99.2787 119.807 99.0336 119.974 98.795C120.473 98.0806 121.106 97.4508 121.764 96.8801C123.109 95.7048 124.624 94.8321 126.314 94.2467C127.989 93.6685 130.439 93.3817 132.211 93.419C133.983 93.4563 136.508 93.7063 137.319 95.1555C137.404 95.3056 138.948 95.016 139.406 94.665C140.478 93.8472 141.53 93.0061 142.563 92.1438C144.481 90.5396 146.454 88.9608 148.271 87.2447C150.145 85.4735 152.004 83.6728 153.787 81.813C154.683 80.8809 155.577 79.9467 156.445 78.9914C157.333 78.0171 158.095 76.8166 159.38 76.3791Z" fill="black"/>
</svg>
