<svg width="240" height="324" viewBox="0 0 240 324" fill="none" xmlns="http://www.w3.org/2000/svg">
<path fill-rule="evenodd" clip-rule="evenodd" d="M47.4645 286.051C75.0656 290.245 103.167 290.456 130.998 288.933C142.012 288.108 153.06 287.96 164.065 289.014C170.568 289.498 199.081 291.679 201.411 285.852C199.944 254.825 196.975 223.533 187.865 193.693C184.119 183.097 180.901 174.303 173.589 165.535C171.284 163.141 166.315 158.12 163.467 156.482C161 155.064 159.969 155.57 158.552 153.174C157.144 150.527 156.106 146.107 154.107 144.24C152.072 142.338 149.056 143.018 145.317 143.631C146.004 134.346 141.72 131.981 135.818 130.216C125.444 126.255 115.198 128.245 112.587 140.879C107.746 140.879 105.026 142.963 102.086 144.966C100.884 145.784 101.72 147.87 100.285 148.513C97.6289 149.459 92.9354 149.228 90.3781 150.392C78.7492 155.686 68.3917 163.364 61.5897 174.576C46.3403 198.515 35.8652 248.942 37.6779 277.315C36.8837 278.561 37.9819 280.348 38.2611 281.687C38.6135 282.853 39.7545 283.628 40.9454 283.495C42.6072 285.283 45.1775 285.681 47.4645 286.051Z" fill="white"/>
<path fill-rule="evenodd" clip-rule="evenodd" d="M161.709 155.78C161.54 155.686 161.689 155.443 161.859 155.523C170.045 159.365 176.324 166.105 180.743 173.892C185.318 181.955 187.926 191.11 190.174 200.058L190.255 200.381C192.652 209.953 194.69 219.624 196.526 229.319C198.384 239.136 199.876 249.015 201.076 258.934C201.67 263.838 202.199 268.751 202.612 273.674C202.818 276.134 203.005 278.596 203.174 281.059C203.241 282.044 203.304 283.029 203.358 284.015L203.397 284.755C203.431 285.426 203.511 286.098 203.345 286.76C203.202 287.331 202.9 287.847 202.635 288.371C202.109 289.406 200.67 289.235 200.104 288.371L199.939 288.119C199.564 287.539 199.252 286.999 199.134 286.277C199.02 285.578 199.016 284.845 198.965 284.139C198.871 282.839 198.791 281.538 198.7 280.238C198.508 277.502 198.293 274.767 198.055 272.034C197.583 266.639 197.078 261.249 196.457 255.869C195.353 246.307 193.969 236.771 192.337 227.286C190.742 218.02 188.726 208.848 186.623 199.687L186.406 198.74C182.723 182.746 177.048 164.327 161.709 155.78ZM74.5218 218.408C74.582 218.248 74.841 218.211 74.8848 218.408C75.4362 220.891 75.4907 223.449 75.575 225.992C75.658 228.5 75.6546 231.02 75.6181 233.53C75.4833 242.754 75.2302 251.97 75.0113 261.193C74.9019 265.806 74.7992 270.419 74.7204 275.033C74.6906 276.764 74.6656 278.494 74.6448 280.225L74.6193 282.507C74.6066 283.516 74.5801 284.513 74.4572 285.521C74.376 286.184 74.2032 286.816 73.8373 287.385C73.5776 287.788 73.2075 287.993 72.8468 288.267L72.7793 288.319C72.3191 288.683 71.8345 288.685 71.3788 288.319L71.2464 288.214C70.8111 287.874 70.4349 287.608 70.157 287.069C69.7704 286.32 69.7085 285.507 69.6428 284.682C69.5431 283.431 69.6092 282.161 69.6221 280.906C69.6479 278.389 69.6827 275.872 69.7269 273.355C69.8889 264.125 70.2092 254.894 70.7929 245.68C71.0679 241.341 71.4408 236.987 71.941 232.665L72.0362 231.855C72.1879 230.583 72.3263 229.289 72.4822 227.99C70.1547 226.352 68.1088 224.365 66.3641 222.111C66.2357 221.945 66.4472 221.712 66.6022 221.873C68.3849 223.719 70.4289 225.192 72.6918 226.349C73.0626 223.631 73.5724 220.927 74.5218 218.408ZM113.406 136.132C113.438 136.107 113.488 136.097 113.518 136.132C114.019 136.716 113.917 137.608 113.933 138.347L113.935 138.416C113.971 139.497 113.978 140.575 113.974 141.656L113.963 145.1V145.1C113.962 145.573 113.923 146.066 113.947 146.542L113.96 146.726V146.726C114.223 146.996 114.345 147.385 114.256 147.775C114.24 148.277 113.978 148.695 113.596 148.958L114.415 150.12V150.12L115.235 151.282C116.925 153.68 118.633 156.057 120.414 158.388C122.229 160.766 124.166 163.054 126.193 165.253C127.183 166.328 128.19 167.388 129.221 168.425C129.64 168.846 130.069 169.256 130.493 169.672L130.916 170.089C131.165 170.339 131.479 170.586 131.645 170.902C131.742 171.089 131.764 171.549 131.799 171.625C132.112 172.312 131.579 173.408 130.692 173.065L130.732 173.039C130.894 172.926 130.79 172.925 130.422 173.034C130.189 173.033 129.972 172.98 129.768 172.874L129.707 172.84C129.421 172.695 129.165 172.413 128.932 172.187L128.874 172.132C128.341 171.633 127.834 171.103 127.323 170.581C126.258 169.493 125.217 168.381 124.208 167.239C122.197 164.961 120.291 162.591 118.485 160.147C116.646 157.658 114.936 155.041 113.466 152.317C112.908 151.283 112.396 150.229 111.906 149.163C110.951 148.856 110.73 147.841 110.796 146.697C110.444 145.876 110.127 145.039 109.939 144.184C109.914 144.066 110.064 143.956 110.155 144.058C110.46 144.405 110.742 144.775 111.014 145.154C111.178 144.352 111.386 143.613 111.483 143.143L111.906 141.065V141.065C109.522 140.941 106.909 141.921 105.265 143.637C105.177 144.084 104.833 144.404 104.498 144.821C104.115 145.299 103.781 145.834 103.532 146.395C102.979 147.637 103.291 149.467 102.219 150.378C102.107 150.473 101.982 150.539 101.854 150.579C102.362 153.075 102.131 155.825 102.12 158.357L102.12 158.579C102.123 161.413 102.028 164.249 101.918 167.08L101.807 169.882C101.663 173.619 101.569 177.358 101.932 181.075C103.59 179.606 105.303 178.205 107.076 176.87C108.242 175.992 109.431 175.145 110.641 174.33L111.625 173.672C112.804 172.881 114.011 172.068 115.302 171.502C116.99 170.761 118.595 171.016 120.225 171.775C121.848 172.532 123.422 173.41 125.014 174.23C126.633 175.063 128.256 175.89 129.877 176.719C130.951 177.268 132.525 177.763 133.313 178.774C133.363 178.551 133.422 178.328 133.49 178.105C133.412 177.767 133.442 177.401 133.632 177.052C136.279 172.186 138.729 167.204 141.161 162.228C142.392 159.709 143.562 157.161 144.796 154.645L145.995 152.193C146.195 151.785 146.396 151.377 146.598 150.97C146.901 150.36 147.216 149.756 147.521 149.147C147.651 148.89 147.813 148.635 147.939 148.375L147.998 148.245C148.001 148.238 148.292 147.324 148.067 147.411L148.048 147.421C147.933 147.486 147.842 147.342 147.916 147.25C148.233 146.857 148.675 147.205 148.856 147.568C149.355 148.568 148.441 150.137 148.089 151.095L148.07 151.148C146.979 154.238 145.743 157.27 144.477 160.291C142.05 166.084 139.443 171.787 136.841 177.501L136.81 177.599V177.599C137.365 177.173 137.957 176.787 138.465 176.411C139.744 175.463 141.061 174.562 142.376 173.663C144.788 172.015 147.264 170.475 149.782 168.997L150.286 168.702C151.544 167.969 152.79 167.374 154.283 167.594C155.67 167.799 156.959 168.544 158.212 169.15L158.341 169.212L162.213 171.053C161.799 169.402 161.351 167.759 160.883 166.122C159.971 162.929 158.968 159.763 157.88 156.625C156.864 153.694 155.765 150.794 154.603 147.917L154.254 147.054C153.78 145.87 153.309 144.578 151.955 144.214C150.601 143.849 149.049 144.39 147.813 143.618C147.7 143.548 147.714 143.362 147.85 143.328L148.614 143.136C150.046 142.779 151.726 142.42 153.081 142.767C154.556 143.145 155.775 144.383 156.491 145.67C157.286 147.102 157.847 148.704 158.45 150.23L158.546 150.471C159.239 152.198 159.905 153.936 160.543 155.685C161.818 159.181 162.978 162.719 164.029 166.288C164.535 168.009 165.015 169.737 165.477 171.47C165.609 171.968 165.828 172.573 166.008 173.203C166.214 173.404 166.408 173.628 166.591 173.883C166.894 174.307 166.677 174.804 166.3 175.058C166.285 175.492 166.189 175.9 165.959 176.249C165.06 177.614 162.683 177.263 162.78 175.428C162.794 175.147 162.904 174.879 163.069 174.652L163.065 174.615V174.615L163.046 174.548V174.548C162.633 174.35 162.219 174.13 161.782 173.914L157.719 171.905V171.905C156.542 171.324 155.238 170.425 153.929 170.203C152.709 169.996 151.422 170.906 150.374 171.454L150.306 171.49C147.772 172.789 145.256 174.131 142.751 175.485C141.528 176.146 140.321 176.834 139.102 177.503C138.084 178.062 136.984 178.865 135.839 179.18C135.35 179.561 134.769 179.51 134.302 179.222C134.516 180.544 134.502 181.901 134.568 183.252C134.656 185.059 134.67 186.871 134.699 188.681L134.71 189.359C134.787 193.359 134.828 197.36 134.844 201.361C134.898 215.608 134.74 229.859 134.704 244.105C134.685 251.263 134.543 258.427 134.357 265.583C134.279 268.615 134.114 271.643 133.936 274.67L133.838 276.322C133.631 279.806 133.508 283.328 132.863 286.766C132.779 287.214 132.021 287.225 131.947 286.766C131.353 283.082 131.32 279.319 131.206 275.592L131.182 274.848C131.045 270.847 130.98 266.848 130.994 262.846C131.044 248.593 131.415 234.35 131.718 220.101C131.87 212.942 131.973 205.78 132.209 198.624C132.327 195.043 132.461 191.464 132.62 187.885C132.691 186.287 132.76 184.69 132.866 183.094L132.914 182.41C132.946 181.964 132.973 181.524 133.005 181.087C131.564 181.614 130.246 180.638 128.949 179.971C127.454 179.202 125.961 178.432 124.465 177.664L122.969 176.898V176.898L119.974 175.369C118.626 174.681 117.587 173.996 116.149 174.803C110.968 177.711 106.207 181.58 101.893 185.64C101.066 186.419 99.3173 186.209 99.1078 184.904C98.2126 179.33 98.757 173.675 99.2141 168.083L99.3825 166.007C99.5867 163.528 99.8091 161.049 100.105 158.579C100.238 157.475 100.37 156.371 100.516 155.268L100.628 154.442C100.811 153.135 100.93 151.836 101.319 150.583C101.196 150.543 101.078 150.478 100.973 150.378C99.8026 149.267 100.367 147.34 100.901 146.02C101.428 144.716 102.232 143.578 103.238 142.598C103.458 142.385 103.767 142.247 104.078 142.24C106.519 140.622 109.197 139.815 111.983 140.698C112.062 140.323 112.142 139.95 112.226 139.577L112.311 139.204C112.528 138.279 112.608 136.751 113.406 136.132ZM138.421 282.221C139.179 282.013 140.008 282.233 140.563 282.788C141.118 283.343 141.338 284.172 141.129 284.93C141.024 285.303 140.836 285.627 140.563 285.902C140.308 286.155 140.011 286.336 139.671 286.444L139.592 286.468L139.468 286.52C139.088 286.622 138.708 286.622 138.329 286.52C137.966 286.418 137.651 286.234 137.383 285.969C137.118 285.701 136.934 285.386 136.832 285.023C136.73 284.643 136.73 284.263 136.832 283.883L136.884 283.759V283.759C136.989 283.386 137.177 283.062 137.45 282.788C137.725 282.515 138.049 282.326 138.421 282.221ZM183.394 206.719C183.518 206.576 183.72 206.759 183.643 206.911C182.463 209.225 181.148 211.522 179.856 213.777C179.959 214.402 180.062 215.022 180.18 215.626C180.683 218.201 181.3 220.73 181.702 223.33C183.147 232.676 183.897 242.123 184.541 251.553C185.187 261.016 185.269 270.484 185.366 279.966C185.375 280.788 184.743 281.743 183.896 281.898C183.509 281.969 183.218 281.955 182.832 281.898C181.95 281.768 181.399 280.758 181.361 279.966C181.109 274.667 180.769 269.374 180.375 264.083C179.677 254.702 179.25 245.297 178.687 235.907L178.488 232.625C178.275 229.069 178.08 225.51 178.016 221.949C177.974 219.589 178.1 217.23 178.023 214.873C177.951 212.698 177.731 210.332 178.21 208.194C178.228 208.114 178.354 208.094 178.391 208.17C178.89 209.22 179.205 210.362 179.449 211.527C180.734 209.901 182.042 208.272 183.394 206.719ZM99.2255 149.243C99.4059 149.23 99.3988 149.501 99.2255 149.521C96.7038 149.814 94.2678 150.84 91.8868 151.713L91.6828 151.787C89.2774 152.66 86.9321 153.675 84.6751 154.886C80.2623 157.252 76.2102 160.303 72.6276 163.796C58.3237 177.739 51.805 197.846 47.0285 216.741C44.3745 227.239 42.4873 237.914 41.264 248.672C40.6592 253.992 40.2316 259.332 39.9823 264.681C39.8547 267.422 39.7742 270.166 39.7406 272.91C39.7233 274.315 39.7182 275.721 39.7199 277.126C39.7207 277.771 39.8357 278.582 39.6635 279.207C39.5038 279.786 39.0533 280.296 38.7202 280.779C38.3253 281.352 37.6157 281.322 37.2153 280.779L37.0677 280.582C36.6407 280.015 36.2229 279.473 36.1619 278.733C36.0966 277.939 36.1427 277.121 36.1397 276.323C36.133 274.717 36.1528 273.11 36.185 271.504C36.2469 268.426 36.3681 265.348 36.5483 262.274C36.9142 256.036 37.5166 249.811 38.379 243.622C39.9119 232.621 42.2097 221.726 45.2194 211.035C48.0588 200.949 51.4226 190.894 56.2146 181.552C60.6639 172.878 66.5008 164.809 74.2028 158.747C77.7844 155.928 81.6833 153.578 85.8869 151.809C88.007 150.917 90.2333 150.188 92.4975 149.773C94.7365 149.362 96.9658 149.42 99.2255 149.243ZM138.856 264.395C139.255 264.392 139.701 264.48 140.045 264.701L140.503 265.055V265.055C140.627 265.215 140.751 265.375 140.874 265.536C141.161 265.91 141.199 266.514 141.139 266.96C141.125 267.257 141.037 267.533 140.874 267.79L140.525 268.242V268.242C140.189 268.515 139.91 268.711 139.503 268.842C139.291 268.911 139.087 268.926 138.883 268.915L138.815 268.911L138.856 268.916L138.784 268.908V268.908C138.718 268.902 138.651 268.895 138.584 268.886C138.539 268.88 138.493 268.877 138.448 268.871C138.404 268.867 138.362 268.865 138.318 268.87C137.801 268.918 137.282 268.625 136.916 268.289C136.586 267.985 136.289 267.342 136.335 266.886L136.355 266.696C136.39 266.374 136.418 266.248 136.554 265.925C136.687 265.611 136.871 265.334 137.123 265.1C137.605 264.652 138.194 264.399 138.856 264.395ZM137.257 240.875C137.943 240.128 139.12 240.073 139.969 240.525C140.176 240.635 140.367 240.812 140.549 240.96C141.009 241.332 141.19 242.003 141.215 242.568C141.24 243.127 140.946 243.791 140.549 244.177L140.453 244.27V244.27C140.216 244.5 139.877 244.701 139.546 244.762C139.011 244.86 138.563 244.857 138.065 244.647C137.638 244.466 137.269 244.176 137.019 243.783L136.978 243.716C136.961 243.689 136.944 243.661 136.929 243.632L136.907 243.588C136.431 242.672 136.559 241.635 137.257 240.875ZM137.612 217.231C137.921 217.134 138.23 217.121 138.539 217.19C138.749 217.19 138.945 217.243 139.126 217.348C139.323 217.404 139.494 217.503 139.639 217.648C139.813 217.751 139.953 217.89 140.056 218.065C140.261 218.289 140.4 218.553 140.472 218.856L140.555 219.474L140.472 220.092L140.238 220.648V220.648C140.173 220.732 140.108 220.816 140.043 220.9C139.939 221.075 139.8 221.215 139.625 221.318C139.511 221.432 139.38 221.516 139.234 221.575C138.717 221.946 138.027 222.067 137.414 221.898C137.05 221.796 136.733 221.612 136.465 221.345C136.199 221.077 136.014 220.761 135.913 220.396L135.871 220.106C135.816 219.715 135.808 219.499 135.918 219.003C135.967 218.785 136.107 218.478 136.181 218.348C136.495 217.795 137.009 217.416 137.612 217.231ZM164.45 200.221C165.338 200.215 166.225 200.217 167.112 200.227L167.778 200.236C168.892 200.253 169.847 200.138 170.723 200.912C171.359 201.473 171.079 202.415 170.475 202.838C169.561 203.478 168.413 203.156 167.362 203.085C166.253 203.011 165.144 202.949 164.034 202.9C161.885 202.803 159.735 202.742 157.583 202.733C155.437 202.723 153.287 202.744 151.14 202.778C148.956 202.814 146.682 203.017 144.51 202.791C144.212 202.76 144.145 202.368 144.439 202.266C146.486 201.557 148.788 201.328 150.933 201.057C153.145 200.778 155.357 200.58 157.583 200.451C159.87 200.32 162.16 200.238 164.45 200.221ZM137.608 193.265L137.681 193.267C138.072 193.268 138.438 193.359 138.778 193.542L138.851 193.583L139.32 193.945C139.607 194.235 139.806 194.576 139.916 194.968L139.999 195.585V195.585C140.011 195.904 139.944 196.201 139.799 196.478C139.706 196.765 139.546 197.014 139.32 197.224C139.11 197.45 138.861 197.61 138.574 197.703C138.319 197.837 138.046 197.904 137.755 197.904L137.681 197.903C137.263 197.901 136.873 197.796 136.512 197.586L136.043 197.224V197.224C135.756 196.935 135.557 196.594 135.447 196.201L135.364 195.585V195.585C135.352 195.265 135.418 194.967 135.564 194.691C135.657 194.404 135.817 194.155 136.043 193.945C136.253 193.719 136.501 193.559 136.789 193.466C137.044 193.332 137.317 193.265 137.608 193.265V193.265ZM144.478 138.806C144.977 138.083 145.882 138.726 145.753 139.308C145.787 140.941 145.871 142.527 146.242 144.127C146.412 144.859 146.635 145.593 146.979 146.264L147.123 146.546C147.568 147.426 147.914 148.255 147.314 149.22C147.032 149.675 146.521 150.016 145.968 149.992C143.514 149.886 143.177 146.47 143.028 144.562C142.874 142.598 143.352 140.439 144.478 138.806Z" fill="black"/>
<path fill-rule="evenodd" clip-rule="evenodd" d="M169.838 95.1187C169.038 81.9723 164.773 67.0677 152.223 60.613C124.556 49.5049 88.1789 77.4783 86.253 106.055C85.5815 115.838 91.0107 126.527 100.932 129.246C103.138 132.17 106.474 133.955 109.766 135.505C148.983 155.859 174.316 139.314 169.838 95.1187V95.1187Z" fill="white"/>
<path fill-rule="evenodd" clip-rule="evenodd" d="M178.772 86.9409C177.386 83.0901 175.922 79.2689 174.382 75.4773C172.882 71.7871 171.527 68.0172 169.665 64.5019C158.539 43.5063 138.308 43.5063 127.85 46.2497C122.427 43.9121 112.269 44.5715 106.622 46.6808C97.4803 50.0956 86.3362 63.5286 82.526 69.5639C74.1135 82.8894 68.8635 100.625 74.4515 116.023C75.1819 118.036 76.1134 119.9 77.1621 121.696C76.5015 122.592 75.7411 123.44 74.8988 124.274C72.3957 126.751 69.8926 129.147 67.7303 131.941C65.5814 134.718 63.8 137.671 62.4739 140.927C59.9734 147.067 59.8529 154.02 63.1588 159.879C66.035 164.976 71.1302 168.772 76.8705 169.134C77.1653 169.175 77.4604 169.213 77.7568 169.243C78.5174 170.496 79.4448 171.65 80.5033 172.656C83.7462 175.742 91.4765 177.325 95.8857 177.426C96.1117 177.608 96.3399 177.79 96.5681 177.97C99.266 180.094 102.097 182.237 105.194 183.748C107.292 184.773 110.043 185.629 112.231 184.889C113.224 185.553 114.853 185.413 115.838 184.87C117.456 183.978 118.772 182.372 119.573 180.728C121.515 176.735 121.048 172.367 120.549 168.102C120 163.391 119.472 158.677 118.935 153.966C118.515 150.283 118.075 146.537 116.955 142.989C116.377 141.15 115.618 139.383 114.638 137.722C114.663 137.583 114.659 137.443 114.619 137.312C114.298 136.268 113.634 135.721 112.848 135.01C112.747 134.92 112.646 134.827 112.546 134.731C112.153 134.283 111.733 133.867 111.283 133.514C111.11 133.339 110.938 133.161 110.767 132.984C109.346 131.494 108.002 129.927 106.808 128.249C105.65 126.622 104.605 124.923 103.61 123.192C102.598 121.431 101.928 119.489 100.918 117.741C100.831 117.591 100.612 117.561 100.489 117.686C100.177 118.009 99.9758 118.369 100.014 118.747L99.8575 118.77C99.7984 118.2 99.2723 117.735 98.5582 117.859C97.4892 118.045 96.6103 118.115 95.685 117.76C95.8476 116.68 95.9976 115.598 96.1455 114.514C96.416 112.519 96.6674 110.517 96.8829 108.516C97.4047 108.64 97.9223 108.82 98.4293 109.048C99.1519 109.372 99.8343 109.807 100.417 110.342C100.992 110.87 101.389 111.582 102.091 111.95C102.898 112.371 103.872 111.675 103.635 110.762C103.155 108.917 100.441 107.86 98.761 107.512C98.1843 107.391 97.5948 107.34 97.0054 107.353C97.1385 106.068 97.2568 104.783 97.354 103.496C97.4005 102.887 97.4427 102.279 97.4829 101.668C98.7885 101.273 100.187 101.154 101.546 101.34C101.993 101.697 102.441 102.05 102.874 102.408C104.25 103.545 105.619 104.688 106.971 105.853C107.093 105.956 107.214 106.06 107.336 106.165C108.139 106.856 109.141 106.172 109.005 105.193C107.903 97.1745 112.812 90.796 118.561 85.8546C124.924 80.3827 136.493 79.7456 144.061 70.2675C147.546 70.9771 155.328 73.0848 158.539 78.2037C163.035 85.3769 162.448 91.8041 162.79 99.9411C163.132 108.084 164.003 116.579 162.154 124.608C160.449 132.011 155.833 138.337 148.671 141.245C148.493 141.317 148.314 141.387 148.134 141.455C144.431 142.852 140.389 143.247 136.493 142.511C132.181 141.695 128.581 139.721 124.994 137.293C124.787 137.156 124.485 137.439 124.641 137.646C129.369 143.915 138.657 146.009 146.024 144.354C146.368 144.276 146.71 144.192 147.05 144.099C145.403 148.839 145.734 154.043 147.881 158.658C149.172 161.436 151.141 163.839 153.538 165.734C156.181 167.823 159.46 169.509 161.294 172.441C162.974 175.127 162.475 178.145 159.6 179.696C158.875 180.089 158.596 181.36 159.315 181.918C159.589 182.129 159.864 182.344 160.145 182.556C161.755 183.771 166.177 186.054 166.893 186.138C173.252 186.893 177.528 182.222 180.268 176.712C183.486 170.245 182.649 162.363 179.104 156.205C176.26 151.263 170.66 146.394 172.886 140.14C173.681 137.906 175.305 136.002 176.884 134.281C178.684 132.322 180.619 130.488 182.345 128.459C184.06 126.444 185.581 124.253 186.431 121.725C187.671 118.031 187.054 114.036 186.122 110.348C184.126 102.431 181.534 94.6193 178.772 86.9409Z" fill="black"/>
<path fill-rule="evenodd" clip-rule="evenodd" d="M143.152 128.274C141.732 127.694 140.465 126.727 139.538 125.492C139.216 125.063 139.133 124.61 139.2 124.195C139.276 123.729 139.552 123.306 139.928 123.023C140.305 122.738 140.777 122.598 141.233 122.67C141.63 122.732 142.024 122.949 142.337 123.399L142.402 123.489C142.953 124.235 143.67 124.846 144.488 125.24C145.276 125.62 146.158 125.798 147.07 125.695C148.808 125.498 150.005 124.558 151.278 123.282C151.436 123.121 151.594 122.954 151.752 122.786C151.852 122.632 151.991 122.534 152.146 122.482C152.317 122.425 152.511 122.428 152.689 122.49C152.86 122.55 153.013 122.663 153.116 122.814C153.213 122.958 153.269 123.135 153.251 123.338C153.134 124.661 152.443 125.842 151.461 126.769C150.37 127.798 148.924 128.511 147.563 128.76C146.064 129.036 144.536 128.839 143.152 128.274V128.274ZM148.271 107.866C149.866 108.836 152.297 111.098 150.581 113.503C148.56 115.624 145.652 113.192 144.219 112.093C142.89 111.241 141.396 113.432 142.629 114.428C152.987 122.099 157.19 108.12 149.078 106.725C148.184 106.572 147.853 107.566 148.271 107.866ZM129.711 98.9426C129.887 96.7538 133.219 96.2568 133.551 98.4227C133.847 100.363 133.498 102.145 132.624 103.892C131.79 105.561 129.692 104.782 129.533 103.263C129.32 101.226 129.601 100.304 129.711 98.9426ZM155.076 97.9736C155.541 97.3649 156.212 96.9494 157.015 97.1842C159.526 97.9182 158.786 101.484 157.904 103.22C157.425 104.163 155.876 104.402 155.176 103.572C154.036 102.218 153.489 99.5154 154.94 98.1822C154.979 98.1133 155.023 98.0438 155.076 97.9736ZM132.589 89.3651L132.986 89.2957C134.213 89.0834 135.738 88.8794 136.606 89.8662C137.067 90.3895 137.225 91.3622 136.606 91.8631C135.518 92.7444 134.314 92.4028 133.01 92.4775C131.935 92.5392 130.902 92.7171 129.867 93.0132C127.595 93.6627 125.744 94.8484 123.804 96.1503C123.55 96.3211 123.29 95.9954 123.411 95.7572C124.531 93.5627 126.701 91.7601 128.875 90.6613C130.036 90.0748 131.305 89.5883 132.589 89.3651ZM152.787 88.3821L153.091 88.4442C156.395 89.1351 160.687 90.515 162.251 93.7613C162.311 94.2203 162.248 94.3187 162.197 94.3829L162.18 94.4043C162.137 94.4592 162.104 94.5349 161.905 94.5974C161.85 94.5842 161.794 94.5703 161.737 94.5555C161.02 94.3675 160.453 94.1085 159.904 93.8398L159.308 93.5462C158.617 93.2073 157.92 92.8807 157.181 92.6396C155.605 92.1252 153.983 91.7628 152.337 91.5693C151.98 91.5274 151.636 91.4069 151.365 91.2004C151.108 91.0044 150.911 90.733 150.821 90.3722C150.705 89.9053 150.739 89.5518 150.989 89.1306C151.177 88.8143 151.447 88.5951 151.756 88.4692C152.071 88.3408 152.43 88.3106 152.787 88.3821Z" fill="black"/>
</svg>
