<svg width="240" height="324" viewBox="0 0 240 324" fill="none" xmlns="http://www.w3.org/2000/svg">
<path fill-rule="evenodd" clip-rule="evenodd" d="M49.1622 285.363C50.2762 287.056 52.4675 286.796 53.4083 285.484C64.1208 287.981 75.1031 286.997 85.9646 286.385C116.572 285.139 147.351 289.045 177.834 284.959C181.068 284.312 184.832 284.621 187.478 282.378C191.71 277.417 190.798 269.884 190.124 263.842C184.72 229.78 177.038 195.405 173.206 161.124C172.992 157.859 174.337 153.802 175.543 150.732C175.841 150.161 177.723 149.601 178.7 148.943C181.698 146.79 181.212 142.932 178.613 140.668C170.198 134.734 158.484 136.808 149.557 138.997C147.847 132.569 145.924 128.342 142.666 127.923C136.467 127.126 121.428 124.691 116.796 127.923C114.58 129.469 113.157 134.917 111.562 137.571C99.9281 137.364 76.3162 121.793 71.4619 139.328C67.518 139.6 63.6116 143.045 64.3661 147.178C59.2511 151.7 63.2854 158.48 63.2147 164.108C62.5422 176.049 56.0833 186.728 53.3962 198.263C47.254 220.635 40.3021 261.331 47.9202 283.169C47.7562 283.083 47.3981 283.212 47.6301 283.393C48.4927 283.637 48.6049 284.724 49.1622 285.363Z" fill="white"/>
<path fill-rule="evenodd" clip-rule="evenodd" d="M182.916 279.674C181.487 268.199 180.494 254.346 180.482 242.775C180.481 241.686 182.172 241.687 182.173 242.775C182.184 254.346 183.178 268.199 184.606 279.674C184.741 280.752 183.049 280.739 182.916 279.674M172.332 208.524C170.124 209.874 167.225 208.937 165.04 208.043C164.045 207.636 164.483 206.001 165.489 206.413C167.152 207.093 169.582 208.096 171.337 207.146C173.089 206.199 173.168 203.592 173.181 201.872C173.189 200.782 174.879 200.783 174.871 201.872C174.853 204.212 174.541 207.172 172.332 208.524M168.245 261.035C166.018 259.893 164.117 258.332 162.588 256.35C161.923 255.488 163.392 254.647 164.047 255.496C165.393 257.241 167.147 258.575 169.098 259.575C170.068 260.073 169.211 261.531 168.245 261.035M157.539 202.026C153.717 217.347 151.152 232.942 149.895 248.684C149.64 251.879 149.46 255.071 149.359 258.264C149.257 259.097 149.16 259.932 149.069 260.766C148.725 263.924 148.461 267.132 148.484 270.311C148.495 271.738 148.539 273.158 148.636 274.58C148.467 274.105 148.311 273.627 148.159 273.152C147.848 272.177 147.643 271.167 147.326 270.199C147.064 269.398 146.726 268.631 146.412 267.855V267.853C146.507 264.676 146.291 261.47 146.181 258.308C146.04 254.212 145.864 250.121 145.773 246.023C145.592 237.826 145.683 229.624 145.978 221.432C146.572 204.926 148.072 188.498 149.585 172.058C150.005 167.487 150.457 162.918 150.77 158.337C151.085 153.709 151.212 149.072 151.247 144.431C151.25 144.097 150.743 144.008 150.65 144.331C150.567 143.23 150.421 142.131 150.178 141.068C153.823 143.393 157.666 145.403 161.433 147.516C163.416 148.63 165.392 149.763 167.437 150.761C168.561 151.31 169.695 151.815 170.853 152.293C172.053 152.788 173.2 153.468 174.521 153.123C174.635 153.094 174.743 153.052 174.846 152.997C174.696 153.282 174.546 153.565 174.402 153.853C173.904 154.844 173.428 155.839 172.968 156.843C172.845 156.934 172.738 157.059 172.653 157.222C172.429 157.659 172.212 158.101 172 158.549C171.958 158.509 171.916 158.469 171.873 158.428C171.696 158.262 171.451 158.513 171.607 158.695C171.679 158.777 171.749 158.858 171.819 158.94C170.441 161.905 169.321 165.023 168.168 168.066C166.75 171.807 165.407 175.575 164.141 179.369C161.646 186.832 159.445 194.392 157.539 202.026M102.899 257.627C95.855 261.4 89.2727 265.91 82.9419 270.774C82.0788 271.437 81.238 269.968 82.0888 269.314C88.4196 264.45 95.0021 259.94 102.046 256.167C103.006 255.653 103.858 257.113 102.899 257.627M79.108 213.43C78.7419 213.402 78.3861 213.19 78.2931 212.809C77.7225 210.472 77.2757 207.926 77.8064 205.542C78.043 204.479 79.6721 204.931 79.4361 205.992C79.0176 207.871 79.3501 209.903 79.7847 211.778C85.9281 212.047 91.9892 209.841 97.8669 208.36C98.9238 208.094 99.3703 209.725 98.3162 209.991C92.0813 211.562 85.6322 213.913 79.108 213.43M201.411 275.77C201.417 275.755 201.424 275.738 201.428 275.724C201.789 274.629 201.797 273.357 201.838 272.209C201.907 270.167 201.833 268.121 201.65 266.086C201.261 261.802 200.424 257.588 199.425 253.409C197.445 245.133 194.648 237.08 193.129 228.692C190.148 212.226 190.856 195.081 185.006 179.198C182.574 172.595 179.101 166.248 174.381 161.003C174.726 159.954 175.062 158.904 175.389 157.849C175.962 156.015 176.547 154.121 176.9 152.232C176.908 152.181 176.919 152.128 176.925 152.075C178.934 151.209 180.762 149.575 181.074 147.402C181.209 146.464 181.053 145.424 180.647 144.517C181.476 143.752 182.008 142.759 181.881 141.427C181.645 138.921 178.719 138.276 176.682 137.786C174.366 137.23 171.964 137.076 169.596 137.338C168.4 137.469 167.217 137.689 166.062 138.018C165.058 138.304 163.966 138.597 163.161 139.286C163.066 139.367 163.144 139.523 163.258 139.523C164.887 139.517 166.509 138.919 168.155 138.84C169.879 138.76 171.599 138.902 173.289 139.257C174.941 139.604 176.589 140.111 178.091 140.895C178.514 141.117 179.133 141.267 178.636 141.715C178.273 142.043 177.559 142.07 177.092 142.119C176.059 142.226 175.167 142.831 175.036 143.934C174.92 144.908 175.501 146.012 176.536 146.231C176.593 146.244 176.646 146.259 176.693 146.278C176.72 146.331 176.762 146.375 176.758 146.303C176.758 146.303 176.76 146.301 176.76 146.303C176.785 146.458 176.794 146.519 176.794 146.529C176.788 146.517 176.777 146.464 176.769 146.422C176.775 146.46 176.788 146.521 176.804 146.612C176.781 146.513 176.8 146.756 176.781 146.794C176.232 147.808 174.607 148.094 173.661 148.531C173.477 148.615 173.319 148.715 173.183 148.827C172.959 148.749 172.731 148.67 172.501 148.584C171.366 148.159 170.234 147.747 169.085 147.364C166.866 146.622 164.621 145.961 162.402 145.217C158.202 143.809 154.142 142.032 150.02 140.421C149.889 139.935 149.737 139.46 149.557 138.997C149.521 138.9 149.348 138.868 149.329 138.997C149.266 139.407 149.215 139.819 149.173 140.233C149.156 140.271 149.152 140.314 149.16 140.354C148.921 142.763 148.985 145.23 148.862 147.637C148.71 150.638 148.285 153.618 148.165 156.621V156.676C147.721 159.24 147.32 161.812 146.957 164.393C146.549 164.266 146.082 164.291 145.604 164.547C142.228 166.35 138.434 167.354 134.616 167.578C132.694 167.69 130.79 167.627 128.878 167.405C127.621 167.261 126.383 166.999 125.143 166.749C125.796 164.012 126.497 161.288 127.29 158.591C127.943 156.374 128.669 154.168 129.567 152.035C130.473 149.881 131.602 147.825 132.652 145.737C133.135 144.771 132.565 143.294 131.308 143.395C130.936 143.425 130.564 143.448 130.19 143.465C126.552 143.638 122.769 143.233 119.177 142.871C115.089 142.457 110.946 142.028 106.894 141.354C106.594 141.305 106.471 141.713 106.767 141.812C108.69 142.459 110.589 143.19 112.56 143.674C114.588 144.175 116.629 144.632 118.687 144.989C120.658 145.329 122.638 145.614 124.623 145.855C125.919 146.014 127.228 146.094 128.532 146.2C126.776 149.006 125.566 152.172 124.512 155.29C123.157 159.293 122.162 163.412 121.188 167.523C119.105 176.334 117.388 185.234 116.044 194.189C115.081 200.61 114.301 207.056 113.716 213.519C113.543 211.556 113.331 209.599 113.093 207.644C112.294 201.153 111.128 194.705 109.569 188.354C109.708 188.108 109.773 187.815 109.727 187.529C109.446 185.784 108.707 184.264 108.058 182.645C107.414 180.384 106.719 178.137 105.971 175.907C105.121 172.87 104.169 169.879 102.95 166.959C102.018 164.733 100.955 162.564 99.7721 160.462C98.3587 157.522 96.8059 154.646 95.101 151.896C95.0122 151.64 94.8686 151.401 94.6636 151.2C94.3531 150.71 94.0383 150.226 93.7172 149.746C93.508 149.433 92.908 149.624 93.0665 150.021C93.1404 150.207 93.2143 150.393 93.2904 150.577C86.346 148.84 79.5369 151.496 72.9221 153.458C71.2531 153.954 69.5672 154.402 67.8559 154.726C66.5101 154.979 64.9425 155.288 63.601 155.009C62.7031 154.823 62.3059 154.415 62.7432 153.455C63.1953 152.462 64.4291 151.809 65.5002 151.37C65.9038 151.283 66.301 151.128 66.6833 150.896C67.5749 150.355 67.9657 149.226 67.5453 148.265C67.1629 147.396 66.0474 146.648 65.0608 147.045C64.9193 147.102 64.7798 147.157 64.6404 147.212C64.6256 147.191 64.6087 147.161 64.5939 147.119C64.4524 146.732 64.3911 147.195 64.4524 146.641C64.5538 145.737 65.5108 144.915 66.1657 144.397C67.7946 143.106 70.1481 142.15 72.2502 142.639C72.4087 142.674 72.5672 142.719 72.7235 142.774C74.889 143.524 75.9432 140.405 74.2129 139.242C74.1073 139.172 73.9742 139.084 73.8284 138.98C73.108 138.479 72.0538 137.636 72.3411 136.875C72.696 135.93 74.7897 135.387 75.5819 135.066C78.4467 133.903 81.5418 133.244 84.6305 133.109C87.7383 132.973 90.8862 133.316 93.8841 134.155C95.3545 134.565 96.865 135.188 98.2552 135.818C99.5038 136.383 102.221 137.129 102.394 138.71C102.432 139.058 102.928 139.177 103.036 138.796C103.888 135.761 100.583 133.802 98.4031 132.549C96.9728 131.724 95.3503 131.211 93.7805 130.706C92.2763 130.22 90.7404 129.862 89.1728 129.647C85.8073 129.186 82.4017 129.245 79.0636 129.892C76.0235 130.482 72.6411 131.488 70.1841 133.445C68.6756 134.645 67.9932 136.556 68.5995 138.42C68.6207 138.481 68.6418 138.545 68.6629 138.606C65.9481 139.092 63.3791 140.648 61.6615 142.816C60.2502 144.598 59.5108 147.077 60.7742 149.15C60.7214 149.188 60.6686 149.228 60.6179 149.271C59.4136 150.234 58.5179 151.634 58.2517 153.164C57.7298 156.182 59.5531 158.293 62.1031 159.101C61.4714 159.718 60.865 160.373 60.2714 161.028C58.9425 162.497 57.6728 164.097 56.5531 165.729C54.2841 169.034 52.3446 172.633 50.6481 176.26C47.1601 183.708 44.9608 191.725 43.7946 199.853C43.2073 203.949 42.8143 208.066 42.6643 212.2C42.4911 216.913 42.6664 221.629 42.5756 226.344C42.4869 230.875 41.9862 235.297 40.9742 239.714C40.0045 243.939 38.7115 248.079 37.5411 252.249C36.2207 256.945 34.7671 261.62 34.07 266.462C33.7171 268.926 33.4636 271.397 33.6601 273.889C33.8587 276.427 34.7798 278.598 35.6291 280.959C35.8446 281.561 36.5017 281.804 37.0277 281.675C37.146 282.806 37.5728 283.909 38.2087 284.865C39.5587 286.889 41.6376 288.181 44.0186 288.65C46.7017 289.176 49.4671 289.051 52.1841 288.954C55.1312 288.849 58.0805 288.753 61.0277 288.631C64.1133 288.503 67.1986 288.372 70.2842 288.241C70.1822 285.077 70.0605 281.914 69.9229 278.752C69.1791 261.657 68.0076 244.552 67.9765 227.435C67.9167 227.4 67.858 227.358 67.8018 227.304C66.4127 225.961 64.7074 225.078 63.1051 224.027C62.1983 223.432 63.046 221.969 63.9582 222.567C65.3091 223.454 66.7167 224.241 67.9826 225.234C67.99 223.452 68.0057 221.671 68.041 219.889C68.0625 218.8 69.7526 218.8 69.7311 219.889C69.625 225.259 69.6605 230.631 69.782 236.001C70.1752 253.403 71.4111 270.773 71.9739 288.168C80.2556 287.814 88.5377 287.458 96.8207 287.155C103.558 286.91 110.295 286.665 117.033 286.42C118.446 286.37 119.24 285.359 119.414 284.038C119.731 281.607 119.135 279.095 117.787 277.051C117.647 276.84 117.483 276.652 117.299 276.491C117.331 275.035 117.39 273.576 117.307 272.12C117.185 269.897 117.001 267.673 116.84 265.452C116.515 261.003 116.264 256.546 116.164 252.086C115.962 243.167 116.109 234.24 116.614 225.334C117.626 207.54 119.982 189.861 123.838 172.456C124.119 171.188 124.402 169.92 124.695 168.654C127.693 170.211 131.34 170.771 134.616 170.792C138.723 170.818 142.74 169.873 146.45 168.155C146.424 168.347 146.399 168.537 146.376 168.73C145.34 176.972 144.468 185.232 143.707 193.502C142.19 209.99 141.261 226.545 141.39 243.106C141.426 247.694 141.601 252.268 141.819 256.85C142.04 261.51 142.381 266.435 143.678 270.93C143.821 271.427 144.14 271.712 144.508 271.816C144.527 272.471 144.569 273.128 144.616 273.775C144.766 275.878 145.195 280.247 146.112 282.153C147.005 284.013 148.495 285.488 150.394 286.3C152.807 287.329 155.416 287.033 157.964 286.868C169.043 286.145 180.113 285.177 191.185 284.328C192.728 284.209 194.27 284.093 195.81 283.973C197.181 283.867 198.599 283.774 199.816 283.062C201.2 282.252 202.279 278.277 201.802 276.632C201.715 276.332 201.584 276.036 201.411 275.77" fill="black"/>
<path fill-rule="evenodd" clip-rule="evenodd" d="M169.522 68.4446C169.451 65.9172 165.777 64.8679 164.715 67.3709C164.649 67.4379 164.578 67.5024 164.51 67.5601C164.843 67.2749 164.148 67.7467 164.035 67.805C163.938 67.8549 163.839 67.8999 163.74 67.9464C163.058 61.5438 160.74 54.6415 154.75 51.4277C146.395 47.3748 136.742 46.5837 127.577 46.9864C122.934 47.262 117.572 48.0047 113.447 45.6549C112.162 44.9227 111.131 43.7703 109.679 43.3178C105.094 42.0769 103.014 46.7871 103.638 50.6605C101.683 50.6759 99.7427 51.7591 98.8987 53.5425C98.403 54.5979 98.4117 55.7369 97.9843 56.7962C96.673 59.4825 94.7967 61.4134 95.8575 64.6703C93.9918 66.7941 95.0555 70.0094 96.561 72.0428C97.3044 73.1004 98.1899 74.1157 98.7345 75.2995C99.2631 76.433 98.4651 77.7771 98.0211 78.8517C94.738 86.6397 94.9256 95.2165 96.6922 103.34C93.1471 104.879 92.0832 109.689 94.3949 112.718C95.1903 113.789 96.1606 114.186 97.2611 114.845C98.6538 115.612 97.5163 118.683 97.9623 120.166C98.5682 123.787 101.864 126.017 105.123 123.666C107.191 123.353 108.859 129.372 110.36 130.882C111.285 132.1 112.313 133.193 113.429 134.202C116.757 142.767 133.807 147.11 142.237 146.614C151.065 145.689 157.021 138.19 161.98 131.533C164.526 127.987 166.182 124.017 166.784 119.687C167.39 115.336 167.125 110.977 166.716 106.621C165.857 97.3642 164.501 84.0289 163.626 74.6726C166.789 74.412 169.618 71.7179 169.522 68.4446V68.4446Z" fill="white"/>
<path fill-rule="evenodd" clip-rule="evenodd" d="M100.567 62.8797C100.564 62.8928 100.569 62.9027 100.572 62.9166C100.572 62.9126 100.573 62.9105 100.574 62.9057C100.571 62.8951 100.569 62.8881 100.567 62.8797" fill="#4F66AF"/>
<path fill-rule="evenodd" clip-rule="evenodd" d="M100.566 63.0141C100.555 63.0018 100.538 62.9927 100.522 62.9805C100.521 62.9809 100.521 62.9813 100.521 62.9817C100.536 62.9919 100.551 63.0035 100.566 63.0141" fill="#4F66AF"/>
<path fill-rule="evenodd" clip-rule="evenodd" d="M169.019 69.6408C170.058 68.7772 171.695 69.5723 171.343 70.994C170.96 72.5424 169.301 73.6004 167.931 74.2366C166.522 74.8911 165.149 75.0173 163.611 74.9459L163.592 74.9416V74.9416C164.019 76.6542 164.261 78.4344 164.588 80.1573C165.002 82.3431 165.41 84.53 165.812 86.7179C166.2 88.8326 166.691 90.9502 166.99 93.0755C167.291 95.2209 167.58 97.3678 167.876 99.5139C168.369 103.098 168.768 106.699 169.188 110.293L169.388 111.995C169.809 115.596 170.147 119.202 169.35 122.786C168.603 126.145 166.919 129.278 164.967 132.081C163.055 134.827 160.919 137.467 158.574 139.855C154.051 144.46 148.473 148.149 141.933 148.833C139.117 149.128 136.11 148.8 133.462 147.776L133.286 147.707C130.607 146.649 127.325 144.836 126.627 141.862C126.199 140.038 128.078 138.614 129.726 139.479C130.489 139.881 131.063 140.339 131.69 140.914L131.801 141.016C132.313 141.492 132.511 141.638 133.101 142.01C134.313 142.773 135.222 143.134 136.599 143.481C139.137 144.12 141.876 144.019 144.453 143.263C149.923 141.659 154.167 137.475 157.803 133.279C159.777 131 161.651 128.61 163.096 125.954C164.612 123.168 165.312 120.243 165.27 117.073C165.222 113.496 164.728 109.904 164.404 106.344C164.073 102.715 163.768 99.0865 163.499 95.4519C163.247 92.0435 163.222 88.6196 163.134 85.2006L163.117 84.5596C163.065 82.7445 163.029 80.9288 162.988 79.1133C162.947 77.3031 162.804 75.4698 162.99 73.6672C163.004 73.5359 163.18 73.5028 163.224 73.6355C163.333 73.9732 163.43 74.3162 163.52 74.6612C163.534 74.6506 163.55 74.6411 163.569 74.6345C164.774 74.2203 165.884 73.3933 166.788 72.5014C167.651 71.6503 168.101 70.4035 169.019 69.6408ZM103.087 44.2793C103.844 41.169 107.251 40.4743 109.77 41.9722C110.981 42.6924 111.951 43.7312 113.083 44.5568C114.208 45.3776 115.452 46.0368 116.764 46.5024C119.371 47.4273 122.121 47.7636 124.876 47.7756C131.582 47.805 138.15 45.9198 144.866 46.13C150.062 46.2928 155.577 47.8291 159.347 51.5869C161.377 53.6112 162.685 56.2138 163.387 58.9768C163.715 60.2681 163.96 61.5907 164.153 62.9103L164.2 63.2401C164.308 64.0113 164.481 64.8278 164.497 65.6072C164.512 66.3072 164.335 67.0398 164.239 67.7326C164.037 69.193 161.775 69.0267 161.45 67.7326C160.711 64.7861 161.02 61.7452 160.116 58.809C159.314 56.2051 157.76 53.9285 155.509 52.3714C146.011 45.8027 133.83 51.3035 123.365 50.7924C120.807 50.6675 118.211 50.2721 115.799 49.391C114.554 48.9366 113.33 48.3824 112.202 47.6854C111.168 47.0472 110.273 46.2453 109.316 45.5074L108.894 45.1865C108.238 44.6929 107.122 43.9211 106.46 44.5741C106.172 44.8583 106.155 45.501 106.16 45.9917L106.163 46.2135C106.193 48.297 106.618 50.3767 105.838 52.3896C105.483 53.3077 104.495 53.8866 103.555 53.3667L103.506 53.3388C101.518 52.1558 98.9067 54.5329 100.434 56.5003L100.481 56.5598C101.34 57.6043 100.882 59.4437 99.3447 59.4391L99.2893 59.4381C96.5496 59.3526 95.3341 62.7779 97.6956 64.2745L97.7682 64.3193C99.6855 65.4671 98.0038 68.2267 96.0388 67.2792C96.2053 67.3595 95.9158 67.3585 95.7502 67.5808C95.5911 67.7943 95.5793 67.979 95.6171 68.2487C95.7318 69.0658 96.4501 69.7544 97.0319 70.2713C98.3536 71.4458 99.992 72.2567 101.68 72.7505C108.443 74.7283 115.381 72.309 121.97 70.8479C128.839 69.3247 136.598 68.7111 142.589 73.0335C142.66 73.0846 142.598 73.1989 142.519 73.1533C138.219 70.6556 132.954 70.8773 128.254 71.9013C122.091 73.2442 115.983 75.7438 109.671 76.4024C111.443 79.5316 112.184 83.2275 111.711 86.8067C111.385 89.2706 110.405 91.4078 109.248 93.5735L109.027 93.9863C107.994 95.9303 107.195 97.7668 107.182 100.019C107.17 102.256 103.844 102.728 103.281 100.547C102.001 95.5943 106.663 91.6929 108.565 87.6086C110.191 84.1171 110.241 80.0463 108.925 76.4713C107.441 76.5907 105.945 76.6032 104.434 76.4683C103.136 76.3523 101.801 76.1183 100.499 75.748L99.9788 77.9376C99.2891 80.8541 98.65 83.7686 98.4563 86.7979C98.3137 89.0238 98.3213 91.2607 98.5383 93.4812C98.7259 95.399 99.1218 97.2485 99.5247 99.1208C99.8703 99.5769 100.047 100.275 99.9498 100.831C102.193 101.477 103.958 103.249 104.603 105.594C104.642 105.737 104.442 105.817 104.368 105.694C102.838 103.154 98.8985 102.22 96.4066 103.898C94.0269 105.499 93.0882 108.733 94.4353 111.293C95.1438 112.639 96.1943 113.585 97.5489 114.236L97.8212 114.364C98.5311 114.7 99.1827 115.066 99.6392 115.741C100.231 116.616 100.251 117.542 100.195 118.542L100.171 118.948C100.134 119.618 100.125 120.308 100.325 120.953L100.37 121.097C100.423 121.258 100.478 121.399 100.574 121.553C100.603 121.599 100.873 121.863 100.961 121.959L101.071 121.993V121.993L101.195 121.998V121.998C101.333 122 101.513 121.94 101.454 121.981L101.47 121.972C101.522 121.94 101.57 121.905 101.61 121.875L101.687 121.815C101.866 121.556 102.091 121.341 102.367 121.178L102.63 121.061V121.061C103.315 120.338 104.487 120.718 104.978 121.438C105.331 121.956 105.521 122.482 105.536 123.001C105.591 122.913 105.714 122.864 105.792 122.963L106.257 123.556C108.037 125.831 109.786 128.12 111.808 130.194C112.922 131.336 114.12 132.41 115.373 133.399C116.442 134.243 118.471 135.055 118.502 136.593C118.512 137.093 118.157 137.446 117.724 137.616C116.313 138.167 114.569 136.292 113.55 135.379L113.467 135.305C112.22 134.212 111.081 133.013 110.031 131.73C107.991 129.238 106.285 126.37 105.533 123.214C105.497 123.765 105.261 124.304 104.802 124.814C104.189 125.491 103.352 125.966 102.457 126.162C100.43 126.605 98.4508 125.875 97.2447 124.186C96.2253 122.757 95.9251 120.871 96.0566 119.145L96.0728 118.938C96.0913 118.661 96.1149 118.153 96.1865 117.937L95.5482 117.587V117.587C94.7657 117.17 94.0404 116.624 93.3895 116.024C90.7734 113.611 89.4608 109.69 90.6567 106.258C91.4048 104.112 92.9769 102.244 94.9898 101.273C94.6534 100.496 94.5409 99.5718 94.4139 98.7545L94.3926 98.6193C94.1773 97.2785 93.9971 95.9208 93.9284 94.5639C93.8 92.0298 93.9561 89.4721 94.3541 86.9674C95.0006 82.8991 96.339 78.5846 98.7922 75.1717C96.9206 74.4282 95.1979 73.3518 93.8682 71.8571C92.4787 70.2952 91.5929 68.0591 92.6674 66.0756C92.9412 65.57 93.298 65.145 93.7081 64.8075C92.9969 63.4642 92.7669 61.8765 93.2057 60.359C93.73 58.5448 95.1538 57.1298 96.8737 56.4691C96.456 54.7502 96.7974 52.9013 98.0737 51.4688C99.3396 50.0476 101.305 49.53 103.125 49.8549C103.224 48.0267 102.648 46.0823 103.087 44.2793ZM97.9841 108.466C99.6523 107.65 101.629 107.779 103.296 108.553L103.409 108.607C105.228 109.489 107.637 111.551 107.059 113.744C106.72 115.027 105.296 115.465 104.192 114.911C103.269 114.449 103.059 113.622 102.596 112.791C102.268 112.203 101.864 111.744 101.389 111.272C100.387 110.276 99.2621 109.537 97.9841 108.945C97.7999 108.86 97.8062 108.554 97.9841 108.466ZM140.017 64.1399C139.86 64.0685 139.974 63.8236 140.131 63.8684C144.323 65.0659 148.231 67.7538 150.567 71.4848C150.709 71.7124 150.731 72.0871 150.567 72.3124L150.491 72.4147C150.384 72.5546 150.278 72.6578 150.077 72.6891C149.698 72.7478 149.369 72.6491 149.151 72.3124C146.851 68.7563 143.903 65.9182 140.017 64.1399ZM168.078 64.8441C168.434 64.2424 169.375 64.3635 169.563 65.0381L169.59 65.0969C169.691 65.3268 169.645 65.3739 169.456 65.2438C169.923 65.6289 170.135 66.2025 169.992 66.8192C169.221 70.1501 165.449 72.5286 162.161 72.2012C161.875 72.1727 161.836 71.8199 162.096 71.7147C163.36 71.2024 164.483 70.3703 165.386 69.3493C166.263 68.3568 166.632 67.2212 167.104 66.0226C167.281 65.5726 167.557 65.2486 167.945 65.0717C167.996 65.0007 168.041 64.9251 168.078 64.8441ZM149.382 62.7036L149.405 62.705C151.094 62.9233 152.555 63.7573 153.741 64.9794C154.884 66.1562 156.326 68.098 156.202 69.825C156.121 70.9699 154.493 71.6244 153.886 70.4527C153.524 69.7536 153.442 68.9872 153.188 68.2479C152.955 67.5703 152.634 66.927 152.249 66.3236C151.456 65.0804 150.366 64.0272 149.251 63.077C149.12 62.9658 149.211 62.7042 149.382 62.7036V62.7036ZM106.054 62.1962C105.679 61.8395 106.069 61.2312 106.545 61.3517C109.058 61.9881 111.546 62.762 114.159 62.839C115.463 62.8772 116.761 62.7743 118.053 62.6054L118.708 62.5185C119.716 62.3869 120.741 62.2835 121.737 62.4907C122.402 62.6287 122.531 63.4846 122.117 63.9312C120.163 66.0403 116.393 65.8387 113.801 65.4832C110.986 65.0968 108.146 64.1901 106.054 62.1962ZM151.427 55.6223C151.255 55.3837 151.544 55.0071 151.818 55.113C154.315 56.0784 156.932 58.592 157.62 61.2219C157.802 61.9166 156.926 62.4411 156.412 61.9254C155.454 60.9644 154.777 59.8293 153.967 58.7491C153.16 57.6722 152.215 56.7159 151.427 55.6223ZM110.514 56.7968C110.314 56.5967 110.516 56.1981 110.803 56.2999C112.429 56.8759 114.067 57.3742 115.775 57.6357C117.524 57.9032 119.29 57.6999 121.048 57.8083C121.76 57.8521 122.244 58.9591 121.453 59.3036C117.94 60.834 113.167 59.4463 110.514 56.7968ZM115.003 53.3641C114.724 53.1574 114.883 52.5902 115.263 52.7485C116.811 53.3933 118.377 53.5518 120.038 53.4855C120.652 53.4607 120.781 54.4255 120.183 54.5557C118.346 54.9554 116.504 54.4742 115.003 53.3641Z" fill="black"/>
<path fill-rule="evenodd" clip-rule="evenodd" d="M132.525 123.612C132.547 121.284 134.564 120.882 136.48 121.193C139.724 121.718 142.98 122.087 146.268 122.154L146.835 122.164V122.164C146.926 122.03 147.079 121.929 147.286 121.907C149.109 121.71 150.97 121.742 152.803 121.688C154.402 121.641 156.044 121.481 157.643 121.607L157.77 121.618C159.724 121.807 161.785 122.805 161.549 125.098C161.332 127.222 159.303 129.102 157.682 130.282C157.355 130.519 157.02 130.741 156.675 130.943C156.567 131.081 156.409 131.177 156.227 131.196C154.631 132.059 152.87 132.569 151.047 132.739C147.182 133.099 142.69 132.709 138.978 131.034C137.771 130.489 136.646 129.809 135.651 128.974C134.116 127.685 132.508 125.731 132.525 123.612ZM147.751 128.23C146.202 128.183 144.655 128.4 143.18 128.878C142.18 129.201 141.269 129.821 140.31 130.253C143.539 131.485 147.291 131.753 150.603 131.529C152.057 131.431 153.466 131.095 154.779 130.519C154.574 130.371 154.367 130.221 154.15 130.09C153.495 129.693 152.81 129.356 152.096 129.087C150.705 128.565 149.237 128.277 147.751 128.23ZM148.271 107.866C147.853 107.566 148.184 106.572 149.077 106.726C157.19 108.12 152.986 122.099 142.629 114.428C141.396 113.433 142.889 111.241 144.218 112.093L144.69 112.457C146.225 113.633 148.762 115.412 150.581 113.503C152.297 111.098 149.866 108.836 148.271 107.866ZM153.762 97.2864C155.487 95.8145 157.65 96.8992 158.919 98.39L159.143 98.6565C159.397 98.9607 159.678 99.3149 159.847 99.6937C161.254 98.4953 163.162 97.652 164.987 98.1994C166.758 98.7322 167.767 100.423 167.463 102.238C167.118 104.303 165.557 105.69 163.879 106.763L163.404 107.065C161.388 108.351 159.501 109.646 157.842 111.413C157.571 111.7 156.986 111.662 156.809 111.28L156.666 110.972V110.972L156.522 110.665C155.345 108.154 154.084 105.66 153.048 103.09C152.281 101.186 152.032 98.7616 153.762 97.2864ZM134.105 98.6197L134.368 98.3158C135.631 96.8448 137.772 95.8599 139.46 97.2865C141.257 98.8061 140.905 101.319 140.104 103.257C139.14 105.595 138.014 107.881 136.932 110.174L136.7 110.665C136.603 110.87 136.508 111.075 136.413 111.28C136.236 111.663 135.649 111.701 135.38 111.413C133.772 109.701 131.954 108.435 130.011 107.19L129.425 106.816C127.719 105.734 126.107 104.337 125.757 102.238C125.457 100.427 126.46 98.7258 128.233 98.1993C130.062 97.6564 131.966 98.4933 133.375 99.6938C133.543 99.3054 133.832 98.9397 134.105 98.6197V98.6197ZM136.417 88.0665C137.034 88.8679 136.375 90.1777 135.474 90.3848C134.358 90.6416 133.231 90.4854 132.135 90.8039C131.131 91.0958 130.17 91.6806 129.309 92.2635C128.328 92.928 127.424 93.6698 126.593 94.515C126.1 95.0178 125.477 96.209 124.715 96.2312C123.958 96.2534 124.975 93.8839 125.059 93.6789C125.656 92.2195 126.495 90.8766 127.544 89.7002C129.615 87.379 134 84.9296 136.417 88.0665ZM159.541 87.425L160.057 87.5687C161.337 87.9244 162.702 88.3614 163.799 89.1284L163.885 89.1895L164.018 89.2867C165.396 90.3141 167.344 92.3642 166.369 94.1527C166.301 94.2759 166.158 94.2881 166.044 94.2378C164.746 93.6691 163.783 92.5333 162.403 92.0582L162.148 91.9714C160.811 91.5208 159.157 91.0471 157.717 91.0902C156.705 91.4192 155.339 91.1467 155.075 89.9144L155.063 89.854L155.041 89.7263C154.889 88.8843 155.114 87.8109 155.985 87.4051C157.177 86.8492 158.34 87.0965 159.541 87.425Z" fill="black"/>
<path fill-rule="evenodd" clip-rule="evenodd" d="M129.449 129.599C131.159 125.59 134.892 122.644 139.191 121.566C142.347 120.778 145.66 120.803 148.877 121.116C150.563 121.279 152.371 121.412 153.96 122.039C155.316 122.574 156.422 123.585 157.253 124.772C158.243 126.179 158.916 127.789 159.389 129.439C159.456 129.674 159.519 129.91 159.578 130.148C159.372 131.393 158.936 132.453 157.783 133.236C156.658 134 155.316 134.313 153.978 134.424C153.846 134.361 153.72 134.296 153.603 134.23C151.518 133.035 150.05 130.213 147.419 130.595C145.07 130.936 143.524 133.893 142.127 135.626C137.644 136.149 133.163 134.801 129.515 132.236C129.33 131.359 129.319 130.473 129.449 129.599M162.625 126.558C162.266 125.551 161.814 124.576 161.279 123.657C159.509 120.619 156.791 118.198 153.565 116.814C145.934 113.546 136.06 115.85 129.897 121.211C127.792 123.044 125.663 125.737 125.019 128.634C124.827 128.672 124.645 128.772 124.496 128.913C120.043 126.108 115.458 123.41 111.87 119.523C109.264 116.698 107.452 113.355 106.342 109.682C106.251 109.38 105.764 109.424 105.779 109.759C105.783 109.837 105.787 109.915 105.791 109.993C105.745 109.849 105.526 109.923 105.509 110.063C104.912 114.525 104.165 119.256 104.853 123.741C105.264 126.418 106.479 128.377 108.104 130.493C109.845 132.761 111.815 134.87 113.83 136.893C115.109 138.177 116.444 139.658 118.01 140.6C119.831 141.694 121.896 142.525 123.839 143.369C125.816 144.231 127.823 145.026 129.867 145.716C133.954 147.1 138.178 148.056 142.476 148.475C145.917 148.809 149.85 149.173 153.148 147.878C155.675 146.886 157.715 145.092 159.334 142.934C161.095 140.583 162.488 137.905 163.258 135.082C164.058 132.149 162.793 127.03 162.625 126.558" fill="black"/>
</svg>
