<svg width="240" height="324" viewBox="0 0 240 324" fill="none" xmlns="http://www.w3.org/2000/svg">
<path fill-rule="evenodd" clip-rule="evenodd" d="M140.038 286.762C122.894 286.81 112.625 286.609 93.2323 286.328C70.7871 285.734 64.738 286.803 52.1638 284.333C50.2413 283.924 48.7787 283.305 47.2952 282.442C46.7634 283.043 45.8619 283.938 45.0059 283.346C43.429 282.303 44.1519 278.661 43.7609 276.605C43.1135 258.496 42.0781 239.846 45.6177 221.956C43.4718 221.258 30.898 216.083 30.2114 214.35C41.5821 184.606 66.5256 149.8 99.3437 151.111C100.004 151.925 100.591 153.13 101.323 153.959C105.785 152.287 111.979 150.612 112.285 144.177C113.057 139.882 113.614 135.872 113.986 131.925C114.053 131.473 114.595 131.318 114.927 131.126C115.069 130.105 115.393 129.062 116.097 128.362C121.849 127.845 134.978 130.218 138.424 131.196C143.124 132.001 142.635 137.047 143.51 140.872C144.898 145.601 145.865 150.509 147.927 155.129C148.394 155.193 149.701 155.421 150.183 155.505C150.208 154.982 149.963 153.428 150.443 153.111C151.332 152.217 151.537 153.918 151.735 154.472C171.157 150.803 183.858 167.291 188.114 185.708C191.196 194.97 195.28 204.343 200.612 214.396C203.956 220.637 194.35 221.797 190.323 224.288C194.478 240.462 194.978 256.933 195.66 273.235C195.84 275.742 196.085 279.152 195.197 280.4C194.776 280.727 194.483 280.718 194.056 280.742C193.232 281.632 191.818 281.573 190.628 281.827C186.866 282.511 183.01 282.968 179.388 283.038C169.221 289.332 153.547 285.812 140.038 286.762" fill="white"/>
<path fill-rule="evenodd" clip-rule="evenodd" d="M112.572 131.913C113.106 129.238 117.519 129.858 117.318 132.555C115.09 142.594 116.447 154.815 102.366 153.827C111.304 169.555 138.905 179.121 147.827 158.472C143.431 157.947 142.561 147.551 142.03 143.913L142.008 143.588C141.89 141.717 141.93 139.983 143.054 138.383C144.176 139.224 144.627 140.745 145.007 142.133L145.285 143.244C146.215 146.947 147.188 150.634 148.663 154.168L148.716 154.176V154.176C148.642 151.779 151.718 150.683 152.481 153.251C173.294 150.384 184.68 167.566 189.172 185.537C192.449 195.374 196.72 204.837 201.572 213.985C205.234 221.133 196.342 222.769 191.638 225.147C195.256 239.646 195.966 254.667 196.636 269.537C196.414 272.711 197.848 279.221 195.933 281.497C193.096 283.718 191.568 279.912 192.004 277.471C192.412 260.216 190.615 243.037 190.1 225.809C186.548 227.31 182.954 228.693 179.319 229.978C179.504 246.144 181.426 262.31 182.111 278.394C183.01 279.103 183.507 280.332 182.739 281.402C178.627 287.139 171.193 287.996 164.652 288.078C149.085 288.274 133.502 288.214 117.934 288.167C102.642 287.821 87.2167 288.8 72.0054 287.047C69.0244 289.287 68.4147 284.458 68.814 282.399L68.9656 278.273C69.0676 275.523 69.1757 272.773 69.3147 270.025L69.6613 263.323C70.2416 252.155 70.8567 240.992 71.8324 229.846C62.9963 228.637 54.2872 226.492 45.8557 223.597C46.5498 242.948 45.126 262.505 47.5 281.757C49.0666 283.884 45.9248 285.88 44.0908 284.548C41.8163 282.813 42.7917 279.419 42.3375 276.921L42.2792 275.306C41.6426 257.892 40.7728 240.112 44.0175 222.937L42.6218 222.395C38.3674 220.733 27.4264 216.29 28.8612 214.098C40.2833 184.157 65.8343 148.346 99.6745 150.047C100.532 150.643 100.97 151.802 101.605 152.633L102.612 152.268C106.511 150.84 110.745 149.03 110.861 144.229C111.599 140.138 112.184 136.046 112.572 131.913ZM168.339 206.541C173.187 199.759 139.566 210.478 137.176 211.186L136.275 211.514C121.55 216.869 105.675 222.048 93.9335 232.722C93.6867 232.993 93.9939 233.366 94.3131 233.215L94.3541 233.19C94.8212 232.93 96.8438 232.208 95.4109 232.482C112.377 221.778 132.087 215.899 151.347 210.757C154.146 210.08 156.958 209.457 159.781 208.891C162.629 208.198 165.843 208.206 168.339 206.541ZM115.213 204.334C115.627 202.643 118.413 187.105 113.786 191.367C112.552 193.603 112.078 196.194 111.856 198.712C111.26 201.647 112.766 204.81 111.301 207.516C109.99 211.05 105.17 215.179 104.848 208.613C112.734 208.343 110.366 198.348 104.998 201.438C102.058 203.955 101.549 208.695 103.021 212.167C100.645 209.579 96.7911 209.571 94.0404 207.618C89.0729 202.246 97.4164 196.656 101.96 194.721C102.216 194.44 105.94 193.141 105.151 192.984C101.584 193.017 98.0101 193.776 94.9321 195.653C88.5616 198.762 86.3933 208.388 93.6808 211.762C95.2567 212.522 96.9812 212.93 98.5414 213.714C102.473 215.753 101.203 218.315 97.1439 218.39C95.4745 218.755 89.9652 217.226 90.5821 220.153C91.5787 221.983 93.7488 222.256 95.65 222.307C100.731 222.656 107.05 219.784 104.178 213.804C107.645 216.759 111.973 212.628 113.459 209.419C115.269 212.97 119.82 211.901 122.388 209.799C126.312 212.891 131.236 209.454 132.984 205.617C133.02 206.415 133.056 207.213 133.094 208.012C133.173 209.648 135.708 210.174 136.083 208.417C136.653 205.745 137.439 203.104 138.52 200.592C141.007 193.991 142.528 196.968 142.615 202.141C142.921 204.083 143.893 205.823 146.039 205.954C146.637 205.99 147.417 205.458 147.511 204.833L147.634 204.006C147.896 202.273 148.199 200.488 148.853 198.859C149.483 204.25 156.54 204.224 158.508 199.754C162.59 202.205 166.873 198.781 168.776 195.24L168.833 195.133C169.498 193.922 167.808 192.457 166.842 193.596L166.507 193.945C164.685 195.832 161.786 198.567 159.39 196.238C159.47 195.187 159.438 194.114 159.373 193.08C159.296 191.848 157.595 190.751 156.628 191.853C155.265 190.695 153.572 190.862 152.146 191.67C148.453 192.714 146.127 196.31 145.326 199.884C145.241 197.028 144.307 193.93 141.171 193.661C137.957 193.634 136.727 197.228 135.632 199.646C135.568 198.563 135.507 197.48 135.452 196.397C135.357 194.533 132.772 194.552 132.561 196.341L132.555 196.397C132.148 200.264 130.007 209.527 124.604 207.715C126.882 205.204 131.003 197.553 127.085 195.171C121.056 193.652 117.963 203.168 120.534 207.596L120.401 207.689C118.932 208.703 116.504 209.832 115.684 207.559L115.591 207.35C115.17 206.389 114.798 205.348 115.213 204.334ZM106.587 203.261C107.729 202.595 108.135 204.803 107.844 205.544C107.377 206.732 106.103 207.394 104.834 207.847L104.838 207.713C104.894 206.356 105.347 203.987 106.587 203.261ZM125.805 197.75C125.831 197.91 125.789 198.104 125.783 198.252C125.588 200.854 124.431 203.353 122.821 205.384C121.895 202.624 123.089 198.978 125.805 197.75ZM153.253 194.496C153.993 194.301 154.778 194.356 155.54 194.562C155.485 195.429 155.673 196.297 156.051 197.093C154.082 203.008 149.453 198.455 153.253 194.496Z" fill="black"/>
<path fill-rule="evenodd" clip-rule="evenodd" d="M151.142 69.0517C137.247 57.7538 114.98 54.0854 100.107 65.4837C88.5494 76.1808 83.7667 106.578 85.812 121.853C86.3807 131.65 93.8627 142.755 104.846 139.656C106.711 139.473 108.522 138.757 110.404 138.608C112.656 138.348 114.924 138.344 117.171 138.661C122.068 139.354 126.408 141.955 131.16 143.171C139.978 145.427 149.817 143.909 157.408 138.828C182.491 122.33 171.129 85.0192 151.142 69.0517V69.0517Z" fill="white"/>
<path fill-rule="evenodd" clip-rule="evenodd" d="M149.292 143.442C149.55 143.353 149.807 143.26 150.063 143.165C150.08 143.225 150.107 143.281 150.139 143.337C150.175 143.425 150.211 143.512 150.251 143.598C149.93 143.601 149.609 143.543 149.292 143.442M148.777 33.9583C148.663 33.7028 148.531 33.4576 148.383 33.2207C148.743 33.3372 149.102 33.4978 149.427 33.7049C149.208 33.7789 148.992 33.8634 148.777 33.9583M93.8914 67.3857C93.8766 67.3832 93.862 67.381 93.8475 67.3785C94.0359 66.8766 94.3716 66.4027 94.7424 66.0605C94.8089 65.999 94.881 65.9422 94.9507 65.8834C94.5571 66.3524 94.2001 66.8527 93.8914 67.3857M194.317 119.874C194.131 118.112 193.895 116.356 193.588 114.61C193.295 112.938 193.048 111.15 192.196 109.666C191.351 108.189 190.504 106.754 189.498 105.454C189.642 104.79 189.832 104.167 189.997 103.664C190.948 100.768 191.884 97.091 189.908 94.4005C189.45 93.777 188.89 93.2994 188.25 92.8682C187.977 92.6843 187.525 92.5174 187.316 92.2637C187.168 92.0841 187.219 92.1813 187.212 92.0925C187.176 91.6149 188.296 90.6068 188.558 90.2284C189.048 89.5287 189.414 88.7405 189.693 87.9353C190.795 84.7481 190.045 81.2376 189.382 78.0439C189.032 76.3512 188.645 74.654 188.518 72.9252C188.4 71.302 188.621 69.7169 188.752 68.1022C188.879 66.5084 188.846 64.8643 188.163 63.3889C187.829 62.6703 187.325 62.0362 186.71 61.5417C186.11 61.0579 185.362 60.7768 184.777 60.2949C184.193 59.8149 184.36 59.1663 184.513 58.5026C184.721 57.6023 184.986 56.7083 185.011 55.7783C185.057 54.1573 184.396 52.5783 183.363 51.3527C182.298 50.0867 180.777 49.2305 179.133 49.0382C178.381 48.9494 177.642 49.0997 176.894 49.0468C176.155 48.9961 175.994 48.6262 175.855 47.9499C175.534 46.4007 175.664 44.8706 174.902 43.4249C174.226 42.1399 173.024 41.2689 171.695 40.7556C169.259 39.8129 166.426 40.0074 163.857 40.563C162.34 36.0995 157.605 33.1723 152.947 33.1364C152.22 31.9021 150.988 30.9806 149.584 30.4393C147.26 29.5411 144.798 30.0655 142.377 30.0655H142.367C142.124 30.0505 141.881 30.0443 141.638 30.0464C141.41 30.0335 141.181 30.0145 140.953 29.9894C138.198 29.6637 135.473 28.5351 132.743 29.6406C131.526 30.1331 130.559 30.8918 129.946 31.8598C129.023 32.1111 128.112 32.3988 127.219 32.7327C123.346 32.8339 119.51 34.9115 117.551 38.2785C114.794 37.9657 111.803 38.4962 109.979 40.7492C109.504 41.3355 109.136 42.0243 108.893 42.7556C107.034 43.3571 105.313 44.4288 104.187 46.0431C103.16 47.5162 102.963 49.4209 103.657 51.0022C101.998 52.205 100.701 53.9269 100.076 55.9601C99.6964 57.1954 99.64 58.4718 99.8842 59.6877C98.185 60.0647 96.5597 60.7637 95.1197 61.8126C93.6106 62.9114 91.7259 64.6603 91.6266 66.6732C91.6192 66.821 91.6249 66.9687 91.6368 67.116C88.3146 66.8825 84.9271 67.4455 82.6815 70.11C80.9954 72.1092 80.2625 74.6836 80.7125 77.0275C76.7597 77.8306 73.0222 79.8976 70.4151 82.9538C68.5203 85.1751 66.8365 87.9987 66.9377 91.0229C66.9694 91.934 67.183 92.8513 67.5527 93.6988V93.7007C67.3942 93.9989 67.2313 94.3307 67.075 94.6837C64.6264 96.3975 62.8475 99.084 61.8461 102.045C61.0372 104.444 60.528 107.559 61.3919 110C61.5231 110.372 61.69 110.723 61.8844 111.048C61.7215 111.222 61.5675 111.395 61.4175 111.571C59.7672 113.5 58.0961 115.931 58.2104 118.587C58.2569 119.657 58.6539 120.733 59.3027 121.616C57.0208 123.93 55.183 126.851 55.3644 130.112C55.5208 132.951 57.078 135.834 59.518 137.197C59.1104 139.384 59.6555 141.692 61.3581 143.4C62.2076 144.254 63.2088 144.816 64.2696 145.116C64.5062 147.692 66.7919 149.766 69.2194 150.362C69.6717 150.474 70.1238 150.541 70.5736 150.573C72.7581 151.645 75.363 151.522 77.5919 150.539C78.2489 151.374 79.1046 152.055 80.1018 152.543C80.5053 152.742 80.9322 152.906 81.3778 153.039C84.5257 153.971 87.7541 152.708 90.5067 151.233C90.5954 151.186 90.7581 151.127 90.9018 151.061C91.282 151.486 91.975 151.907 92.3363 152.114C93.5618 152.818 95.0597 153.145 96.4668 153.052C98.1168 152.942 99.5722 152.397 100.92 151.621C101.117 151.655 101.315 151.674 101.514 151.685C102.782 151.752 103.912 151.351 104.928 150.717C105.6 150.806 106.288 150.797 106.986 150.675C108.522 151.065 110.017 150.444 111.219 149.457C111.752 149.02 112.202 148.506 112.684 148.016C113.184 147.506 113.565 147.388 114.15 147.046C115.534 146.236 115.7 144.184 115.1 142.7C115.214 142.44 115.28 142.151 115.28 141.83C115.276 139.027 113.985 136.457 112.401 134.215C111.693 133.215 110.924 132.236 110.081 131.349C109.402 130.636 108.45 129.48 107.446 129.191C107.385 129.146 107.321 129.102 107.258 129.06C107.453 128.379 107.567 127.686 107.518 126.978C107.467 126.251 107.233 125.562 106.857 124.974C108.118 122.529 108.651 119.847 108.397 117.049C109.424 115.592 110.201 113.984 110.602 112.222C110.85 111.131 110.991 109.983 110.972 108.865C110.964 108.328 110.767 107.65 110.763 107.094C110.793 107.27 111.021 106.614 111.11 106.451C112.128 104.56 113.436 103.085 113.653 100.855C113.78 99.5509 113.471 98.1097 112.69 97.0403C113.19 95.0662 113.184 92.9462 112.396 91.0633C112.185 90.5603 111.942 90.0678 111.663 89.6007C111.792 89.2076 111.91 88.8103 112.062 88.4529C112.122 88.3113 112.181 88.1678 112.24 88.0241C112.812 87.5187 113.345 86.9673 113.793 86.426C114.786 85.2279 115.544 83.8541 115.639 82.2709C115.686 81.4783 115.5 80.7196 115.27 79.9674C115.168 79.6271 115.107 79.2488 114.986 78.917C114.919 78.7329 114.756 78.545 114.699 78.3717C114.686 78.3336 114.676 78.3019 114.667 78.2766C114.676 78.2512 114.682 78.1984 114.682 78.0988C114.684 77.3401 114.783 76.5982 114.788 75.8672C115.483 76.5689 116.32 77.0928 117.27 77.3995C119.186 78.0145 121.185 77.7355 122.881 76.7866C124.707 78.0378 126.758 79.1704 128.909 79.625C130.187 79.8953 131.467 79.7835 132.75 79.9505C134.024 80.1174 135.255 80.6733 136.455 81.1066C139.126 82.0724 141.79 83.0635 144.469 84.0042C146.632 84.7629 148.973 85.3653 151.238 84.9383C151.874 85.9188 152.7 86.7475 153.758 87.3562C154.517 87.7895 155.349 88.083 156.209 88.2291C156.969 88.358 157.861 88.3073 158.478 88.8293C159.08 89.3365 159.456 90.093 159.997 90.6638C160.599 91.3021 161.343 91.8558 162.122 92.2532C162.748 92.5723 163.386 92.8025 164.034 92.9527C163.977 94.3963 163.922 95.8377 163.905 97.2833C163.874 100.424 163.886 103.564 163.844 106.705C163.802 109.835 163.703 112.965 163.538 116.091C163.381 119.025 163.162 121.969 162.462 124.831C160.143 134.327 151.453 141.126 141.726 141.472C138.839 141.576 135.98 141.17 133.219 140.32C130.358 139.439 127.804 137.626 124.871 137.068C124.105 136.924 123.382 137.696 123.821 138.437C124.578 139.712 125.497 140.49 126.754 141.257C128.07 142.058 129.536 142.652 130.983 143.172C133.645 144.127 136.462 144.681 139.286 144.835C141.441 144.953 143.605 144.805 145.715 144.4C145.863 144.854 146.125 145.296 146.324 145.716C146.353 145.778 146.453 145.735 146.434 145.672C146.402 145.566 146.381 145.473 146.372 145.397C147.082 146.323 148.179 146.963 149.305 147.274C150.099 147.494 150.942 147.561 151.76 147.468C152.024 147.439 152.275 147.394 152.525 147.34C153.357 148.069 154.421 148.555 155.49 148.798C155.307 149.914 155.858 151.131 157.136 151.448C157.673 151.581 158.188 151.583 158.704 151.535C159.12 151.729 159.568 151.881 160.044 151.985C160.662 152.12 161.402 151.947 161.869 151.499C162.124 151.679 162.363 151.803 162.6 152.088C163.574 153.264 165.674 152.327 165.767 150.968C166.075 150.968 166.386 150.973 166.696 150.983C166.77 151.017 166.844 151.051 166.92 151.087C168.279 151.718 169.686 152.27 171.188 151.774C171.464 151.683 171.718 151.567 171.948 151.431C173.007 151.526 174.05 151.528 175.124 151.182C175.758 150.977 176.353 150.651 176.85 150.224C178.506 150.711 180.253 150.93 181.901 150.328C183.135 149.878 184.128 149.168 184.827 148.231C185.896 148.269 186.982 148.012 187.96 147.502C189.633 146.636 190.806 144.989 191.624 143.339C193.424 139.697 194.489 135.785 194.907 131.75C195.319 127.777 194.731 123.825 194.317 119.874" fill="black"/>
<path fill-rule="evenodd" clip-rule="evenodd" d="M143.152 128.274C141.732 127.694 140.465 126.727 139.538 125.492C139.216 125.063 139.133 124.61 139.2 124.195C139.276 123.729 139.552 123.306 139.928 123.023C140.305 122.738 140.777 122.598 141.233 122.67C141.63 122.732 142.024 122.949 142.337 123.399L142.402 123.489C142.953 124.235 143.67 124.846 144.488 125.24C145.276 125.62 146.158 125.798 147.07 125.695C148.808 125.498 150.005 124.558 151.278 123.282C151.436 123.121 151.594 122.954 151.752 122.786C151.852 122.632 151.991 122.534 152.146 122.482C152.317 122.425 152.511 122.428 152.689 122.49C152.86 122.55 153.013 122.663 153.116 122.814C153.213 122.958 153.269 123.135 153.251 123.338C153.134 124.661 152.443 125.842 151.461 126.769C150.37 127.798 148.924 128.511 147.563 128.76C146.064 129.036 144.536 128.839 143.152 128.274V128.274ZM148.271 107.866C149.866 108.836 152.297 111.098 150.581 113.503C148.56 115.624 145.652 113.192 144.219 112.093C142.89 111.241 141.396 113.432 142.629 114.428C152.987 122.099 157.19 108.12 149.078 106.725C148.184 106.572 147.853 107.566 148.271 107.866ZM129.711 98.9426C129.887 96.7538 133.219 96.2568 133.551 98.4227C133.847 100.363 133.498 102.145 132.624 103.892C131.79 105.561 129.692 104.782 129.533 103.263C129.32 101.226 129.601 100.304 129.711 98.9426ZM155.076 97.9736C155.541 97.3649 156.212 96.9494 157.015 97.1842C159.526 97.9182 158.786 101.484 157.904 103.22C157.425 104.163 155.876 104.402 155.176 103.572C154.036 102.218 153.489 99.5154 154.94 98.1822C154.979 98.1133 155.023 98.0438 155.076 97.9736ZM132.589 89.3651L132.986 89.2957C134.213 89.0834 135.738 88.8794 136.606 89.8662C137.067 90.3895 137.225 91.3622 136.606 91.8631C135.518 92.7444 134.314 92.4028 133.01 92.4775C131.935 92.5392 130.902 92.7171 129.867 93.0132C127.595 93.6627 125.744 94.8484 123.804 96.1503C123.55 96.3211 123.29 95.9954 123.411 95.7572C124.531 93.5627 126.701 91.7601 128.875 90.6613C130.036 90.0748 131.305 89.5883 132.589 89.3651ZM152.787 88.3821L153.091 88.4442C156.395 89.1351 160.687 90.515 162.251 93.7613C162.311 94.2203 162.248 94.3187 162.197 94.3829L162.18 94.4043C162.137 94.4592 162.104 94.5349 161.905 94.5974C161.85 94.5842 161.794 94.5703 161.737 94.5555C161.02 94.3675 160.453 94.1085 159.904 93.8398L159.308 93.5462C158.617 93.2073 157.92 92.8807 157.181 92.6396C155.605 92.1252 153.983 91.7628 152.337 91.5693C151.98 91.5274 151.636 91.4069 151.365 91.2004C151.108 91.0044 150.911 90.733 150.821 90.3722C150.705 89.9053 150.739 89.5518 150.989 89.1306C151.177 88.8143 151.447 88.5951 151.756 88.4692C152.071 88.3408 152.43 88.3106 152.787 88.3821Z" fill="black"/>
</svg>
