<svg width="62" height="62" viewBox="0 0 62 62" fill="none" xmlns="http://www.w3.org/2000/svg">
<path d="M5.8125 31C5.8125 44.91 17.09 56.1875 31 56.1875C44.91 56.1875 56.1875 44.91 56.1875 31C56.1875 17.09 44.91 5.8125 31 5.8125C17.09 5.8125 5.8125 17.09 5.8125 31ZM31.5631 19.9369C31.7438 20.1161 31.8874 20.3291 31.9857 20.5638C32.084 20.7985 32.1352 21.0503 32.1362 21.3048C32.1372 21.5593 32.0881 21.8114 31.9916 22.0469C31.8951 22.2824 31.7532 22.4966 31.574 22.6772L25.2384 29.0625H41.4141C41.9279 29.0625 42.4207 29.2666 42.7841 29.63C43.1474 29.9933 43.3516 30.4861 43.3516 31C43.3516 31.5139 43.1474 32.0067 42.7841 32.37C42.4207 32.7334 41.9279 32.9375 41.4141 32.9375H25.2384L31.574 39.3228C31.7532 39.5036 31.8951 39.7179 31.9914 39.9536C32.0878 40.1892 32.1369 40.4415 32.1357 40.6961C32.1346 40.9506 32.0833 41.2025 31.9849 41.4373C31.8864 41.672 31.7427 41.8851 31.5619 42.0643C31.3811 42.2436 31.1667 42.3854 30.9311 42.4818C30.6955 42.5782 30.4432 42.6272 30.1886 42.6261C29.934 42.625 29.6821 42.5737 29.4474 42.4752C29.2126 42.3768 28.9995 42.233 28.8203 42.0522L19.2067 32.3647C18.8466 32.0018 18.6445 31.5113 18.6445 31C18.6445 30.4887 18.8466 29.9982 19.2067 29.6353L28.8203 19.9478C28.9996 19.7667 29.2127 19.6228 29.4477 19.5243C29.6826 19.4257 29.9347 19.3745 30.1894 19.3735C30.4442 19.3725 30.6967 19.4217 30.9324 19.5184C31.1681 19.6151 31.3824 19.7573 31.5631 19.9369Z" fill="black"/>
</svg>
