<svg width="45" height="53" viewBox="0 0 45 53" fill="none" xmlns="http://www.w3.org/2000/svg">
<path d="M28.9477 21.8715C27.0063 23.1687 24.7238 23.8611 22.3889 23.8611C19.2579 23.8611 16.2551 22.6173 14.0411 20.4033C11.8272 18.1894 10.5834 15.1866 10.5834 12.0556C10.5834 9.72064 11.2758 7.43816 12.573 5.49675C13.8702 3.55533 15.714 2.04218 17.8711 1.14865C20.0283 0.255115 22.402 0.0213259 24.6921 0.476846C26.9821 0.932366 29.0857 2.05674 30.7367 3.70777C32.3878 5.35881 33.5121 7.46236 33.9676 9.75241C34.4232 12.0425 34.1894 14.4162 33.2958 16.5734C32.4023 18.7305 30.8892 20.5743 28.9477 21.8715ZM27.3119 4.68782C25.8547 3.71414 24.1415 3.19445 22.3889 3.19445C20.0388 3.19445 17.785 4.12803 16.1232 5.78981C14.4614 7.45159 13.5278 9.70545 13.5278 12.0556C13.5278 13.8081 14.0475 15.5213 15.0212 16.9785C15.9949 18.4357 17.3788 19.5715 18.9979 20.2422C20.6171 20.9128 22.3988 21.0883 24.1176 20.7464C25.8365 20.4045 27.4154 19.5606 28.6547 18.3213C29.8939 17.0821 30.7379 15.5032 31.0798 13.7843C31.4217 12.0654 31.2462 10.2837 30.5755 8.66456C29.9049 7.0454 28.7691 5.66149 27.3119 4.68782Z" fill="white" stroke="black" stroke-width="0.5"/>
<path d="M0.200004 39.4346L0.200004 39.4342C0.198724 38.6091 0.511847 37.8146 1.07566 37.2122C3.81881 34.313 7.1244 32.0037 10.7904 30.4254C14.4565 28.8471 18.406 28.033 22.3975 28.033C26.389 28.033 30.3385 28.8471 34.0046 30.4254C37.6704 32.0036 40.9758 34.3127 43.7188 37.2116C44.2764 37.8165 44.5835 38.6105 44.5778 39.4332V39.4346V55.8886C44.5778 56.749 44.236 57.5743 43.6275 58.1827C43.0191 58.7912 42.1938 59.133 41.3333 59.133H3.44445C2.58397 59.133 1.75873 58.7912 1.15028 58.1827C0.541829 57.5743 0.200004 56.749 0.200004 55.8886L0.200004 39.4346ZM41.3333 56.0886H41.5333V55.8886V39.4173V39.3375L41.4784 39.2796C39.0189 36.6898 36.0582 34.6276 32.7764 33.2183C29.4946 31.8091 25.9604 31.0824 22.3889 31.0824C18.8173 31.0824 15.2831 31.8091 12.0014 33.2183C8.7196 34.6276 5.75889 36.6898 3.29943 39.2796L3.24445 39.3375V39.4173V55.8886V56.0886H3.44445H41.3333Z" fill="white" stroke="black" stroke-width="0.4"/>
</svg>
