<svg width="110" height="111" viewBox="0 0 110 111" fill="none" xmlns="http://www.w3.org/2000/svg">
<path d="M99.7416 25.9476C99.3548 25.2113 98.7743 24.5947 98.0627 24.1642C97.3511 23.7337 96.5355 23.5058 95.7038 23.5049H13.6725C12.8424 23.5083 12.0289 23.738 11.3195 24.1692C10.6102 24.6004 10.0317 25.2168 9.64649 25.9521C9.26125 26.6875 9.08374 27.5139 9.13307 28.3426C9.1824 29.1713 9.45669 29.9708 9.92645 30.6553L50.9421 89.9001C51.3602 90.5073 51.9196 91.0038 52.5722 91.3468C53.2248 91.6897 53.9509 91.869 54.6882 91.869C55.4254 91.869 56.1516 91.6897 56.8042 91.3468C57.4567 91.0038 58.0162 90.5073 58.4343 89.9001L99.4499 30.6553C99.9242 29.9722 100.202 29.1722 100.254 28.3422C100.305 27.5122 100.128 26.684 99.7416 25.9476ZM54.6882 79.2998L22.3679 32.6195H87.0085L54.6882 79.2998Z" fill="black"/>
</svg>
