<svg width="174" height="174" viewBox="0 0 174 174" fill="none" xmlns="http://www.w3.org/2000/svg">
<path d="M10.875 46.2188C10.875 39.7292 13.4529 33.5055 18.0417 28.9167C22.6305 24.3279 28.8542 21.75 35.3438 21.75H56.898C59.3973 21.7498 61.8721 22.2419 64.1812 23.1982C66.4903 24.1545 68.5885 25.5563 70.3558 27.3234L81.5625 38.5247L62.6672 57.4254C61.1382 58.9535 59.0651 59.812 56.9034 59.8125H10.875V46.2188ZM10.875 70.6875V127.781C10.875 134.271 13.4529 140.494 18.0417 145.083C22.6305 149.672 28.8542 152.25 35.3438 152.25H138.656C145.146 152.25 151.369 149.672 155.958 145.083C160.547 140.494 163.125 134.271 163.125 127.781V65.25C163.125 58.7605 160.547 52.5368 155.958 47.948C151.369 43.3592 145.146 40.7812 138.656 40.7812H94.6886L70.3558 65.1141C68.5885 66.8812 66.4903 68.283 64.1812 69.2393C61.8721 70.1956 59.3973 70.6877 56.898 70.6875H10.875Z" fill="black"/>
</svg>
