<svg width="25" height="25" viewBox="0 0 25 25" fill="none" xmlns="http://www.w3.org/2000/svg">
<path d="M12.4582 0.430664C5.74986 0.430664 0.30542 5.87511 0.30542 12.5834C0.30542 19.2918 5.74986 24.7362 12.4582 24.7362C19.1665 24.7362 24.611 19.2918 24.611 12.5834C24.611 5.87511 19.1665 0.430664 12.4582 0.430664ZM18.0971 8.69455C17.9148 10.6147 17.1249 15.2814 16.7238 17.4324C16.5537 18.3439 16.2134 18.6477 15.8974 18.6841C15.1926 18.7449 14.6578 18.2223 13.9773 17.7727C12.9078 17.0678 12.3002 16.6303 11.2672 15.9498C10.0641 15.1598 10.8419 14.7223 11.5346 14.0175C11.7169 13.8352 14.828 11.0036 14.8888 10.7484C14.8972 10.7097 14.8961 10.6696 14.8855 10.6315C14.8749 10.5933 14.8552 10.5584 14.828 10.5296C14.7551 10.4689 14.6578 10.4932 14.5728 10.5053C14.4634 10.5296 12.762 11.6598 9.44431 13.8959C8.9582 14.2241 8.5207 14.3942 8.13181 14.3821C7.69431 14.3699 6.86792 14.139 6.24813 13.9324C5.4825 13.6893 4.88702 13.5557 4.93563 13.1303C4.95993 12.9116 5.26375 12.6928 5.83493 12.4619C9.38354 10.9185 11.7412 9.89768 12.92 9.41157C16.2985 8.00184 16.9912 7.75879 17.453 7.75879C17.5502 7.75879 17.7811 7.78309 17.9269 7.90462C18.0485 8.00184 18.0849 8.13552 18.0971 8.23275C18.0849 8.30566 18.1092 8.52441 18.0971 8.69455Z" fill="black"/>
</svg>
