<svg width="23" height="23" viewBox="0 0 23 23" fill="none" xmlns="http://www.w3.org/2000/svg">
<path d="M2.052 2.17676C0.520752 3.72259 0.520752 6.19447 0.520752 11.1455V12.0205C0.520752 16.9643 0.520752 19.4361 2.052 20.9893C3.59784 22.5205 6.06971 22.5205 11.0208 22.5205H11.8958C16.8395 22.5205 19.3114 22.5205 20.8645 20.9893C22.3958 19.4434 22.3958 16.9715 22.3958 12.0205V11.1455C22.3958 6.20176 22.3958 3.72988 20.8645 2.17676C19.3187 0.645508 16.8468 0.645508 11.8958 0.645508H11.0208C6.077 0.645508 3.60513 0.645508 2.052 2.17676ZM4.21034 7.3028H6.71867C6.79888 11.4736 8.63638 13.2382 10.0947 13.6028V7.3028H12.4499V10.8976C13.8864 10.7445 15.403 9.10384 15.9135 7.29551H18.2614C18.07 8.23161 17.6876 9.11818 17.1381 9.89981C16.5886 10.6814 15.8837 11.3413 15.0676 11.8382C15.9784 12.2914 16.7827 12.9325 17.4275 13.7193C18.0723 14.5061 18.5429 15.4207 18.8083 16.4028H16.2197C15.6655 14.6747 14.2801 13.333 12.4499 13.1507V16.4028H12.1583C7.17075 16.4028 4.327 12.9903 4.21034 7.3028Z" fill="black"/>
</svg>
