<svg width="41" height="43" viewBox="0 0 41 43" fill="none" xmlns="http://www.w3.org/2000/svg">
<path fill-rule="evenodd" clip-rule="evenodd" d="M27.3807 38.4737C27.3811 39.6156 26.944 40.7155 26.1571 41.5528C25.3703 42.3901 24.2917 42.903 23.1377 42.9887L22.7937 43H18.2067C17.0494 43.0004 15.9348 42.5691 15.0862 41.7926C14.2377 41.0161 13.7179 39.9519 13.6311 38.8132L13.6196 38.4737H27.3807ZM20.5002 2.1592e-09C24.6629 -6.77704e-05 28.6628 1.59529 31.6564 4.44954C34.6499 7.30379 36.4029 11.1938 36.5456 15.2989L36.5548 15.8421V24.3606L40.7336 32.6076C40.9159 32.9674 41.0072 33.3655 40.9996 33.7678C40.9919 34.17 40.8856 34.5645 40.6896 34.9173C40.4937 35.2701 40.2141 35.5709 39.8746 35.7937C39.5351 36.0166 39.146 36.1549 38.7405 36.1969L38.4767 36.2105H2.52361C2.11574 36.2106 1.71392 36.1132 1.35259 35.9265C0.991258 35.7398 0.681183 35.4694 0.448937 35.1386C0.216692 34.8077 0.069201 34.4263 0.0191035 34.0268C-0.030994 33.6274 0.0177958 33.222 0.161292 32.8452L0.266793 32.6076L4.44558 24.3606V15.8421C4.44558 11.6405 6.13704 7.61102 9.14786 4.64004C12.1587 1.66907 16.2422 2.15921e-09 20.5002 2.1592e-09ZM20.5002 4.52632C17.5451 4.52648 14.7041 5.65233 12.5697 7.66907C10.4353 9.68581 9.17233 12.4378 9.04407 15.351L9.03261 15.8421V24.3606C9.03263 24.9219 8.92686 25.4783 8.72069 26.0014L8.54867 26.3862L5.86526 31.6842H35.1374L32.454 26.3839C32.1994 25.8821 32.0416 25.338 31.9884 24.7793L31.9678 24.3606V15.8421C31.9678 12.841 30.7596 9.96276 28.609 7.84063C26.4584 5.71851 23.5416 4.52632 20.5002 4.52632Z" fill="white"/>
</svg>
