<svg width="40" height="40" viewBox="0 0 40 40" fill="none" xmlns="http://www.w3.org/2000/svg">
<path fill-rule="evenodd" clip-rule="evenodd" d="M23.9755 25.7433C21.7288 27.5385 18.8799 28.4053 16.0141 28.1656C13.1483 27.9259 10.483 26.598 8.56569 24.4545C6.64838 22.3111 5.62457 19.5149 5.70455 16.6401C5.78453 13.7654 6.96222 11.0304 8.99574 8.99693C11.0293 6.96341 13.7642 5.78572 16.639 5.70574C19.5137 5.62576 22.3099 6.64957 24.4533 8.56688C26.5968 10.4842 27.9247 13.1495 28.1644 16.0153C28.4041 18.8811 27.5373 21.7299 25.7421 23.9767L34.3355 32.5683C34.4583 32.6828 34.5568 32.8208 34.6251 32.9741C34.6934 33.1274 34.7302 33.293 34.7331 33.4608C34.7361 33.6286 34.7052 33.7954 34.6423 33.951C34.5795 34.1066 34.4859 34.248 34.3672 34.3667C34.2485 34.4854 34.1071 34.579 33.9515 34.6419C33.7958 34.7047 33.6291 34.7356 33.4613 34.7327C33.2934 34.7297 33.1279 34.693 32.9746 34.6246C32.8212 34.5563 32.6832 34.4578 32.5688 34.335L23.9755 25.7433ZM10.7671 23.14C9.54388 21.9166 8.71073 20.358 8.373 18.6613C8.03526 16.9645 8.2081 15.2057 8.86966 13.6072C9.53123 12.0086 10.6518 10.642 12.0898 9.68017C13.5278 8.7183 15.2187 8.2043 16.9488 8.20314C18.6788 8.20197 20.3704 8.71369 21.8097 9.67363C23.249 10.6336 24.3714 11.9986 25.0351 13.5963C25.6988 15.194 25.874 16.9525 25.5386 18.6497C25.2031 20.3469 24.3721 21.9066 23.1505 23.1317L23.1421 23.14L23.1338 23.1467C21.4923 24.7844 19.2679 25.7036 16.9491 25.7023C14.6303 25.701 12.4069 24.7795 10.7671 23.14Z" fill="black"/>
</svg>
