<svg width="38" height="37" viewBox="0 0 38 37" fill="none" xmlns="http://www.w3.org/2000/svg">
<path d="M19.1458 2.27832C10.2591 2.27832 3.19531 9.34212 3.19531 18.2288C3.19531 27.1156 10.2591 34.1794 19.1458 34.1794C28.0326 34.1794 35.0964 27.1156 35.0964 18.2288C35.0964 9.34212 28.0326 2.27832 19.1458 2.27832ZM19.1458 31.9007C11.6263 31.9007 5.47396 25.7484 5.47396 18.2288C5.47396 10.7093 11.6263 4.55697 19.1458 4.55697C26.6654 4.55697 32.8177 10.7093 32.8177 18.2288C32.8177 25.7484 26.6654 31.9007 19.1458 31.9007Z" fill="black"/>
<path d="M25.2985 26.2044L19.1462 20.0521L12.9938 26.2044L11.1709 24.3815L17.3232 18.2292L11.1709 12.0768L12.9938 10.2539L19.1462 16.4062L25.2985 10.2539L27.1214 12.0768L20.9691 18.2292L27.1214 24.3815L25.2985 26.2044Z" fill="black"/>
</svg>
