<svg width="154" height="132" viewBox="0 0 154 132" fill="none" xmlns="http://www.w3.org/2000/svg">
<path d="M11.7495 25.2197V38.8135H46.8975C47.9692 38.8132 49.0303 38.6018 50.0202 38.1913C51.0101 37.7808 51.9094 37.1792 52.6667 36.421L63.8679 25.2197L52.6667 14.0185C51.1386 12.4884 49.0654 11.6279 46.903 11.626H25.3433C21.738 11.626 18.2804 13.0582 15.731 15.6075C13.1817 18.1568 11.7495 21.6144 11.7495 25.2197ZM0.874512 25.2197C0.874512 18.7302 3.45246 12.5065 8.04124 7.91771C12.63 3.32893 18.8537 0.750977 25.3433 0.750977H46.8975C49.3968 0.750796 51.8716 1.2429 54.1807 2.1992C56.4898 3.15549 58.588 4.55724 60.3553 6.32441L73.8131 19.7822H128.656C135.145 19.7822 141.369 22.3602 145.958 26.949C150.547 31.5377 153.125 37.7615 153.125 44.251V106.782C153.125 113.272 150.547 119.495 145.958 124.084C141.369 128.673 135.145 131.251 128.656 131.251H25.3433C18.8537 131.251 12.63 128.673 8.04124 124.084C3.45246 119.495 0.874512 113.272 0.874512 106.782V25.2197ZM11.7495 49.6885V106.782C11.7495 110.388 13.1817 113.845 15.731 116.394C18.2804 118.944 21.738 120.376 25.3433 120.376H128.656C132.261 120.376 135.719 118.944 138.268 116.394C140.817 113.845 142.25 110.388 142.25 106.782V44.251C142.25 40.6457 140.817 37.1881 138.268 34.6387C135.719 32.0894 132.261 30.6572 128.656 30.6572H73.8131L60.3553 44.115C58.588 45.8822 56.4898 47.284 54.1807 48.2403C51.8716 49.1966 49.3968 49.6887 46.8975 49.6885H11.7495Z" fill="black"/>
</svg>
