<svg width="25" height="25" viewBox="0 0 25 25" fill="none" xmlns="http://www.w3.org/2000/svg">
<path d="M12.4582 0.430664C10.8623 0.430664 9.28197 0.745005 7.80753 1.35574C6.33309 1.96647 4.99338 2.86164 3.86489 3.99013C1.5858 6.26922 0.30542 9.36032 0.30542 12.5834C0.30542 17.955 3.79327 22.5123 8.61792 24.1286C9.22556 24.2258 9.42 23.8491 9.42 23.5209V21.4671C6.05368 22.1963 5.33667 19.8386 5.33667 19.8386C4.77764 18.4289 3.98771 18.0522 3.98771 18.0522C2.88181 17.2987 4.07278 17.323 4.07278 17.323C5.28806 17.4081 5.93216 18.5748 5.93216 18.5748C6.98945 20.422 8.77591 19.8751 9.46861 19.5834C9.57799 18.7935 9.89396 18.2588 10.2342 17.955C7.53632 17.6511 4.70472 16.606 4.70472 11.9758C4.70472 10.6268 5.16653 9.54525 5.95646 8.6824C5.83493 8.37858 5.40959 7.11469 6.07799 5.47407C6.07799 5.47407 7.09882 5.14594 9.42 6.71365C10.3801 6.44629 11.4252 6.31261 12.4582 6.31261C13.4912 6.31261 14.5363 6.44629 15.4964 6.71365C17.8176 5.14594 18.8384 5.47407 18.8384 5.47407C19.5068 7.11469 19.0815 8.37858 18.9599 8.6824C19.7499 9.54525 20.2117 10.6268 20.2117 11.9758C20.2117 16.6182 17.3679 17.639 14.6578 17.9428C15.0953 18.3196 15.4964 19.0609 15.4964 20.1911V23.5209C15.4964 23.8491 15.6908 24.238 16.3106 24.1286C21.1353 22.5001 24.611 17.955 24.611 12.5834C24.611 10.9875 24.2966 9.40722 23.6859 7.93277C23.0752 6.45833 22.18 5.11862 21.0515 3.99013C19.923 2.86164 18.5833 1.96647 17.1089 1.35574C15.6344 0.745005 14.0541 0.430664 12.4582 0.430664Z" fill="black"/>
</svg>
